<?xml version="1.0" standalone="no"?>
<!DOCTYPE svg PUBLIC "-//W3C//DTD SVG 20010904//EN"
 "http://www.w3.org/TR/2001/REC-SVG-20010904/DTD/svg10.dtd">
<svg version="1.0" xmlns="http://www.w3.org/2000/svg"
 width="1000.000000pt" height="800.000000pt" viewBox="0 0 1000.000000 800.000000"
 preserveAspectRatio="xMidYMid meet">

<g transform="translate(0.000000,800.000000) scale(0.100000,-0.100000)"
fill="rgba(0,247,255,0.774)" stroke="none">
<path d="M4885 6393 c-452 -19 -941 -129 -1359 -304 -681 -286 -1323 -788
-1653 -1290 -321 -491 -392 -1110 -173 -1516 145 -269 396 -439 721 -489 135
-21 362 -13 504 16 445 93 885 357 1315 790 316 318 506 636 576 960 24 116
29 300 10 390 -30 141 -103 251 -208 313 -24 14 -77 36 -118 48 -68 22 -93 24
-265 24 -211 0 -279 -11 -465 -71 -495 -162 -1060 -660 -1221 -1078 -71 -185
-95 -374 -65 -516 32 -154 132 -298 239 -348 65 -30 165 -40 192 -18 19 15 19
17 2 30 -9 7 -40 16 -67 19 -94 11 -174 70 -226 167 -16 30 -19 55 -18 165 1
110 5 144 28 220 76 253 236 495 506 766 235 236 414 371 635 480 245 120 481
155 684 103 247 -65 356 -302 296 -647 -56 -320 -242 -634 -569 -963 -412
-412 -838 -672 -1258 -766 -89 -20 -130 -23 -303 -23 -226 0 -312 15 -449 79
-362 167 -516 513 -436 979 73 429 364 898 851 1372 214 208 373 336 615 495
164 108 483 268 675 339 586 217 1321 268 1949 135 284 -59 536 -168 744 -320
l79 -57 -29 -21 c-245 -177 -663 -595 -1020 -1021 -241 -287 -425 -540 -674
-920 -264 -404 -652 -983 -746 -1111 -173 -237 -393 -471 -595 -634 -404 -325
-838 -476 -1313 -457 -286 11 -507 83 -681 222 -158 126 -225 260 -225 450 0
90 20 160 45 157 6 -1 13 -35 16 -76 11 -127 58 -176 170 -176 70 0 118 19
165 67 59 59 79 113 79 218 0 77 -4 96 -25 135 -46 83 -166 114 -284 74 -56
-19 -146 -98 -183 -161 -61 -105 -81 -269 -48 -397 69 -263 343 -476 720 -558
134 -29 402 -35 573 -14 599 77 1399 458 1835 875 280 268 508 619 839 1290
166 337 260 515 386 731 306 525 657 960 995 1234 l48 39 30 -29 c42 -40 132
-176 164 -249 91 -206 88 -503 -7 -737 -107 -262 -325 -472 -601 -578 l-78
-31 -132 28 c-109 23 -158 27 -282 28 -125 0 -155 -3 -182 -18 -65 -35 -30
-95 68 -116 72 -16 231 -14 385 5 l132 16 70 -37 c147 -77 291 -215 368 -351
81 -145 109 -283 102 -511 -10 -307 -97 -572 -277 -844 -286 -433 -665 -686
-1056 -706 -133 -6 -215 10 -316 63 -86 45 -176 139 -218 226 -108 227 -35
587 181 893 91 130 310 347 427 423 163 107 339 160 496 149 105 -7 171 -29
246 -80 114 -77 171 -192 171 -342 1 -138 -35 -248 -132 -410 -56 -93 -62
-113 -37 -129 33 -21 68 12 118 111 166 330 158 598 -25 778 -107 105 -243
152 -411 141 -233 -15 -461 -131 -686 -350 -236 -229 -380 -453 -446 -692 -24
-88 -27 -116 -27 -249 0 -140 2 -155 28 -225 109 -291 394 -428 811 -391 458
41 811 211 1136 548 249 258 371 530 386 863 17 380 -117 692 -391 904 -122
95 -237 158 -431 235 -15 6 -5 10 39 15 98 13 292 64 400 106 226 88 396 231
480 402 71 143 81 194 81 393 -1 164 -2 173 -33 265 -61 183 -179 349 -348
492 l-84 72 82 48 c250 146 514 247 770 294 118 22 366 29 469 15 366 -53 633
-291 730 -651 21 -76 24 -108 24 -290 0 -223 -8 -283 -57 -438 -34 -109 -34
-137 2 -137 32 0 52 40 85 168 102 403 63 764 -108 1017 -45 67 -154 176 -224
226 -407 292 -1099 229 -1757 -160 l-77 -45 -65 39 c-474 291 -1112 433 -1809
403z"/>
</g>
</svg>
