<?xml version="1.0" standalone="no"?>
<!DOCTYPE svg PUBLIC "-//W3C//DTD SVG 20010904//EN"
 "http://www.w3.org/TR/2001/REC-SVG-20010904/DTD/svg10.dtd">
<svg version="1.0" xmlns="http://www.w3.org/2000/svg"
 width="500.000000pt" height="882.000000pt" viewBox="0 0 500.000000 882.000000"
 preserveAspectRatio="xMidYMid meet">

<g transform="translate(0.000000,882.000000) scale(0.100000,-0.100000)"
fill="#000000" stroke="none">
<path d="M1995 8813 c-94 -6 -300 -35 -380 -53 -148 -35 -405 -128 -545 -199
-59 -30 -80 -46 -97 -77 -44 -79 -78 -231 -153 -686 -21 -124 -44 -225 -54
-235 -9 -9 -51 30 -111 104 -70 86 -89 100 -112 81 -22 -17 -267 -390 -332
-503 -102 -178 -125 -303 -125 -695 0 -425 36 -701 195 -1495 120 -605 209
-849 398 -1100 50 -66 91 -126 91 -132 0 -23 -31 -14 -158 42 -68 31 -151 63
-183 72 -55 15 -61 15 -99 -2 -77 -35 -140 -140 -140 -233 0 -68 22 -106 72
-125 52 -21 50 -45 -11 -96 -92 -77 -97 -131 -19 -216 82 -90 140 -97 377 -40
161 38 188 40 204 13 18 -27 -5 -81 -119 -278 -122 -212 -246 -451 -291 -560
-23 -55 -37 -76 -52 -78 -11 -2 -60 12 -109 31 -89 36 -196 67 -227 67 -16 0
-17 -11 -12 -137 8 -196 37 -288 122 -383 54 -61 55 -37 -1 -275 -35 -145 -38
-173 -39 -305 0 -140 1 -147 29 -205 44 -90 141 -182 246 -234 129 -63 258
-92 410 -93 182 -1 277 27 375 112 25 22 51 40 56 40 7 0 8 -73 2 -228 -18
-511 -6 -584 106 -641 94 -48 159 -56 466 -56 433 0 523 23 587 150 11 22 21
41 22 42 1 1 38 -32 82 -75 65 -64 89 -81 136 -95 141 -44 559 -47 727 -7 142
35 237 102 260 187 15 53 14 202 -4 465 -19 289 -21 338 -15 337 3 0 31 -31
62 -69 71 -85 159 -145 236 -161 88 -18 277 -6 396 25 137 35 271 103 339 169
187 183 167 463 -83 1126 l-80 214 129 126 c110 107 211 232 211 261 0 13
-126 59 -196 71 -42 7 -121 10 -208 7 l-140 -5 -27 28 c-47 50 -199 321 -199
354 0 25 36 90 130 235 109 167 135 219 127 252 -10 39 -70 120 -107 145 -65
45 -110 28 -283 -105 -101 -79 -165 -122 -179 -122 -24 0 2 32 64 80 170 132
337 285 402 370 150 195 214 381 306 899 86 476 101 551 145 731 24 96 64 239
89 318 64 200 83 281 96 404 25 235 -29 444 -183 704 -78 133 -97 169 -97 187
0 21 45 63 211 197 253 207 298 276 254 401 -21 59 -61 108 -102 126 -45 18
-91 4 -228 -73 -62 -35 -104 -53 -111 -48 -6 5 -31 24 -55 42 -78 60 -142 39
-287 -93 -35 -32 -64 -56 -66 -54 -2 2 -11 45 -20 94 -20 105 -48 157 -112
214 -76 67 -321 176 -520 233 -116 32 -269 30 -429 -7 -277 -63 -390 -117
-504 -242 -48 -53 -72 -73 -75 -63 -5 14 -13 59 -67 364 -10 60 -28 172 -40
250 -27 181 -35 201 -85 209 -38 7 -190 7 -289 0z m164 -189 c24 -31 57 -170
116 -499 45 -248 108 -563 123 -619 4 -16 12 -31 18 -33 11 -3 105 139 180
277 121 222 154 257 286 310 96 38 295 90 343 90 52 0 55 -34 20 -235 -65
-370 -141 -1219 -111 -1235 21 -11 89 286 156 680 23 135 55 315 71 400 17 85
33 199 36 252 4 66 10 102 20 110 11 9 39 3 126 -26 190 -63 317 -131 317
-170 0 -3 -26 -35 -59 -70 -118 -131 -349 -441 -337 -454 18 -17 98 50 273
227 125 126 196 192 203 185 5 -5 46 -153 90 -329 123 -486 148 -555 201 -555
11 0 48 20 82 43 77 55 92 60 112 41 19 -19 20 -123 1 -176 -7 -20 -36 -72
-64 -115 -67 -105 -102 -191 -109 -269 -5 -54 -3 -64 10 -64 18 0 51 43 62 80
11 37 62 127 106 185 48 64 69 122 69 193 l0 55 21 -19 c66 -59 84 -192 36
-261 -49 -71 -117 -255 -183 -493 -36 -129 -68 -300 -58 -309 9 -10 22 20 100
229 112 302 180 440 220 440 36 0 12 -131 -77 -408 -80 -251 -99 -332 -239
-1027 -111 -549 -133 -634 -200 -768 -76 -149 -256 -357 -404 -469 -130 -96
-324 -181 -601 -262 -259 -75 -402 -90 -793 -83 -195 3 -319 10 -387 21 -376
62 -605 145 -802 292 -180 135 -421 398 -483 530 -56 116 -127 434 -329 1474
l-59 305 9 415 c5 228 13 442 20 475 17 95 109 249 137 231 17 -11 31 -71 57
-259 53 -372 66 -350 58 104 -6 326 -3 389 17 389 19 0 94 -76 153 -155 108
-146 124 -192 197 -578 22 -121 47 -233 55 -250 13 -29 14 -11 7 168 -12 337
-9 968 6 1080 17 127 97 535 117 596 19 56 51 88 132 128 92 46 340 141 368
141 3 0 5 -78 5 -172 1 -257 18 -707 29 -725 7 -13 10 -11 15 13 8 41 23 218
36 424 23 380 34 463 66 495 40 40 42 25 49 -330 12 -611 50 -1209 100 -1539
34 -229 57 -242 70 -41 3 50 8 106 11 125 l6 34 33 -53 c43 -68 85 -183 142
-391 25 -91 48 -173 50 -182 25 -86 33 200 9 313 -21 96 -63 188 -176 385
-100 173 -100 174 -100 241 0 38 -7 190 -15 338 -17 312 -32 648 -41 922 l-7
191 44 6 c24 3 55 7 69 10 14 2 53 4 87 5 55 1 64 -2 82 -25z m2667 -829 c10
-25 -20 -59 -119 -139 -51 -41 -153 -130 -226 -198 -231 -213 -263 -239 -278
-227 -21 18 -15 70 18 139 17 36 48 121 68 190 59 196 82 226 109 144 7 -21
24 -50 37 -63 22 -23 27 -24 62 -13 21 7 92 50 157 97 117 84 160 101 172 70z
m-4320 -4055 c130 -45 564 -276 564 -300 0 -23 -28 -15 -150 46 -73 36 -142
64 -154 62 -22 -3 -19 -7 154 -136 41 -30 66 -57 68 -71 l4 -23 -44 27 c-88
54 -108 60 -208 60 -77 0 -110 -5 -175 -27 -222 -76 -231 -24 -17 92 56 30
102 58 102 61 0 4 -44 32 -97 62 -163 92 -206 131 -176 160 12 13 70 7 129
-13z m3584 -123 c0 -18 -190 -296 -217 -317 -30 -23 -53 -13 -80 37 -16 30
-16 36 -3 60 18 32 177 175 239 214 43 28 61 30 61 6z m-2665 -109 c28 -11 70
-31 94 -45 l44 -25 -7 -64 c-9 -85 -58 -280 -84 -330 -44 -85 -104 -121 -308
-187 -153 -50 -242 -69 -307 -65 l-55 3 57 95 c32 52 87 144 122 205 78 134
213 321 282 393 58 59 62 59 162 20z m2145 -57 c36 -38 80 -94 99 -126 43 -70
36 -77 -69 -72 -66 3 -89 10 -181 54 -107 51 -192 114 -183 137 12 32 137 73
229 75 37 1 45 -4 105 -68z m-1524 -74 c72 -15 114 -40 114 -66 0 -11 -20 -43
-44 -71 -81 -95 -66 -129 21 -48 32 29 60 55 63 58 39 41 98 80 122 80 70 0
83 -62 48 -229 -25 -119 -25 -173 0 -247 33 -96 36 -161 8 -214 -13 -25 -37
-54 -55 -66 -37 -25 -124 -38 -168 -26 -25 7 -29 13 -27 35 5 37 -12 35 -76
-9 -96 -64 -189 -81 -283 -49 -50 17 -132 77 -163 118 -18 25 -19 31 -7 60 25
62 25 78 1 84 -21 6 -22 10 -17 67 5 54 90 498 103 535 4 12 30 13 152 8 81
-4 175 -13 208 -20z m714 11 c25 -1 106 2 180 7 112 6 138 5 147 -7 15 -18 50
-151 119 -458 l55 -244 -33 -28 c-57 -48 -209 -148 -224 -148 -18 0 -18 -1 6
61 12 28 19 54 16 56 -3 3 -30 -15 -60 -40 -84 -68 -101 -72 -278 -52 -145 15
-184 25 -201 49 -4 6 -5 56 -1 111 6 94 4 105 -26 195 -62 187 -34 348 81 457
45 42 75 53 129 48 25 -3 65 -6 90 -7z m621 -138 c105 -41 259 -82 364 -97
l60 -8 84 -145 c114 -199 211 -383 211 -404 0 -38 -40 -33 -250 35 -227 74
-390 163 -433 238 -24 40 -13 40 90 1 182 -70 139 -6 -67 101 -122 62 -145 84
-159 151 -19 87 -25 168 -13 168 6 0 57 -18 113 -40z m-1933 -426 c2 -18 -9
-84 -23 -149 -52 -232 -248 -925 -277 -979 -11 -20 -11 -20 -20 3 -4 12 -15
82 -23 154 -19 157 -29 226 -56 371 -25 132 -23 346 5 433 23 72 63 113 112
113 44 0 74 -23 74 -57 0 -43 23 -28 78 51 65 95 124 122 130 60z m1990 -79
c48 -36 133 -88 189 -116 112 -56 132 -77 153 -161 7 -26 9 -64 6 -83 -6 -31
-10 -35 -29 -29 -32 10 -344 177 -365 195 -14 12 -22 42 -31 115 -7 55 -14
109 -17 122 -2 12 -2 22 2 22 3 0 45 -29 92 -65z m-2588 -60 c0 -13 -96 -468
-120 -572 -32 -132 -53 -193 -69 -193 -13 0 -27 50 -52 195 -29 167 -23 255
24 357 58 126 140 218 194 218 13 0 23 -2 23 -5z m134 -4 c3 -5 -3 -44 -14
-86 -26 -100 -26 -227 -1 -353 84 -428 128 -875 102 -1041 -11 -69 -45 -151
-62 -151 -10 0 -15 20 -30 111 -13 89 -22 110 -40 92 -7 -7 -13 -64 -17 -147
l-5 -136 -110 0 -110 0 7 38 c3 20 13 100 22 177 14 129 14 155 -1 330 -18
204 -16 262 16 377 42 150 88 348 120 508 36 187 51 235 81 267 23 25 34 28
42 14z m3539 -22 c21 -6 37 -16 37 -25 0 -45 -156 -164 -215 -164 -32 0 -84
37 -91 65 -13 53 35 98 131 121 64 16 91 16 138 3z m-2878 -164 c39 -30 96
-65 127 -80 50 -24 61 -34 84 -81 15 -30 29 -74 31 -98 5 -37 2 -46 -18 -60
-67 -46 -220 6 -330 114 -51 50 -59 63 -59 95 0 43 27 154 42 172 13 16 31 7
123 -62z m1655 27 c0 -11 -15 -38 -32 -62 -66 -86 -78 -105 -78 -117 0 -19 25
-16 71 7 22 12 44 18 49 15 18 -11 23 -77 11 -147 -8 -49 -28 -101 -66 -176
-64 -126 -95 -236 -95 -341 0 -112 -17 -209 -42 -243 -22 -32 -78 -62 -194
-103 l-69 -24 -32 34 c-18 19 -33 42 -33 51 0 8 33 48 73 87 69 68 136 166
174 255 22 52 43 141 34 147 -4 2 -30 -35 -56 -83 -135 -244 -226 -332 -280
-272 -34 38 -17 99 89 317 54 111 100 219 103 240 3 22 -2 62 -11 93 -37 125
-3 197 111 233 28 9 93 37 144 62 102 49 129 55 129 27z m634 -14 c42 -42 64
-103 132 -357 72 -269 105 -371 121 -371 33 0 -9 244 -93 549 -19 68 -34 134
-32 145 8 58 98 -24 165 -151 23 -44 82 -178 131 -299 l89 -219 -21 -85 c-19
-77 -21 -113 -20 -382 l1 -298 -56 -21 c-61 -23 -162 -46 -226 -51 l-39 -3
-17 106 c-18 116 -41 201 -65 239 -14 23 -15 11 -9 -143 7 -189 4 -197 -54
-197 -90 1 -163 70 -196 185 -23 81 -45 223 -45 294 0 77 15 113 135 321 l77
134 -12 151 c-14 182 -26 286 -46 384 -9 40 -13 79 -10 87 10 25 56 16 90 -18z
m-1179 -62 c65 -18 95 -39 95 -66 0 -30 -25 -40 -126 -50 -117 -12 -146 -19
-141 -34 2 -6 41 -13 94 -17 102 -6 149 -22 159 -52 14 -44 -12 -48 -256 -41
-259 8 -282 -3 -75 -35 348 -54 345 -54 345 -84 -1 -81 -179 -373 -239 -392
-20 -6 -271 56 -422 104 -108 35 -193 86 -228 136 -32 48 -23 70 27 61 159
-28 220 -36 242 -31 23 6 24 8 7 19 -9 8 -45 19 -80 26 -200 39 -201 41 -202
246 0 171 2 175 109 199 134 29 191 34 411 31 169 -3 234 -7 280 -20z m855
-102 c202 -103 230 -137 230 -282 0 -63 -6 -106 -20 -148 -20 -58 -137 -264
-151 -264 -3 0 -21 51 -39 113 -18 61 -72 233 -120 382 -49 148 -86 273 -84
277 6 9 55 -12 184 -78z m-3350 -153 c73 -76 88 -164 41 -222 -18 -22 -19 -22
-44 -6 -38 25 -88 102 -109 169 -22 73 -22 82 -2 103 26 25 63 11 114 -44z
m1288 0 c86 -58 133 -79 223 -100 45 -11 85 -25 90 -33 10 -15 12 -83 3 -115
-3 -12 -18 -26 -32 -32 -21 -9 -348 -51 -392 -51 -20 0 -6 326 16 361 10 17
35 9 92 -30z m-1009 -55 c5 -12 17 -83 25 -157 9 -74 33 -216 52 -317 36 -183
36 -185 31 -390 -5 -214 -18 -294 -48 -300 -21 -4 -37 36 -49 119 -44 312 -62
349 -53 112 5 -157 5 -173 -11 -179 -24 -9 -53 6 -125 66 -101 84 -103 90 -97
255 5 151 27 266 86 450 58 178 145 365 170 365 6 0 15 -11 19 -24z m2830
-443 c16 -205 14 -312 -3 -319 -22 -8 -109 39 -123 67 -18 35 -17 287 2 367 8
34 31 95 52 135 l37 72 12 -90 c7 -49 18 -154 23 -232z m-1373 99 c98 -35 165
-78 178 -115 14 -38 -10 -80 -97 -173 -93 -100 -114 -106 -250 -71 -131 33
-328 103 -370 131 -42 28 -49 72 -14 85 13 5 90 14 171 19 221 15 215 36 -22
67 -130 17 -152 22 -152 35 0 17 228 47 370 49 91 1 116 -3 186 -27z m479
-162 c53 -11 109 -28 123 -39 59 -41 148 -233 126 -269 -28 -45 -215 -112
-313 -112 -110 1 -227 47 -295 119 -21 22 -27 36 -23 53 7 25 78 124 155 216
41 48 48 52 87 52 24 0 86 -9 140 -20z m2033 -22 c27 -33 46 -136 46 -253 0
-103 -3 -127 -22 -168 -23 -52 -42 -57 -53 -16 -4 13 -7 106 -8 205 -1 225 6
269 37 232z m-2883 -202 c50 -20 108 -49 130 -64 79 -55 83 -146 16 -355 -23
-70 -41 -145 -41 -166 0 -43 -11 -56 -56 -65 -46 -10 -82 9 -157 82 -106 104
-151 187 -128 231 17 30 35 17 83 -57 42 -65 43 -66 46 -36 4 39 -29 124 -71
181 -30 43 -32 50 -35 154 -5 134 0 144 73 136 27 -3 91 -21 140 -41z m1603
-109 c2 -27 -9 -112 -24 -190 -14 -78 -29 -154 -31 -169 -4 -21 -1 -28 11 -28
28 0 51 54 85 199 36 155 47 177 79 167 30 -10 41 -60 44 -194 3 -108 2 -111
-27 -153 -44 -63 -147 -146 -197 -160 -24 -6 -104 -12 -178 -13 l-135 -1 -65
37 c-108 61 -209 136 -226 170 -12 22 -15 49 -12 95 4 71 21 96 62 96 34 0 55
-20 108 -101 l43 -66 3 112 c1 62 4 112 5 112 2 0 61 21 132 46 153 55 284 94
305 91 10 -2 16 -17 18 -50z m-1181 -42 c112 -59 191 -113 198 -135 3 -10 1
-49 -6 -87 -11 -64 -15 -72 -68 -123 -91 -91 -234 -180 -286 -180 -32 0 -81
46 -91 84 -3 14 -1 40 6 58 46 123 61 179 65 242 10 128 16 157 36 177 24 24
37 21 146 -36z m1368 -490 c4 -30 6 -149 3 -264 -3 -207 -4 -210 -28 -236 -14
-15 -36 -33 -50 -40 -33 -17 -158 -43 -245 -50 -38 -3 -82 -8 -96 -11 -22 -4
-31 4 -72 63 -25 37 -55 89 -66 114 -27 62 -37 172 -19 223 21 63 51 78 171
87 186 15 280 49 343 126 19 24 39 43 44 43 5 0 12 -25 15 -55z m-761 -16 c73
-68 136 -177 136 -236 0 -41 -52 -203 -83 -257 -12 -21 -31 -45 -43 -53 -18
-12 -24 -11 -43 4 -29 23 -38 70 -56 271 -16 178 -19 314 -8 325 15 15 36 4
97 -54z m-1171 -4 c130 -93 455 -122 569 -51 24 15 67 45 97 67 39 28 58 36
65 29 7 -7 11 -93 11 -243 0 -212 -2 -235 -20 -271 -27 -53 -59 -75 -125 -85
-87 -14 -99 -5 -140 119 -19 58 -39 114 -43 125 -17 41 -27 -10 -27 -138 l0
-129 -120 4 c-73 2 -124 8 -131 15 -6 6 -14 63 -18 132 -4 66 -10 123 -14 127
-12 13 -24 -41 -32 -139 -6 -90 -9 -99 -30 -109 -55 -25 -121 12 -144 81 -20
60 -10 398 15 497 7 27 7 27 87 -31z"/>
<path d="M1128 5614 c-175 -42 -341 -187 -392 -342 -67 -203 -16 -432 129
-577 152 -152 368 -200 585 -128 237 78 381 293 367 548 -18 344 -348 582
-689 499z m21 -228 c44 -23 99 -91 107 -131 20 -110 -87 -212 -192 -184 -79
22 -144 117 -125 185 15 54 50 95 105 120 60 28 68 29 105 10z m266 -521 c19
-18 25 -35 25 -70 0 -40 -3 -47 -26 -55 -42 -16 -73 -11 -101 16 -20 20 -24
32 -19 57 7 36 48 77 77 77 11 0 31 -11 44 -25z"/>
<path d="M3405 5610 c-223 -45 -404 -238 -436 -466 -14 -99 4 -205 53 -304 44
-91 159 -205 258 -256 l75 -39 176 0 175 0 69 35 c118 60 250 211 291 332 20
61 22 220 4 299 -32 140 -140 283 -259 343 -112 57 -283 80 -406 56z m24 -245
c68 -35 109 -117 92 -182 -13 -46 -74 -110 -118 -122 -62 -18 -148 21 -178 79
-8 16 -15 53 -15 82 0 98 54 158 143 158 26 0 61 -7 76 -15z m256 -500 c68
-67 -16 -173 -93 -119 -50 35 -48 99 5 128 40 22 60 20 88 -9z"/>
</g>
</svg>
