<?xml version="1.0" standalone="no"?>
<!DOCTYPE svg PUBLIC "-//W3C//DTD SVG 20010904//EN"
 "http://www.w3.org/TR/2001/REC-SVG-20010904/DTD/svg10.dtd">
<svg version="1.0" xmlns="http://www.w3.org/2000/svg"
 width="512.000000pt" height="559.000000pt" viewBox="0 0 512.000000 559.000000"
 preserveAspectRatio="xMidYMid meet">

<g transform="translate(0.000000,559.000000) scale(0.100000,-0.100000)"
fill="#000000" stroke="none">
<path d="M2115 5503 c-11 -3 -35 -16 -53 -30 -124 -94 -47 -296 108 -281 88 9
142 70 142 160 0 54 -28 105 -72 132 -30 17 -95 27 -125 19z"/>
<path d="M2755 5343 c-11 -3 -35 -16 -53 -30 -124 -94 -47 -296 108 -281 88 9
142 70 142 160 0 54 -28 105 -72 132 -30 17 -95 27 -125 19z"/>
<path d="M1785 4941 c-130 -33 -206 -160 -175 -292 10 -41 24 -64 64 -105 57
-58 97 -74 189 -74 l57 0 0 -626 0 -626 -556 -1082 c-610 -1187 -583 -1127
-564 -1271 21 -151 121 -289 260 -359 l73 -36 1427 0 1427 0 73 36 c182 91
285 286 260 489 -7 56 -46 124 -649 1138 l-641 1078 0 629 0 630 63 0 c84 0
126 13 175 56 62 52 86 105 86 184 0 95 -43 167 -129 213 -40 22 -44 22 -725
24 -377 1 -698 -2 -715 -6z m1368 -162 c49 -22 61 -86 22 -124 -23 -24 -29
-25 -160 -25 l-136 0 3 -712 3 -713 639 -1098 638 -1098 1 -62 c1 -36 -6 -84
-17 -114 -23 -68 -96 -149 -161 -179 l-50 -24 -1366 0 c-1526 0 -1416 -5
-1504 72 -81 71 -126 194 -106 286 6 27 245 507 566 1135 l555 1088 0 709 0
710 -135 0 c-131 0 -137 1 -160 25 -37 37 -28 101 19 123 31 15 1317 16 1349
1z"/>
<path d="M2055 2651 c-114 -57 -108 -48 -539 -897 -319 -630 -396 -789 -396
-821 0 -49 28 -102 70 -130 l33 -23 1324 0 c1202 0 1328 2 1359 16 47 22 76
67 82 124 4 48 2 53 -444 833 l-448 784 -55 -45 c-108 -88 -220 -118 -327 -87
-79 22 -126 51 -230 140 -121 103 -176 129 -284 133 -78 3 -90 1 -145 -27z"/>
</g>
</svg>
