<?xml version="1.0" standalone="no"?>
<!DOCTYPE svg PUBLIC "-//W3C//DTD SVG 20010904//EN"
 "http://www.w3.org/TR/2001/REC-SVG-20010904/DTD/svg10.dtd">
<svg version="1.0" xmlns="http://www.w3.org/2000/svg"
 width="512.000000pt" height="512.000000pt" viewBox="0 0 512.000000 512.000000"
 preserveAspectRatio="xMidYMid meet">

<g transform="translate(0.000000,512.000000) scale(0.100000,-0.100000)"
fill="#000000" stroke="none">
<path d="M2315 5109 c-800 -83 -1501 -518 -1927 -1196 -487 -774 -516 -1777
-75 -2578 200 -364 487 -676 841 -913 238 -159 600 -311 876 -366 214 -43 295
-51 530 -51 236 0 333 10 532 51 880 184 1615 842 1898 1702 92 278 125 491
125 802 0 301 -32 513 -116 775 -124 390 -330 728 -622 1024 -399 404 -893
653 -1462 737 -123 18 -478 26 -600 13z m821 -818 c38 -23 58 -70 50 -114 -11
-61 -72 -97 -163 -97 l-42 0 -3 -97 -3 -98 -168 -5 -169 -5 -24 -28 c-13 -15
-27 -39 -30 -52 -9 -34 2 -69 30 -102 l24 -28 169 -5 168 -5 3 -97 3 -98 -158
0 c-137 0 -162 -3 -189 -19 -60 -37 -69 -124 -18 -172 24 -23 33 -24 192 -29
l167 -5 3 -130 3 -130 55 -24 c75 -33 216 -127 291 -196 122 -110 230 -275
289 -441 165 -462 11 -981 -380 -1276 -546 -412 -1325 -244 -1661 357 -87 154
-135 348 -135 540 0 257 74 476 231 685 33 43 88 104 122 135 78 71 214 163
289 195 l58 25 0 553 0 552 -43 0 c-91 0 -152 36 -163 97 -8 44 12 91 50 114
29 18 60 19 576 19 516 0 547 -1 576 -19z"/>
</g>
</svg>
