<?xml version="1.0" standalone="no"?>
<!DOCTYPE svg PUBLIC "-//W3C//DTD SVG 20010904//EN"
 "http://www.w3.org/TR/2001/REC-SVG-20010904/DTD/svg10.dtd">
<svg version="1.0" xmlns="http://www.w3.org/2000/svg"
 width="512.000000pt" height="512.000000pt" viewBox="0 0 512.000000 512.000000"
 preserveAspectRatio="xMidYMid meet">

<g transform="translate(0.000000,512.000000) scale(0.100000,-0.100000)"
fill="#000000" stroke="none">
<path d="M2771 4089 c-355 -38 -803 -202 -1136 -417 -466 -300 -788 -834 -761
-1262 12 -204 72 -347 195 -471 129 -128 269 -183 466 -182 321 2 564 193 689
541 34 95 34 114 0 110 -22 -3 -29 -13 -50 -78 -81 -240 -246 -424 -441 -491
-58 -20 -87 -24 -198 -24 -123 0 -133 2 -190 29 -89 44 -184 144 -233 248 -56
116 -73 192 -79 345 -7 161 7 263 53 403 100 300 345 615 619 795 217 143 526
276 790 341 406 99 733 90 981 -26 82 -38 204 -115 204 -128 0 -4 -28 -28 -63
-53 -176 -132 -362 -325 -539 -562 -128 -172 -190 -266 -488 -742 -497 -793
-557 -880 -728 -1057 -156 -160 -299 -250 -467 -294 -98 -25 -300 -26 -371 -1
-59 20 -113 58 -131 90 -17 30 -16 37 5 37 28 0 81 37 102 72 26 42 25 91 0
144 -50 101 -214 98 -274 -6 -32 -54 -29 -151 6 -212 92 -156 312 -224 606
-188 396 50 773 328 1154 851 90 124 240 361 511 806 349 575 461 735 643 920
l116 118 29 -35 c87 -103 133 -232 133 -375 1 -174 -58 -308 -195 -445 -128
-127 -321 -223 -509 -250 -41 -6 -90 -13 -107 -16 -32 -5 -33 -7 -33 -49 l0
-45 73 0 c262 -1 443 -125 523 -360 28 -81 25 -295 -4 -405 -88 -322 -347
-599 -606 -646 -175 -32 -377 68 -416 206 -37 133 48 328 162 367 46 16 17 32
-59 32 -159 1 -272 -120 -281 -301 -4 -78 -2 -88 27 -148 36 -72 88 -123 172
-165 97 -49 170 -64 319 -64 168 0 258 21 415 99 457 228 680 745 483 1118
-45 85 -146 183 -235 230 -73 38 -200 77 -257 78 -21 0 20 18 119 53 227 79
334 142 455 265 139 141 195 273 194 451 0 81 -6 120 -23 170 -33 96 -95 194
-172 272 l-68 69 67 43 c129 83 264 136 385 151 52 6 57 8 57 31 0 25 -1 25
-57 19 -149 -16 -276 -56 -436 -137 l-99 -49 -96 49 c-122 63 -258 106 -394
126 -116 18 -411 20 -557 5z"/>
</g>
</svg>
