<?xml version="1.0" standalone="no"?>
<!DOCTYPE svg PUBLIC "-//W3C//DTD SVG 20010904//EN"
 "http://www.w3.org/TR/2001/REC-SVG-20010904/DTD/svg10.dtd">
<svg version="1.0" xmlns="http://www.w3.org/2000/svg"
 width="512.000000pt" height="512.000000pt" viewBox="0 0 512.000000 512.000000"
 preserveAspectRatio="xMidYMid meet">

<g transform="translate(0.000000,512.000000) scale(0.100000,-0.100000)"
fill="#000000" stroke="none">
<path d="M144 4641 c-22 -10 -57 -35 -77 -56 -72 -74 -67 35 -67 -1594 l0
-1466 24 -50 c28 -60 66 -97 126 -124 44 -20 61 -21 1028 -21 l982 0 0 -275 0
-275 -365 0 -365 0 0 -160 0 -160 1130 0 1130 0 0 160 0 160 -365 0 -365 0 0
275 0 275 983 0 982 0 50 24 c60 28 97 66 124 126 20 45 21 58 21 1511 0 1629
5 1520 -67 1594 -20 21 -55 46 -77 56 -40 18 -125 19 -2416 19 -2291 0 -2376
-1 -2416 -19z m4656 -1646 l0 -1345 -2240 0 -2240 0 0 1345 0 1345 2240 0
2240 0 0 -1345z"/>
<path d="M2442 3003 c-111 -467 -202 -851 -202 -855 0 -5 51 -8 114 -8 l114 0
16 64 c30 121 396 1636 396 1641 0 3 -53 5 -118 5 l-117 0 -203 -847z"/>
<path d="M1557 3367 l-557 -242 2 -138 3 -138 495 -215 c272 -119 525 -228
563 -244 l67 -29 0 159 0 159 -382 151 c-211 83 -386 155 -390 159 -4 3 168
73 382 155 l390 149 0 158 c0 88 -3 159 -7 158 -5 0 -259 -109 -566 -242z"/>
<path d="M2990 3452 l0 -158 386 -149 c212 -82 387 -152 389 -155 2 -4 -167
-73 -375 -155 -208 -81 -384 -151 -390 -155 -7 -4 -10 -58 -8 -163 l3 -156
560 244 560 244 0 138 0 138 -535 232 c-294 127 -547 236 -562 242 l-28 10 0
-157z"/>
</g>
</svg>
