<?xml version="1.0" standalone="no"?>
<!DOCTYPE svg PUBLIC "-//W3C//DTD SVG 20010904//EN"
 "http://www.w3.org/TR/2001/REC-SVG-20010904/DTD/svg10.dtd">
<svg version="1.0" xmlns="http://www.w3.org/2000/svg"
 width="980.000000pt" height="900.000000pt" viewBox="0 0 980.000000 900.000000"
 preserveAspectRatio="xMidYMid meet">

<g transform="translate(0.000000,900.000000) scale(0.100000,-0.100000)"
fill="#000000" stroke="none">
<path d="M4600 8990 c-62 -13 -193 -80 -267 -137 -104 -80 -191 -208 -228
-338 -23 -78 -16 -224 15 -314 86 -245 337 -420 603 -421 214 0 468 198 548
428 92 263 -50 580 -321 717 -108 55 -260 83 -350 65z m214 -424 c61 -26 104
-165 76 -250 -38 -117 -174 -169 -295 -112 -79 37 -89 54 -93 156 -7 165 43
219 201 220 44 0 92 -6 111 -14z"/>
<path d="M2723 8565 c-219 -48 -420 -267 -465 -505 -48 -254 134 -543 410
-653 69 -28 88 -31 187 -32 90 0 122 4 177 23 176 61 339 225 400 400 19 56
23 88 23 192 0 123 -1 126 -36 200 -139 290 -412 437 -696 375z m251 -416 c65
-46 81 -75 84 -159 6 -143 -59 -210 -203 -210 -133 1 -184 45 -193 170 -11
161 56 234 210 227 52 -2 74 -8 102 -28z"/>
<path d="M6044 7951 c-45 -21 -63 -46 -174 -251 -219 -403 -832 -1633 -935
-1875 -36 -85 -37 -91 -26 -135 16 -60 54 -116 93 -136 37 -19 129 -22 180 -5
48 16 80 57 163 209 57 105 70 122 87 116 23 -7 385 -181 1298 -624 1254 -608
1811 -873 1901 -903 120 -41 359 -44 505 -7 228 58 445 245 564 485 107 215
127 444 59 649 -52 155 -149 307 -267 417 -63 60 -98 78 -627 340 -623 308
-1318 646 -2100 1021 -286 137 -524 253 -528 258 -5 4 14 59 42 122 55 124 57
132 40 189 -36 117 -166 179 -275 130z m728 -1156 c1080 -523 1257 -609 1257
-616 1 -4 -158 -59 -351 -124 -194 -65 -495 -166 -668 -225 l-315 -108 -265
130 c-146 72 -387 190 -536 263 -149 73 -274 137 -278 143 -9 15 118 285 264
563 103 196 171 319 176 319 1 0 323 -155 716 -345z m1930 -936 c288 -132 525
-258 564 -301 123 -136 160 -406 79 -568 -74 -147 -294 -290 -444 -290 -25 0
-75 11 -111 24 -159 57 -1530 716 -1530 735 0 5 26 19 58 31 248 95 785 282
1062 371 85 28 160 52 165 54 6 2 13 4 17 4 4 1 67 -26 140 -60z"/>
<path d="M4192 7349 c-28 -5 -82 -22 -118 -39 -213 -96 -363 -285 -384 -480
-19 -187 21 -319 136 -450 111 -126 217 -194 351 -226 253 -60 541 104 668
380 101 217 50 440 -145 637 -89 90 -155 132 -258 163 -69 20 -183 27 -250 15z
m200 -416 c55 -22 89 -84 95 -171 8 -118 -51 -194 -161 -207 -154 -20 -270 90
-242 228 29 147 159 210 308 150z"/>
<path d="M2325 6939 c-65 -16 -178 -76 -247 -133 -76 -63 -145 -152 -190 -244
-33 -67 -33 -68 -33 -218 l0 -150 44 -90 c36 -74 59 -105 135 -180 75 -74 108
-99 181 -135 l88 -44 141 0 c105 0 152 5 184 17 157 59 312 209 390 376 25 54
27 66 27 202 l0 145 -36 75 c-73 151 -180 262 -314 327 -118 56 -265 76 -370
52z m190 -400 c96 -26 142 -100 133 -212 -3 -35 -15 -81 -26 -104 -18 -35 -31
-45 -77 -62 -70 -26 -120 -26 -190 0 -64 24 -81 45 -101 125 -46 174 85 301
261 253z"/>
<path d="M1842 5319 c-272 -8 -309 -15 -361 -74 -55 -63 -59 -177 -10 -247 12
-16 44 -40 72 -55 45 -23 69 -27 172 -32 l120 -6 3 -681 2 -680 -371 -660
c-754 -1338 -1436 -2560 -1452 -2602 -23 -58 -21 -98 7 -159 30 -64 54 -80
141 -93 122 -19 919 -29 2305 -29 1481 0 2445 11 2499 28 62 19 120 91 134
169 6 27 -3 50 -47 135 -89 170 -490 891 -1054 1892 -294 523 -579 1029 -633
1126 l-99 175 2 690 3 689 121 6 c102 5 127 9 165 30 63 35 109 106 109 171 0
79 -54 161 -124 188 -67 25 -1115 37 -1704 19z m1013 -1155 l7 -745 235 -417
c237 -420 496 -892 509 -924 6 -17 -49 -18 -1060 -18 -586 0 -1066 2 -1066 5
0 2 171 308 380 679 l380 675 0 745 0 746 304 0 304 0 7 -746z m1217 -2894
c234 -418 458 -826 458 -834 0 -3 -894 -6 -1986 -6 l-1986 0 44 78 c23 43 178
318 343 610 l299 532 1309 -2 1308 -3 211 -375z"/>
</g>
</svg>
