<?xml version="1.0" standalone="no"?>
<!DOCTYPE svg PUBLIC "-//W3C//DTD SVG 20010904//EN"
 "http://www.w3.org/TR/2001/REC-SVG-20010904/DTD/svg10.dtd">
<svg version="1.0" xmlns="http://www.w3.org/2000/svg"
 width="1600.000000pt" height="1600.000000pt" viewBox="0 0 1600.000000 1600.000000"
 preserveAspectRatio="xMidYMid meet">

<g transform="translate(0.000000,1600.000000) scale(0.100000,-0.100000)"
fill="#000000" stroke="none">
<path d="M7580 15994 c-25 -2 -110 -8 -190 -14 -749 -55 -1580 -238 -2294
-506 -534 -201 -1001 -439 -1451 -739 -278 -186 -413 -290 -453 -351 -84 -125
-198 -399 -276 -664 -197 -675 -335 -1539 -469 -2935 l-22 -230 -83 -7 c-99
-8 -156 -33 -207 -90 -58 -64 -68 -97 -66 -223 1 -60 26 -788 56 -1618 l55
-1507 24 -48 c30 -59 78 -105 136 -131 37 -17 66 -21 158 -21 105 0 112 -1
112 -20 0 -60 294 -1320 485 -2080 233 -923 401 -1485 519 -1735 259 -544 857
-1348 1425 -1915 328 -327 661 -590 866 -685 590 -273 2789 -315 3640 -70 223
64 511 245 815 512 167 146 483 471 650 667 415 487 829 1091 1016 1482 127
265 340 993 594 2028 178 724 410 1734 410 1784 l0 31 183 3 184 3 48 30 c57
35 110 100 124 151 5 19 36 752 67 1628 63 1743 63 1637 1 1717 -51 67 -121
100 -222 107 -69 4 -85 8 -85 21 0 36 -72 843 -96 1071 -142 1379 -356 2273
-651 2722 -36 55 -67 84 -176 166 -346 260 -652 446 -1067 651 -868 429 -1849
698 -2900 796 -154 15 -756 28 -860 19z m2485 -1311 c491 -146 909 -319 1146
-474 138 -90 399 -370 789 -844 l123 -150 -6 -180 c-4 -99 -30 -1028 -58
-2065 l-51 -1885 235 -687 236 -687 -19 -53 c-10 -29 -48 -181 -85 -338 -110
-466 -168 -641 -252 -765 -131 -195 -558 -970 -1120 -2037 l-210 -397 -17
-103 c-48 -301 -69 -667 -55 -963 10 -214 28 -350 74 -580 93 -456 49 -714
-138 -809 -50 -25 -92 -68 -298 -298 -132 -147 -245 -268 -249 -268 -5 0 -191
79 -414 175 l-405 175 -1318 0 -1318 0 -415 -175 c-228 -97 -419 -174 -426
-171 -6 2 -116 126 -244 274 -170 198 -240 271 -259 275 -39 8 -118 82 -145
136 -79 156 -84 360 -16 681 67 317 85 531 77 895 -9 377 -52 727 -100 801
-14 22 -187 302 -385 624 -583 950 -863 1397 -1043 1666 -48 71 -101 159 -119
194 -74 146 -163 482 -224 842 l-23 136 247 704 246 703 -66 2090 -67 2090 46
64 c247 348 656 760 896 903 161 96 438 220 773 347 194 73 725 251 750 251
16 0 40 -160 231 -1512 117 -832 230 -1623 252 -1757 22 -134 50 -315 63 -403
19 -125 28 -162 42 -173 29 -22 164 -73 297 -111 l120 -34 801 2 801 3 140 48
c183 62 239 92 243 132 2 17 28 165 59 330 30 165 61 336 69 380 7 44 104 751
214 1570 110 820 202 1500 205 1512 l5 21 72 -19 c40 -11 172 -50 293 -86z"/>
<path d="M4100 8136 c-60 -16 -514 -360 -547 -414 -30 -49 -30 -102 0 -129 25
-23 625 -385 857 -518 85 -49 193 -107 240 -129 47 -23 103 -53 125 -68 46
-31 135 -64 197 -73 99 -13 1337 -86 1375 -80 23 3 69 20 102 36 53 27 71 44
149 147 49 64 126 171 172 237 46 66 94 133 107 148 27 34 30 78 5 100 -45 41
-111 58 -295 77 -563 58 -1096 194 -1867 477 -394 145 -521 190 -550 196 -14
3 -45 0 -70 -7z"/>
<path d="M11555 8136 c-22 -7 -177 -64 -345 -126 -436 -161 -587 -213 -826
-285 -452 -137 -871 -225 -1224 -255 -161 -15 -250 -40 -284 -81 -33 -39 -30
-51 45 -154 32 -44 111 -152 174 -240 141 -195 173 -225 264 -255 l70 -22 668
41 c719 45 786 53 868 108 22 15 94 55 160 88 261 133 1073 620 1094 657 21
37 6 93 -37 138 -42 43 -454 358 -492 376 -41 20 -93 23 -135 10z"/>
</g>
</svg>
