<?xml version="1.0" standalone="no"?>
<!DOCTYPE svg PUBLIC "-//W3C//DTD SVG 20010904//EN"
 "http://www.w3.org/TR/2001/REC-SVG-20010904/DTD/svg10.dtd">
<svg version="1.0" xmlns="http://www.w3.org/2000/svg"
 width="2000.000000pt" height="2667.000000pt" viewBox="0 0 2000.000000 2667.000000"
 preserveAspectRatio="xMidYMid meet">

<g transform="translate(0.000000,2667.000000) scale(0.100000,-0.100000)"
fill="#000000" stroke="none">
<path d="M1500 26659 c-468 -59 -941 -378 -1240 -834 -106 -163 -193 -374
-237 -575 -17 -82 -18 -445 -18 -10250 l0 -10165 23 -102 c46 -209 126 -394
253 -583 310 -460 793 -767 1279 -810 72 -6 733 -10 1778 -10 l1662 0 0 -1663
0 -1662 1250 1250 1250 1250 1250 -1251 1250 -1251 0 1663 0 1664 4163 0
c2739 0 4201 4 4277 10 700 62 1373 674 1532 1393 l23 102 0 10165 c0 9855 -1
10168 -19 10250 -102 471 -396 884 -826 1163 -206 133 -434 218 -660 246 -103
13 -16889 13 -16990 0z m16856 -3901 c-3 -1234 -8 -4162 -11 -6508 -3 -2346
-8 -4712 -11 -5257 l-6 -993 -6664 0 -6664 0 0 7500 0 7500 6681 0 6682 0 -7
-2242z m-26 -15719 c0 -1441 4 -1356 -71 -1517 -111 -240 -312 -417 -561 -494
l-73 -23 -3812 -3 -3813 -2 0 835 0 835 -2500 0 -2500 0 0 -835 0 -835 -1312
2 -1313 3 -91 32 c-233 81 -425 253 -534 478 -86 177 -80 67 -80 1523 l0 1292
8330 0 8330 0 0 -1291z"/>
<path d="M6670 22505 l0 -835 830 0 830 0 0 835 0 835 -830 0 -830 0 0 -835z"/>
<path d="M6670 19170 l0 -830 830 0 830 0 0 830 0 830 -830 0 -830 0 0 -830z"/>
<path d="M6670 15835 l0 -835 830 0 830 0 0 835 0 835 -830 0 -830 0 0 -835z"/>
<path d="M6670 12505 l0 -835 830 0 830 0 0 835 0 835 -830 0 -830 0 0 -835z"/>
</g>
</svg>
