<?xml version="1.0" standalone="no"?>
<!DOCTYPE svg PUBLIC "-//W3C//DTD SVG 20010904//EN"
 "http://www.w3.org/TR/2001/REC-SVG-20010904/DTD/svg10.dtd">
<svg version="1.0" xmlns="http://www.w3.org/2000/svg"
 width="512.000000pt" height="512.000000pt" viewBox="0 0 512.000000 512.000000"
 preserveAspectRatio="xMidYMid meet">

<g transform="translate(0.000000,512.000000) scale(0.100000,-0.100000)"
fill="#000000" stroke="none">
<path d="M2205 4873 c-20 -65 -40 -129 -44 -143 -8 -27 -77 -54 -394 -154
l-137 -44 -117 89 c-64 49 -120 88 -125 87 -4 -2 -122 -86 -262 -187 l-253
-184 49 -142 50 -142 -159 -219 -159 -219 -155 -3 -154 -3 -97 -302 c-72 -222
-94 -303 -85 -309 6 -4 62 -42 122 -85 l110 -79 0 -274 0 -274 -110 -79 c-60
-43 -116 -81 -122 -85 -10 -6 12 -86 85 -309 l97 -302 154 -3 155 -3 159 -219
159 -219 -50 -142 -49 -143 250 -182 c138 -100 256 -184 262 -186 6 -3 64 35
129 84 l119 89 201 -65 c305 -98 318 -103 327 -132 4 -14 24 -78 44 -142 l36
-118 319 0 319 0 35 113 c19 61 38 124 41 140 4 15 12 30 18 34 6 3 125 43
264 89 l253 82 117 -90 c64 -49 122 -87 128 -84 6 2 124 86 262 186 l250 181
-49 143 -50 143 159 219 159 219 155 3 154 3 97 302 c73 223 95 303 85 309 -6
4 -61 42 -122 85 l-110 79 0 274 0 274 110 79 c61 43 116 81 122 85 10 6 -12
86 -85 309 l-97 302 -154 3 -155 3 -159 219 -159 219 50 142 49 143 -245 178
c-135 99 -252 183 -259 187 -10 6 -52 -20 -134 -81 l-119 -90 -233 75 c-295
96 -293 94 -301 129 -4 16 -23 80 -42 142 l-35 112 -319 0 -319 0 -36 -117z
m513 -703 c273 -29 511 -114 742 -267 154 -102 336 -284 438 -436 326 -489
369 -1087 117 -1612 -152 -318 -447 -610 -765 -758 -445 -208 -952 -205 -1395
8 -314 151 -609 446 -754 756 -210 448 -210 950 0 1398 145 310 440 605 754
756 271 131 576 185 863 155z"/>
<path d="M2023 3620 c-17 -10 -37 -28 -42 -39 -6 -11 -11 -78 -11 -155 l0
-134 29 -30 c17 -16 44 -32 62 -36 41 -8 957 -8 998 0 18 4 45 20 62 36 l29
30 0 137 c0 149 -6 168 -60 196 -25 13 -105 15 -532 15 -480 0 -504 -1 -535
-20z"/>
<path d="M2130 2473 c0 -501 3 -608 16 -663 37 -160 160 -280 322 -316 178
-40 352 33 453 189 68 104 69 120 69 791 l0 596 -430 0 -430 0 0 -597z"/>
</g>
</svg>
