<?xml version="1.0" standalone="no"?>
<!DOCTYPE svg PUBLIC "-//W3C//DTD SVG 20010904//EN"
 "http://www.w3.org/TR/2001/REC-SVG-20010904/DTD/svg10.dtd">
<svg version="1.0" xmlns="http://www.w3.org/2000/svg"
 width="512.000000pt" height="512.000000pt" viewBox="0 0 512.000000 512.000000"
 preserveAspectRatio="xMidYMid meet">

<g transform="translate(0.000000,512.000000) scale(0.100000,-0.100000)"
fill="#000000" stroke="none">
<path d="M2730 5109 c-263 -15 -376 -39 -473 -101 -60 -38 -95 -89 -103 -150
-9 -66 10 -115 68 -169 47 -45 50 -49 63 -130 7 -46 18 -97 25 -113 6 -16 7
-32 3 -36 -4 -4 -56 -10 -114 -13 l-107 -5 -9 32 c-11 39 -37 43 -124 21 -134
-35 -154 -56 -165 -175 -4 -39 -10 -73 -14 -75 -4 -2 -28 4 -54 14 -34 13 -59
15 -94 11 -464 -68 -706 -115 -810 -160 -91 -39 -122 -93 -122 -214 0 -39 -5
-105 -11 -146 -13 -94 -12 -885 1 -1070 6 -74 19 -193 29 -265 38 -248 60
-570 71 -1015 6 -239 13 -442 15 -450 2 -8 5 -49 5 -90 2 -82 6 -116 50 -395
16 -105 35 -206 41 -225 18 -51 52 -103 90 -134 27 -23 39 -27 68 -21 49 8 35
9 496 -4 226 -6 752 -11 1170 -11 418 0 801 -5 850 -10 88 -9 397 0 658 19
170 13 195 34 206 179 16 209 -33 307 -196 384 -128 61 -275 60 -423 -3 -73
-31 -80 -32 -228 -33 -85 -1 -156 2 -159 7 -2 4 -8 62 -13 129 -13 180 -31
198 -202 198 l-107 0 22 48 c18 39 22 69 25 187 3 124 1 146 -18 197 -24 66
-49 88 -100 88 -49 0 -85 -25 -187 -130 l-88 -91 -44 101 c-24 56 -50 104 -58
107 -27 10 -66 -22 -120 -98 -84 -122 -124 -137 -172 -66 -58 83 -72 97 -97
97 -27 0 -44 -30 -44 -77 0 -14 -9 -56 -21 -94 -25 -83 -19 -125 35 -216 l34
-58 -106 -17 c-58 -9 -116 -22 -129 -29 -40 -22 -56 -72 -50 -163 3 -45 9 -92
13 -105 l7 -24 -64 6 c-35 4 -161 11 -279 17 -118 6 -229 12 -246 15 -42 7
-83 41 -101 82 -15 37 -36 205 -53 423 -5 74 -17 212 -25 305 -9 94 -22 278
-30 410 -8 132 -20 303 -25 380 -5 77 -14 226 -20 330 -6 105 -15 231 -21 280
-23 196 -6 744 25 820 18 42 95 78 231 110 61 14 162 39 225 55 63 17 130 30
149 28 31 -3 35 -7 57 -67 29 -83 67 -122 125 -128 39 -4 48 -1 73 23 16 16
33 41 38 55 11 32 27 37 164 45 l100 7 -7 -59 c-4 -32 -8 -98 -8 -145 -1 -70
-5 -94 -25 -130 -13 -24 -62 -115 -110 -202 -47 -87 -86 -161 -86 -163 0 -14
-105 -211 -163 -306 -35 -58 -79 -141 -97 -184 -18 -43 -42 -94 -55 -113 -48
-77 -146 -282 -185 -386 -54 -145 -68 -225 -51 -298 26 -117 99 -171 256 -187
50 -5 428 -11 840 -15 662 -5 755 -4 794 10 24 8 73 15 110 15 82 0 235 17
277 30 17 6 43 23 57 38 59 61 52 177 -23 407 -65 199 -146 377 -250 550 -45
74 -105 185 -134 247 -29 62 -69 138 -88 168 -20 30 -76 136 -126 235 -49 99
-106 208 -126 243 -31 55 -35 69 -29 108 8 62 -16 417 -33 489 -20 81 -34 249
-34 421 l0 141 51 43 c31 26 60 61 71 87 18 40 18 51 8 116 -21 122 -42 155
-120 189 -57 24 -127 28 -320 17z m275 -94 c42 -17 55 -46 55 -122 0 -54 -1
-56 -60 -114 -33 -33 -63 -72 -67 -87 -5 -15 -8 -135 -7 -267 0 -190 4 -254
17 -305 10 -39 21 -144 28 -260 5 -107 14 -211 19 -230 6 -19 10 -47 10 -61 0
-15 11 -51 24 -80 13 -30 47 -108 76 -174 29 -66 81 -177 115 -246 l63 -126
-76 5 c-184 10 -438 -72 -581 -189 -33 -27 -35 -27 -64 -12 -68 35 -345 35
-444 0 -24 -8 -43 -13 -43 -11 0 3 12 23 27 47 15 23 57 105 94 182 37 77 99
196 138 265 39 69 76 141 81 160 12 43 12 159 0 260 -4 41 -7 76 -6 77 1 1 38
-4 81 -12 106 -19 180 -19 221 1 49 23 58 46 44 103 -8 31 -12 128 -11 293 l2
247 -24 15 c-21 14 -195 35 -292 36 l-30 0 0 83 c-1 135 -18 189 -81 258 -45
50 -54 65 -54 97 0 69 43 102 181 143 56 16 117 23 249 28 274 12 279 12 315
-4z m-1018 -773 c2 -65 7 -142 13 -171 13 -72 13 -251 -1 -307 -22 -86 -56
-69 -94 45 -35 105 -48 230 -40 380 7 112 9 126 31 148 15 15 35 23 56 23 l33
0 2 -118z m398 78 c132 -5 245 -10 251 -10 7 0 9 -57 6 -187 -3 -104 -5 -216
-5 -251 l0 -63 -216 3 c-119 2 -239 -1 -268 -6 l-52 -8 -4 128 c-2 71 -9 187
-16 258 -7 70 -10 135 -7 143 5 12 15 14 39 9 17 -4 140 -11 272 -16z m-605
-259 c0 -43 3 -99 6 -124 l6 -45 -48 -7 c-27 -4 -110 -17 -184 -30 -74 -13
-171 -28 -215 -34 -131 -18 -248 -87 -280 -166 -7 -16 -21 -126 -30 -244 -18
-224 -17 -466 4 -681 6 -58 15 -208 21 -335 5 -126 14 -297 20 -380 5 -82 17
-267 25 -410 14 -236 24 -365 56 -730 21 -244 58 -328 169 -389 56 -30 -12
-24 755 -66 370 -21 512 -22 980 -6 264 9 533 16 598 16 124 0 166 11 186 49
22 41 209 61 308 32 51 -14 120 -65 151 -111 20 -30 23 -45 21 -124 -3 -131 4
-123 -102 -129 -215 -12 -425 -27 -458 -32 -22 -4 -60 0 -95 11 -54 16 -162
17 -1334 18 -701 1 -1281 5 -1288 9 -31 20 -55 97 -78 247 -13 85 -30 200 -39
255 -17 110 -41 572 -37 702 6 198 -31 689 -84 1108 -24 191 -27 250 -31 655
-5 446 6 755 29 806 7 15 28 29 57 38 118 38 299 78 460 102 97 14 206 32 242
40 36 8 95 19 130 23 35 5 67 9 72 10 4 0 7 -34 7 -78z m1505 -1199 c48 -16
51 -20 78 -85 15 -37 59 -119 97 -183 117 -193 206 -381 270 -567 46 -133 60
-188 60 -231 0 -36 -5 -58 -12 -61 -7 -3 -83 -11 -168 -20 -85 -8 -204 -20
-265 -26 -77 -8 -213 -9 -455 -4 -190 4 -511 9 -715 11 -206 1 -387 7 -408 12
-83 22 -110 82 -82 180 37 129 93 267 180 447 51 105 104 216 119 248 23 52
30 60 79 82 75 32 198 49 328 43 l107 -6 164 -85 c216 -112 346 -157 458 -157
139 0 340 69 316 108 -12 20 -73 14 -154 -15 -114 -40 -204 -38 -347 11 -60
20 -139 54 -175 76 -116 69 -116 60 -9 117 196 105 409 147 534 105z m-645
-1557 c0 -38 48 -158 71 -177 28 -23 67 -23 104 2 16 11 69 61 116 111 50 54
92 90 100 87 32 -10 40 -50 35 -163 -5 -99 -34 -237 -54 -256 -4 -4 -154 -9
-333 -13 l-326 -7 -38 78 c-43 88 -51 141 -37 248 l9 70 27 -57 c33 -70 66
-98 116 -98 48 0 81 26 121 98 34 60 67 102 81 102 4 0 8 -11 8 -25z m594
-506 c32 0 65 -4 72 -10 10 -8 14 -40 13 -124 l-1 -113 -72 -6 c-39 -3 -261
-9 -494 -12 l-423 -7 7 92 c7 88 6 91 -14 91 -18 0 -25 -12 -43 -70 -11 -39
-18 -77 -15 -85 4 -12 -7 -15 -69 -15 -73 0 -75 1 -82 27 -3 16 -7 66 -7 112
l-1 85 60 13 c33 7 147 15 253 17 107 3 197 8 200 12 4 3 131 3 282 -1 151 -5
301 -7 334 -6z"/>
<path d="M2550 4929 c-30 -12 -70 -22 -89 -23 -36 -1 -66 -32 -56 -57 3 -8 22
-25 42 -39 36 -24 41 -25 207 -24 136 0 178 4 207 17 45 20 61 40 57 69 -3 21
-9 23 -62 26 -32 2 -65 9 -72 17 -16 15 -99 35 -147 35 -18 -1 -57 -10 -87
-21z"/>
<path d="M2652 3418 c-9 -12 -34 -40 -56 -61 -90 -93 -87 -200 7 -268 50 -36
103 -38 172 -5 77 36 89 55 93 146 5 98 -13 141 -77 181 -57 36 -113 39 -139
7z m88 -68 c35 -18 50 -47 53 -102 2 -67 -13 -89 -75 -107 -36 -11 -44 -11
-67 7 -35 26 -51 59 -51 108 0 35 6 48 37 78 37 36 57 39 103 16z"/>
<path d="M1258 338 c-9 -29 -19 -60 -23 -69 -8 -22 26 -62 46 -54 17 6 30 59
33 130 1 33 -2 41 -19 43 -17 2 -24 -7 -37 -50z"/>
<path d="M1381 299 c-27 -62 -22 -102 12 -97 29 4 48 44 45 98 -4 66 -29 65
-57 -1z"/>
<path d="M1520 288 c-23 -25 -26 -70 -6 -87 21 -17 43 -3 59 37 25 62 -10 96
-53 50z"/>
<path d="M2170 2513 c-14 -2 -35 -9 -47 -15 -24 -12 -49 -61 -38 -77 10 -17
40 -13 59 8 10 10 32 22 51 25 39 8 58 27 49 50 -6 16 -22 18 -74 9z"/>
<path d="M2126 2323 c-4 -4 -28 -10 -53 -13 -55 -6 -77 -30 -51 -57 17 -16 21
-16 72 0 64 21 85 40 66 62 -14 17 -23 19 -34 8z"/>
<path d="M2975 2281 c-68 -41 -121 -130 -111 -186 6 -33 43 -73 86 -95 79 -41
233 12 289 99 32 50 39 97 20 133 -12 22 -82 57 -116 58 -37 0 -35 -18 3 -29
49 -14 74 -38 74 -73 0 -85 -92 -158 -198 -158 -63 0 -116 40 -114 87 1 42 24
85 63 118 26 21 39 25 66 20 25 -4 33 -2 33 9 0 16 -29 36 -52 36 -7 0 -27 -8
-43 -19z"/>
<path d="M2060 2228 c-14 -6 -42 -17 -63 -26 -21 -8 -51 -31 -68 -49 -24 -28
-27 -38 -19 -53 15 -28 29 -25 70 14 19 19 55 45 80 58 29 15 45 30 45 42 0
24 -13 28 -45 14z"/>
<path d="M3477 2113 c-4 -3 0 -17 9 -31 18 -27 18 -27 -18 -36 -21 -5 -32 -1
-45 14 -22 25 -43 26 -43 1 0 -53 118 -83 160 -41 23 23 24 33 9 63 -18 34
-54 49 -72 30z"/>
<path d="M2394 672 c-6 -4 -11 -32 -10 -62 1 -48 4 -55 22 -58 14 -2 24 5 32
23 17 37 15 58 -8 83 -24 25 -21 24 -36 14z"/>
<path d="M2492 668 c-7 -7 -12 -36 -12 -65 0 -63 21 -81 52 -44 23 30 25 106
2 115 -22 8 -28 8 -42 -6z"/>
</g>
</svg>
