<?xml version="1.0" standalone="no"?>
<!DOCTYPE svg PUBLIC "-//W3C//DTD SVG 20010904//EN"
 "http://www.w3.org/TR/2001/REC-SVG-20010904/DTD/svg10.dtd">
<svg version="1.0" xmlns="http://www.w3.org/2000/svg"
 width="512.000000pt" height="512.000000pt" viewBox="0 0 512.000000 512.000000"
 preserveAspectRatio="xMidYMid meet">

<g transform="translate(0.000000,512.000000) scale(0.100000,-0.100000)"
fill="#000000" stroke="none">
<path d="M1330 4193 c-689 -70 -1110 -444 -1269 -1129 -84 -358 -78 -755 15
-1099 122 -453 393 -789 747 -925 529 -204 1272 -135 1625 151 76 61 86 90 85
229 -15 1252 -17 1334 -40 1366 -25 34 -69 59 -148 81 -83 24 -387 28 -672 8
-287 -20 -340 -31 -382 -81 -73 -90 -98 -301 -59 -507 13 -70 54 -112 117
-121 23 -3 59 -9 80 -12 88 -13 197 -108 221 -192 27 -100 -1 -203 -70 -248
-116 -77 -349 -32 -475 92 -162 159 -245 483 -216 840 36 430 159 713 348 802
54 25 67 27 188 26 117 0 147 -4 310 -43 202 -48 339 -62 424 -41 39 9 59 21
86 52 66 78 140 301 151 459 7 84 6 86 -24 120 -54 62 -181 114 -338 139 -165
27 -578 46 -704 33z m-25 -139 c-46 -34 -65 -55 -60 -64 8 -12 73 12 126 47
41 27 47 28 173 28 97 0 144 -4 181 -17 28 -9 100 -21 160 -27 119 -11 216
-39 252 -73 30 -28 30 -93 3 -198 -11 -41 -23 -106 -26 -143 -4 -37 -11 -70
-15 -73 -5 -3 -56 7 -113 21 -275 69 -676 41 -885 -62 -202 -100 -361 -372
-426 -730 -26 -141 -31 -367 -11 -503 54 -367 223 -591 518 -685 216 -69 426
-49 556 54 54 43 152 154 127 145 -13 -5 -15 -2 -9 22 4 16 11 39 15 52 12 33
11 181 -2 241 -13 62 -59 135 -98 155 -16 9 -63 21 -103 26 -103 15 -110 17
-98 40 16 30 12 34 -16 16 -35 -23 -76 -17 -91 14 -8 15 -13 64 -13 121 0 86
3 102 28 149 21 42 39 59 82 84 53 30 60 31 193 34 139 4 192 -1 182 -17 -11
-19 25 -19 61 0 51 26 221 28 231 3 3 -8 16 -20 30 -25 13 -5 28 -20 33 -34 6
-16 10 -286 10 -709 l0 -683 -22 -33 c-44 -64 -177 -111 -403 -142 -123 -17
-519 -17 -615 0 -185 33 -381 114 -497 206 -155 121 -273 265 -273 332 0 16
-9 49 -20 73 -16 35 -23 41 -34 32 -11 -9 -18 -2 -36 36 -12 25 -27 71 -33
100 -10 49 -9 55 12 84 23 31 14 31 -21 1 -16 -13 -18 -12 -28 12 -16 43 -12
79 14 116 27 41 40 91 31 120 -7 22 -34 27 -52 9 -19 -19 -41 -2 -49 36 -8 45
9 109 41 150 35 46 55 118 55 195 0 78 -9 87 -57 59 -28 -18 -32 -18 -47 -4
-18 19 -19 45 -7 166 12 106 37 158 120 252 124 139 114 179 -14 56 -47 -45
-85 -79 -85 -76 0 26 36 181 60 258 40 129 78 179 324 427 216 218 267 259
366 292 62 21 206 47 265 49 29 0 29 0 10 -15z"/>
<path d="M3010 4003 c-256 -39 -423 -213 -422 -439 1 -188 95 -307 278 -354
110 -28 205 -26 296 6 104 37 167 76 227 139 182 192 135 486 -98 604 -75 38
-196 58 -281 44z m68 -119 c32 -9 28 -46 -10 -91 -32 -37 -33 -37 -4 -15 17
13 43 22 63 22 100 0 148 -74 148 -229 0 -88 -3 -101 -30 -150 -41 -75 -83
-104 -155 -109 -83 -6 -126 11 -140 54 -9 25 -17 34 -34 34 -25 0 -60 33 -70
67 -10 32 14 80 81 159 88 105 86 109 -7 17 -101 -101 -120 -106 -120 -28 0
64 15 97 77 173 23 30 41 57 38 62 -3 4 12 15 33 23 39 17 91 21 130 11z"/>
<path d="M4255 3719 c-336 -27 -367 -33 -412 -81 -37 -39 -45 -77 -53 -250
-10 -209 -22 -240 -112 -299 -75 -48 -164 -82 -185 -71 -8 5 -25 26 -37 48
-25 45 -54 61 -133 74 -82 14 -192 12 -383 -5 -182 -16 -225 -25 -264 -56 -63
-50 -60 -22 -67 -724 -4 -352 -12 -710 -18 -795 -19 -252 12 -490 70 -532 66
-49 281 -50 564 -3 187 32 224 58 250 181 18 87 18 184 0 399 -16 188 -21 910
-6 919 14 9 239 -113 265 -145 44 -52 49 -94 47 -377 -3 -366 17 -524 84 -683
82 -195 191 -286 410 -341 76 -19 116 -22 260 -22 176 0 268 13 405 55 124 39
174 131 174 324 1 115 -13 173 -52 216 -24 27 -41 33 -142 53 -161 32 -231 70
-270 146 -39 76 -35 511 5 647 28 93 35 97 177 103 137 6 170 18 211 72 40 54
49 100 48 237 -2 137 -13 237 -30 270 -19 35 -67 52 -174 61 -155 13 -197 31
-236 99 -21 38 -22 50 -19 215 3 163 2 176 -18 202 -40 55 -64 65 -160 69 -49
2 -138 -1 -199 -6z m-147 -146 c-32 -27 -90 -63 -102 -63 -12 0 -6 78 7 83 6
3 38 6 70 6 l58 1 -33 -27z m232 3 c7 -18 14 -22 34 -19 38 8 47 -28 45 -181
-2 -86 2 -146 11 -174 29 -92 132 -158 273 -173 93 -11 122 -23 151 -62 19
-27 21 -41 20 -195 l-1 -167 -85 -6 c-110 -8 -208 -51 -274 -121 -87 -94 -104
-176 -104 -518 0 -271 8 -334 48 -381 32 -38 41 -42 215 -80 78 -17 157 -37
176 -45 l34 -14 -5 -125 c-7 -152 -22 -189 -88 -223 -42 -22 -53 -23 -190 -19
-112 3 -160 9 -211 26 -83 26 -182 91 -221 145 -24 34 -29 48 -26 91 3 49 2
50 -23 47 -34 -4 -59 35 -84 130 -24 90 -16 144 35 228 44 73 65 155 50 195
-11 28 -41 33 -60 10 -7 -8 -21 -15 -31 -15 -15 0 -19 8 -19 40 0 52 21 102
65 155 66 81 74 137 11 75 -20 -18 -41 -30 -49 -27 -29 11 -37 153 -13 211 16
38 11 52 -24 61 -14 4 -39 26 -57 50 -41 55 -120 95 -203 102 -55 5 -63 9 -72
32 -19 47 -13 200 11 262 25 66 38 79 112 108 74 29 120 69 158 136 17 30 63
88 101 129 39 40 70 77 70 81 0 4 -22 -12 -50 -35 -27 -23 -54 -39 -60 -35
-18 11 -11 93 14 149 14 32 49 79 83 114 l58 60 83 1 c78 1 83 0 92 -23z
m-1175 -546 c20 -8 25 -15 20 -30 -6 -18 -3 -20 18 -15 16 4 28 2 33 -7 5 -7
13 -348 17 -758 5 -410 9 -792 10 -850 3 -183 -42 -251 -175 -258 -68 -4 -177
17 -205 40 -19 16 -16 52 8 82 23 29 19 32 -12 14 -18 -11 -23 -10 -40 11 -35
43 -21 114 42 212 23 35 48 81 55 103 14 39 19 151 8 180 -8 20 -33 20 -62 0
-19 -13 -26 -13 -38 -3 -13 11 -15 42 -12 203 3 212 4 215 79 310 36 44 51 86
31 86 -4 0 -23 -11 -43 -24 -26 -18 -40 -21 -52 -15 -15 9 -17 28 -17 137 0
113 3 133 24 177 13 28 38 63 55 79 42 40 40 54 -4 21 -19 -15 -42 -25 -52
-23 -16 3 -18 17 -18 163 l0 159 25 7 c39 11 276 10 305 -1z"/>
</g>
</svg>
