<?xml version="1.0" standalone="no"?>
<!DOCTYPE svg PUBLIC "-//W3C//DTD SVG 20010904//EN"
 "http://www.w3.org/TR/2001/REC-SVG-20010904/DTD/svg10.dtd">
<svg version="1.0" xmlns="http://www.w3.org/2000/svg"
 width="694.000000pt" height="898.000000pt" viewBox="0 0 694.000000 898.000000"
 preserveAspectRatio="xMidYMid meet">

<g transform="translate(0.000000,898.000000) scale(0.100000,-0.100000)"
fill="#000000" stroke="none">
<path d="M1520 7555 c0 -11 100 -195 107 -195 4 0 -93 187 -103 199 -2 2 -4 1
-4 -4z"/>
<path d="M1376 7414 c-29 -10 -42 -11 -53 -3 -10 9 -12 9 -8 -2 4 -10 -40 -31
-162 -78 -93 -35 -257 -101 -366 -148 -109 -46 -202 -81 -207 -78 -6 4 -10 2
-10 -4 0 -5 -34 -27 -75 -47 -41 -21 -73 -39 -72 -41 2 -1 18 2 37 7 19 5 35
9 36 7 1 -1 -28 -92 -66 -202 -37 -110 -84 -265 -106 -345 -21 -80 -41 -146
-44 -148 -3 -1 -4 -20 -2 -42 2 -22 0 -40 -5 -40 -4 0 -26 14 -48 31 -58 46
351 -360 475 -471 58 -52 106 -97 107 -100 1 -3 -20 -15 -46 -28 -150 -70
-126 -111 29 -51 l80 30 27 -20 c31 -25 44 -19 18 9 -22 24 -9 27 17 3 23 -21
36 -9 19 18 -7 12 -11 22 -9 23 4 3 335 139 475 195 55 23 106 41 112 41 7 0
46 -28 89 -63 97 -80 172 -135 248 -181 l59 -37 -42 39 c-24 22 -43 44 -43 50
0 5 -50 58 -111 116 -61 59 -110 108 -108 110 9 8 82 36 95 36 7 0 12 -6 10
-12 -15 -47 -15 -68 -3 -68 21 0 66 53 73 87 5 23 13 33 37 39 43 13 50 39 8
31 -19 -4 -31 -2 -31 4 0 32 97 531 121 622 7 27 14 37 25 33 8 -3 14 -1 14 5
0 6 5 7 12 3 7 -4 2 6 -10 23 -12 17 -22 38 -22 45 0 8 -9 23 -20 33 -11 10
-20 23 -21 29 0 6 -46 53 -102 104 -56 51 -174 163 -262 247 -129 125 -157
156 -145 165 8 5 11 10 5 11 -5 0 4 7 20 14 41 19 3 18 -49 -1z m11 -469 c80
-140 154 -279 171 -319 15 -39 15 -39 -14 -62 -16 -13 -66 -40 -111 -60 -46
-21 -83 -42 -83 -47 0 -5 26 -42 58 -80 92 -114 88 -104 46 -122 -37 -15 -38
-15 -69 15 -17 16 -34 30 -38 30 -4 0 -4 -19 -1 -42 l5 -43 -68 -28 -68 -27
-33 35 c-39 42 -44 43 -41 8 5 -68 1 -77 -47 -97 -35 -14 -48 -16 -54 -7 -4 7
-10 66 -13 132 -3 66 -9 123 -12 129 -3 5 -23 3 -48 -5 -79 -25 -233 -65 -249
-65 -20 0 -26 31 -39 200 -12 153 -5 292 17 330 22 37 108 97 199 141 85 40
188 70 320 92 77 14 81 14 103 -7 13 -12 44 -57 69 -101z"/>
<path d="M1125 6956 c-102 -45 -147 -176 -98 -287 39 -88 181 -169 267 -152
27 6 23 8 -34 19 -71 15 -102 34 -55 34 37 0 108 42 135 80 31 43 38 127 15
185 -43 113 -136 162 -230 121z"/>
<path d="M850 6845 c0 -8 9 -19 20 -25 15 -8 20 -8 20 3 0 14 -19 37 -32 37
-4 0 -8 -7 -8 -15z"/>
<path d="M830 6785 c14 -16 40 -20 40 -6 0 9 -24 21 -42 21 -6 0 -6 -6 2 -15z"/>
<path d="M872 6700 c-41 -25 -55 -61 -49 -124 3 -38 11 -55 31 -73 35 -29 84
-30 121 -1 l27 21 -7 -24 c-4 -13 -10 -30 -12 -36 -3 -7 -1 -13 5 -13 5 0 17
19 27 42 30 76 -4 197 -62 219 -34 13 -44 12 -81 -11z"/>
<path d="M1440 6645 c0 -8 5 -15 10 -15 6 0 10 7 10 15 0 8 -4 15 -10 15 -5 0
-10 -7 -10 -15z"/>
<path d="M1490 6650 c-8 -5 -11 -12 -7 -16 4 -4 13 -2 19 4 15 15 7 24 -12 12z"/>
<path d="M1096 6511 c-3 -5 -3 -29 0 -54 l6 -45 37 5 c20 3 38 8 41 12 3 3
-14 25 -37 48 -23 24 -44 39 -47 34z"/>
<path d="M2298 7391 c-61 -20 -153 -74 -166 -97 -14 -26 112 -878 137 -924 5
-9 -11 -53 -45 -125 -88 -182 -98 -233 -98 -480 1 -185 4 -226 27 -345 15 -74
35 -163 46 -197 20 -66 17 -73 -31 -73 -11 0 -114 -21 -229 -47 l-209 -46 -28
25 c-32 31 -97 68 -118 68 -8 0 -36 -11 -63 -24 -27 -14 -71 -28 -100 -32
l-51 -7 12 33 c11 32 10 35 -28 67 -21 18 -43 33 -47 33 -16 0 -56 -53 -68
-88 -18 -57 -27 -59 -34 -6 -12 97 -20 118 -47 134 -24 13 -32 13 -70 0 -48
-17 -47 -13 -37 -149 2 -40 0 -65 -7 -68 -5 -2 -26 45 -45 104 l-34 108 -59 0
c-53 -1 -61 -3 -88 -34 -38 -43 -36 -56 42 -219 33 -69 59 -131 56 -138 -2 -6
-37 -19 -78 -29 -140 -32 -137 -31 -131 -73 16 -112 42 -155 106 -174 23 -6
47 -15 53 -19 6 -5 19 -2 30 5 10 7 44 22 75 34 l56 21 34 -35 c18 -18 47 -36
64 -40 21 -4 45 -21 69 -50 49 -58 80 -73 179 -84 45 -6 92 -15 104 -21 28
-15 56 -7 126 35 l57 35 168 -45 c311 -83 506 -143 607 -188 17 -7 90 -33 163
-57 127 -42 135 -46 148 -78 8 -18 14 -35 14 -37 0 -2 -17 -4 -38 -4 -93 0
-215 -77 -227 -144 -15 -76 50 -184 119 -202 34 -8 153 20 178 43 17 15 18 15
18 -1 0 -10 -25 -46 -55 -79 -30 -34 -55 -69 -55 -78 0 -15 -19 -29 -38 -29
-4 0 -18 18 -32 41 -23 36 -28 40 -57 34 -29 -5 -32 -3 -42 28 -20 59 -79 144
-110 157 -64 26 -191 -39 -203 -105 -5 -26 31 -116 59 -147 21 -23 10 -35 -45
-51 -32 -10 -48 -20 -51 -33 -5 -29 -50 -84 -77 -94 -13 -5 -24 -12 -24 -15 0
-9 72 -70 92 -78 18 -6 19 -13 13 -60 -3 -28 -8 -91 -11 -139 -6 -91 0 -109
48 -164 18 -20 18 -26 3 -138 -15 -120 -19 -268 -7 -298 9 -21 116 -91 207
-135 93 -44 196 -65 330 -67 105 -1 114 1 197 35 115 47 294 151 371 214 l62
51 50 -38 c89 -68 246 -100 294 -60 l21 17 -54 175 c-30 96 -62 195 -70 219
-9 24 -16 45 -16 47 0 2 37 4 82 4 66 0 86 -4 102 -19 12 -10 84 -61 162 -114
77 -52 248 -173 380 -269 327 -238 391 -282 508 -350 83 -48 109 -58 147 -58
117 0 270 189 330 406 23 86 28 198 10 242 -15 36 -19 35 -154 -24 l-98 -42
-40 81 c-38 74 -40 82 -24 93 9 7 31 57 49 111 17 54 35 103 39 109 3 6 -7 30
-23 53 -17 22 -30 45 -30 49 0 5 18 14 40 21 49 15 51 35 5 57 -44 20 -76 64
-90 123 -14 54 -38 70 -120 78 -59 6 -62 9 -42 37 13 18 15 18 42 0 22 -14 47
-19 100 -19 65 0 76 3 135 40 54 33 70 49 93 97 57 112 31 221 -68 285 -27 18
-67 35 -90 39 -48 7 -118 -10 -156 -37 l-26 -18 -32 33 c-26 27 -31 38 -25 60
5 21 1 30 -18 46 -14 10 -47 53 -74 94 -56 86 -67 90 -156 56 -28 -11 -54 -18
-56 -15 -8 8 11 26 48 45 101 52 827 495 1001 611 l117 78 48 -15 c27 -8 61
-12 76 -9 25 6 65 43 87 83 8 13 13 14 34 5 35 -16 67 10 98 80 23 53 25 54
81 66 38 8 58 17 58 26 0 8 10 21 23 30 21 13 30 13 94 -5 65 -18 75 -18 120
-5 69 21 113 61 122 112 13 69 -2 87 -79 94 -88 7 -127 26 -162 78 -11 16 -14
30 -9 45 5 11 10 104 12 206 l4 185 -40 3 c-43 3 -103 -22 -116 -48 -4 -8 -15
-55 -25 -103 -9 -50 -21 -84 -25 -80 -5 5 -14 47 -19 94 -14 108 -14 109 -50
109 -22 0 -43 -11 -71 -38 -38 -35 -41 -42 -48 -112 l-7 -75 -12 39 c-6 22 -9
42 -7 46 10 16 -23 32 -43 21 -35 -19 -47 -44 -52 -110 -5 -61 -7 -66 -30 -69
-14 -2 -30 -8 -36 -13 -6 -4 -35 -2 -69 7 -32 9 -70 13 -84 9 -33 -8 -131
-110 -131 -136 0 -10 -5 -19 -11 -19 -18 0 -482 -70 -500 -76 -17 -5 -119 79
-119 99 0 6 15 27 34 47 18 19 112 143 208 275 97 132 255 345 352 474 161
215 176 238 176 275 0 56 -37 108 -97 137 -39 19 -64 24 -132 24 -83 0 -83 0
-113 -35 -125 -149 -409 -557 -538 -774 l-65 -109 -7 39 c-55 317 -94 456
-169 606 -104 207 -207 315 -442 462 -74 46 -150 81 -259 119 -15 5 -14 12 12
59 33 60 40 122 14 132 -28 11 -260 -43 -429 -98 -337 -111 -528 -211 -748
-388 -17 -14 -30 -18 -36 -12 -10 10 -24 132 -46 414 -20 262 -19 255 -59 274
-43 20 -77 20 -148 -3z m160 -33 c8 -7 12 -38 12 -88 l0 -77 -45 10 c-47 11
-66 34 -41 53 9 6 16 17 16 24 0 10 -3 10 -15 0 -9 -8 -15 -9 -15 -2 0 6 5 14
10 17 16 10 12 35 -5 29 -9 -4 -15 0 -15 10 0 26 -48 19 -109 -15 -31 -17 -57
-33 -59 -34 -1 -1 2 -33 8 -70 8 -50 8 -71 -1 -81 -7 -8 -13 -13 -15 -11 -3 3
-34 154 -34 164 0 7 95 50 155 69 70 23 126 24 153 2z m0 -211 c7 -6 12 -34
12 -76 -1 -58 -4 -70 -29 -100 l-29 -35 -5 30 c-3 16 -9 57 -13 92 -5 53 -3
66 12 84 19 20 19 21 -3 14 -21 -7 -31 3 -17 17 6 6 49 -10 72 -26z m-236 -57
c4 -24 1 -30 -14 -30 -21 0 -24 30 -6 48 16 16 15 16 20 -18z m10 -100 c2 -16
0 -37 -6 -47 -9 -16 -11 -15 -17 12 -4 17 -7 40 -8 52 -2 33 26 18 31 -17z
m1441 0 c167 -42 382 -171 567 -339 69 -62 84 -83 138 -189 138 -272 214 -645
187 -917 l-8 -80 -13 94 c-31 220 -83 320 -230 441 -38 31 -210 3 -316 -51
-21 -11 -41 -19 -46 -19 -5 0 -14 24 -21 53 -6 28 -26 87 -42 129 -76 189
-298 345 -543 382 -147 22 -360 -11 -520 -80 -43 -19 -81 -32 -84 -30 -8 9 38
107 85 180 82 128 303 336 452 426 l58 35 127 -7 c72 -4 163 -16 209 -28z
m-1197 -58 c-4 -3 -11 -1 -18 6 -8 8 -8 15 3 28 13 16 14 16 17 -5 2 -13 1
-25 -2 -29z m14 -109 c0 -23 3 -49 6 -58 6 -16 5 -16 -23 -1 -17 8 -33 22 -36
29 -11 29 -19 107 -13 124 6 14 11 11 36 -18 22 -25 29 -44 30 -76z m-230 -24
c6 -32 7 -66 2 -79 -11 -30 -36 131 -25 163 7 22 7 22 10 -3 2 -14 8 -50 13
-81z m246 -115 c10 -15 10 -23 -2 -38 -17 -24 -22 -20 -40 39 l-14 47 22 -14
c12 -8 27 -23 34 -34z m2934 -28 c33 -16 54 -37 77 -76 30 -50 35 -79 11 -64
-6 4 -8 2 -5 -3 4 -6 -12 -34 -35 -62 l-41 -50 -34 33 -34 33 36 53 c20 29 35
60 33 68 -5 22 -88 62 -132 62 -33 0 -46 -7 -84 -45 -65 -65 -81 -58 -33 14
22 33 46 62 53 65 26 11 144 -6 188 -28z m-3145 -61 c3 -25 3 -60 -1 -78 l-8
-32 -7 40 c-11 56 -11 127 0 121 5 -3 12 -26 16 -51z m2861 -92 c-8 -16 -24
-41 -34 -56 -17 -24 -20 -26 -26 -11 -8 21 38 94 59 94 14 0 14 -3 1 -27z
m-2845 -96 c-13 -13 -15 11 -4 40 7 16 8 15 11 -6 2 -13 -1 -28 -7 -34z m2769
-22 c-10 -12 -50 -27 -50 -19 0 2 10 20 22 39 21 32 23 33 31 13 4 -12 3 -26
-3 -33z m296 8 c-4 -10 -4 -14 0 -10 4 4 13 -1 19 -10 18 -24 -18 -70 -59 -78
-17 -4 -39 -9 -48 -11 -29 -8 -21 24 18 77 22 31 43 49 56 49 15 0 18 -4 14
-17z m-374 -123 c-20 -32 -46 -62 -57 -66 -24 -8 -35 -23 -35 -47 0 -25 -38
-77 -55 -77 -9 0 15 46 63 120 68 106 84 124 114 129 4 0 -9 -26 -30 -59z
m-2711 -4 c-15 -37 -51 -250 -67 -391 -19 -176 -17 -272 11 -445 31 -187 29
-242 -3 -113 -40 163 -54 300 -48 493 7 233 19 306 68 408 22 46 42 82 44 79
3 -2 0 -16 -5 -31z m2967 -60 c1 -31 -6 -49 -28 -75 l-28 -33 -7 45 c-6 38 -3
50 21 86 31 47 41 41 42 -23z m55 30 c-14 -19 -19 -21 -21 -9 -2 9 2 19 10 24
24 16 29 9 11 -15z m-143 -151 c0 -35 -26 -70 -57 -78 -32 -7 -29 11 10 76 33
57 47 58 47 2z m-357 -84 c-16 -21 -35 -49 -43 -61 -35 -52 -50 -62 -24 -15
46 83 68 115 82 115 7 0 1 -16 -15 -39z m257 -49 c0 -17 -16 -50 -42 -85 -39
-54 -43 -56 -51 -35 -6 17 1 35 35 85 24 35 46 63 50 63 5 0 8 -13 8 -28z
m1195 -167 c-18 -113 -27 -279 -16 -307 14 -36 60 -77 103 -90 33 -10 37 -14
25 -25 -18 -18 -62 0 -136 56 -57 43 -60 44 -126 41 -35 -1 -45 4 -80 39 -32
34 -36 41 -19 41 46 0 174 93 174 127 0 9 7 24 15 33 8 9 19 50 25 91 6 40 13
82 16 92 6 18 6 18 19 0 10 -15 10 -33 0 -98z m-1555 65 c0 -5 -5 -10 -11 -10
-5 0 -7 5 -4 10 3 6 8 10 11 10 2 0 4 -4 4 -10z m208 -136 l-33 -47 -3 32 c-2
22 6 44 30 77 l33 47 3 -32 c2 -22 -6 -44 -30 -77z m-257 57 c-12 -16 -25 -39
-30 -52 -7 -17 -10 -19 -10 -7 -1 19 40 87 52 88 5 0 -1 -13 -12 -29z m199
-115 c0 -24 -61 -117 -75 -112 -23 7 -14 48 22 100 37 54 52 57 53 12z m-101
-140 c8 -10 6 -19 -10 -40 -17 -21 -24 -24 -40 -16 -18 10 -18 13 -4 40 17 32
36 38 54 16z m1012 -32 c14 -17 43 -15 96 7 30 12 34 11 48 -6 23 -32 19 -47
-14 -43 -22 2 -36 -5 -59 -30 -32 -34 -51 -39 -83 -22 -22 12 -52 77 -45 97 7
18 41 16 57 -3z m-973 -76 c24 -37 16 -48 -35 -48 -21 0 -36 6 -42 18 -8 15
-5 18 17 17 17 0 28 6 28 15 4 39 6 39 32 -2z m-107 5 c13 -16 12 -17 -3 -4
-10 7 -18 15 -18 17 0 8 8 3 21 -13z m1799 -43 c0 -5 -7 -10 -15 -10 -8 0 -15
5 -15 10 0 6 7 10 15 10 8 0 15 -4 15 -10z m-908 -115 c14 -32 9 -37 -47 -41
-25 -1 -67 -9 -93 -17 -26 -8 -72 -20 -102 -27 -73 -17 -190 -63 -266 -106
-75 -42 -91 -43 -99 -4 -9 39 -2 48 43 55 108 17 162 27 207 40 170 49 298 94
317 113 18 18 27 15 40 -13z m-4423 -29 c7 -9 11 -41 9 -83 l-3 -68 -27 57
c-33 68 -37 108 -9 108 10 0 24 -6 30 -14z m1776 -12 c82 -22 128 -86 165
-228 12 -47 20 -112 20 -159 0 -68 -4 -87 -25 -124 -33 -55 -74 -77 -129 -69
-171 27 -267 115 -311 286 -28 108 -7 267 38 292 51 28 146 29 242 2z m-1988
8 c6 -4 18 -35 27 -70 9 -34 22 -75 28 -90 6 -15 10 -31 9 -36 -1 -5 6 -17 15
-27 16 -18 16 -19 0 -19 -9 0 -19 8 -22 18 -18 54 -31 79 -64 121 -45 57 -58
90 -39 102 17 11 30 11 46 1z m3147 -47 c23 -62 12 -234 -20 -301 -27 -56 -98
-128 -156 -156 -85 -43 -208 -47 -268 -8 -30 19 -12 174 31 261 31 62 143 144
266 195 67 27 138 32 147 9z m-2080 -257 c8 -40 -4 -52 -37 -37 -25 11 -76 8
-307 -22 -36 -4 -82 -8 -102 -8 -36 -1 -38 1 -38 30 0 16 4 28 9 25 5 -3 97
-1 206 4 146 7 202 14 218 25 32 22 44 18 51 -17z m-1097 -145 c-2 -58 -2 -58
-35 -61 -29 -3 -34 1 -47 32 -8 19 -15 40 -15 45 0 8 68 37 92 40 4 1 6 -25 5
-56z m3813 -659 c17 -31 40 -59 51 -61 21 -6 21 -8 13 -41 l-7 -23 -14 21
c-15 21 -15 21 -38 -10 l-24 -32 -15 31 c-16 30 -21 107 -10 149 4 12 8 22 9
22 2 0 17 -25 35 -56z m40 -179 c0 -17 -2 -18 -15 -4 -9 9 -13 23 -9 33 5 14
9 15 15 4 5 -7 9 -22 9 -33z m-305 -6 c-3 -4 -42 -35 -87 -69 -74 -55 -85 -60
-132 -60 l-51 0 45 27 c52 31 146 99 154 111 2 4 21 6 40 4 20 -2 33 -8 31
-13z m360 -31 c-12 -16 -16 -18 -11 -5 3 10 6 26 6 35 0 12 3 13 11 5 8 -8 7
-17 -6 -35z m145 38 c0 -9 -39 -13 -51 -5 -10 6 -4 9 19 9 17 0 32 -2 32 -4z
m73 -64 c21 -35 16 -52 -14 -52 -12 0 -23 10 -30 28 -6 15 -20 38 -32 52 l-22
25 26 -23 c19 -16 29 -20 34 -12 4 6 -1 18 -11 27 -17 14 -17 14 6 0 14 -8 33
-28 43 -45z m152 7 c21 -39 19 -47 -9 -42 -25 5 -52 55 -41 74 9 14 35 -2 50
-32z m-1403 -173 c43 -42 53 -68 37 -97 -11 -21 -12 -21 -50 23 -23 27 -58 54
-87 66 -56 24 -67 41 -46 71 l15 21 47 -24 c26 -13 64 -40 84 -60z m-1326 39
c8 -20 12 -40 9 -45 -8 -12 -52 -13 -59 -2 -5 8 24 81 32 82 2 0 10 -16 18
-35z m533 -52 l26 -17 -33 -10 c-30 -8 -36 -6 -65 24 l-32 32 39 -5 c21 -4 50
-14 65 -24z m75 -60 c4 -5 28 -15 54 -23 48 -15 64 -42 30 -48 -10 -2 -18 1
-18 6 0 6 -12 13 -28 16 -15 4 -41 18 -57 31 -27 22 -28 24 -9 25 11 0 24 -3
28 -7z m-578 -56 c-17 -12 -48 -38 -70 -58 l-41 -37 -43 23 -43 23 43 16 c54
21 160 54 173 55 6 0 -3 -10 -19 -22z m2132 -114 l-36 -36 -20 39 -20 39 36
38 37 38 19 -41 20 -40 -36 -37z m-1133 33 c15 -22 15 -27 0 -56 -9 -17 -27
-36 -42 -43 -21 -9 -27 -8 -39 8 -31 42 -5 115 41 115 15 0 31 -10 40 -24z
m180 18 c8 -4 22 -19 30 -35 26 -49 -9 -103 -62 -97 -27 3 -28 6 -31 62 -4 70
13 89 63 70z m1332 -254 l61 -119 -33 -7 c-19 -3 -38 -3 -43 0 -16 10 -112
158 -112 172 0 14 48 74 58 74 4 0 35 -54 69 -120z m-138 -168 c54 -146 123
-291 156 -330 l25 -29 -21 -19 c-15 -14 -24 -16 -37 -8 -22 14 -101 115 -102
130 0 6 -7 17 -15 24 -8 7 -15 24 -15 37 0 14 -13 64 -29 112 -36 106 -44 201
-18 201 6 0 32 -53 56 -118z m-2237 -184 c-28 -57 -75 -155 -105 -218 -30 -63
-64 -124 -76 -134 -19 -18 -26 -18 -79 -6 -31 7 -63 15 -69 17 -8 3 -13 -3
-13 -16 0 -15 -6 -21 -20 -21 -19 0 -21 5 -18 58 l3 57 45 5 c109 13 209 111
350 344 44 72 32 18 -18 -86z"/>
<path d="M2453 7255 c0 -27 2 -38 4 -22 2 15 2 37 0 50 -2 12 -4 0 -4 -28z"/>
<path d="M3784 6865 c-3 -8 -3 -19 1 -25 11 -18 25 -11 25 15 0 27 -17 34 -26
10z"/>
<path d="M3836 6765 c-8 -21 1 -35 20 -35 10 0 14 8 12 22 -4 27 -23 34 -32
13z"/>
<path d="M5455 6530 c-3 -5 -1 -19 6 -31 9 -19 13 -19 25 -7 8 8 12 22 8 31
-7 19 -29 23 -39 7z"/>
<path d="M5424 6488 c3 -13 6 -26 6 -30 0 -12 28 -9 35 3 7 11 -22 49 -38 49
-5 0 -7 -10 -3 -22z"/>
<path d="M5349 6353 c-13 -16 -12 -17 4 -4 16 13 21 21 13 21 -2 0 -10 -8 -17
-17z"/>
<path d="M5281 7333 c-10 -26 -10 -27 4 -9 8 11 15 23 15 28 0 15 -7 8 -19
-19z"/>
<path d="M5071 7319 l-25 -10 27 -27 c30 -30 51 -21 45 19 -4 27 -15 31 -47
18z"/>
<path d="M2070 7161 c0 -6 4 -13 10 -16 6 -3 7 1 4 9 -7 18 -14 21 -14 7z"/>
<path d="M4655 7135 c-68 -33 -110 -69 -101 -84 5 -7 40 -28 79 -47 71 -34 72
-35 88 -15 25 30 45 137 29 156 -17 21 -36 18 -95 -10z"/>
<path d="M4138 6987 c-14 -11 -15 -20 -5 -60 9 -43 13 -48 36 -45 28 3 41 35
33 86 -3 25 -9 32 -26 32 -11 0 -28 -6 -38 -13z"/>
<path d="M4706 6875 c-9 -26 -7 -32 5 -12 6 10 9 21 6 23 -2 3 -7 -2 -11 -11z"/>
<path d="M4666 6765 c-9 -26 -7 -32 5 -12 6 10 9 21 6 23 -2 3 -7 -2 -11 -11z"/>
<path d="M4637 6686 c-23 -68 -20 -82 4 -22 11 27 18 54 16 60 -2 6 -11 -11
-20 -38z"/>
<path d="M6713 5715 c-39 -17 -40 -25 -9 -62 20 -24 26 -25 40 -14 16 13 23
91 9 91 -5 -1 -23 -7 -40 -15z m14 -37 c-3 -8 -6 -5 -6 6 -1 11 2 17 5 13 3
-3 4 -12 1 -19z"/>
<path d="M1698 5379 c-21 -11 -38 -24 -38 -29 0 -14 35 -30 64 -30 22 0 26 4
26 30 0 17 0 33 1 37 1 14 -17 12 -53 -8z"/>
<path d="M5800 4643 c-126 -45 -151 -55 -147 -59 4 -4 208 64 216 72 13 12
-11 8 -69 -13z"/>
<path d="M5845 4380 c-21 -17 -42 -36 -46 -42 -11 -17 88 -268 105 -268 2 0
28 11 58 24 71 32 91 52 83 84 -10 39 -114 211 -135 222 -24 13 -19 14 -65
-20z m99 -65 c25 -47 46 -87 46 -90 0 -31 -133 58 -146 98 -4 13 3 28 22 48
15 16 29 29 30 29 1 0 23 -38 48 -85z"/>
<path d="M5496 4281 c-47 -48 -57 -63 -51 -81 6 -18 12 -21 38 -16 39 8 57 23
74 63 14 35 18 93 5 93 -4 0 -34 -26 -66 -59z"/>
<path d="M1750 3795 c-78 -114 -86 -185 -23 -212 66 -27 113 2 113 71 0 55
-19 158 -32 174 -17 19 -25 15 -58 -33z"/>
<path d="M5485 3651 c-139 -44 -163 -53 -115 -45 44 7 191 51 234 70 55 24 5
13 -119 -25z"/>
<path d="M5753 3492 c-13 -8 -52 -90 -53 -109 0 -20 57 -76 73 -70 15 6 27 69
27 143 0 45 -15 56 -47 36z"/>
<path d="M1514 3440 c-33 -13 -38 -40 -12 -67 30 -32 61 -27 68 12 l5 29 115
13 c63 7 122 15 130 17 27 7 -123 5 -192 -3 -37 -4 -73 -4 -80 0 -7 4 -22 3
-34 -1z"/>
<path d="M5662 3199 c-74 -4 -136 -10 -140 -14 -10 -9 312 6 323 16 5 5 -3 8
-20 7 -17 0 -90 -4 -163 -9z"/>
<path d="M1782 2841 c-97 -77 -97 -103 0 -295 38 -76 39 -81 21 -93 -70 -51
-281 -219 -278 -222 2 -1 70 49 152 112 l148 116 49 -55 c39 -44 54 -54 75
-52 53 6 90 135 59 204 -12 25 -10 29 26 60 50 43 42 54 -9 14 l-38 -30 -20
32 c-12 18 -46 82 -77 141 l-57 108 -51 -40z m71 -114 c19 -53 32 -97 30 -97
-12 0 -73 54 -101 89 l-32 40 31 36 c18 20 33 34 35 32 2 -1 18 -47 37 -100z"/>
<path d="M5825 2850 c-139 -37 -130 -30 -129 -88 2 -59 34 -133 68 -155 22
-15 27 -13 97 32 69 44 77 52 107 119 19 40 32 80 30 89 -5 25 -85 27 -173 3z
m136 -27 c-5 -10 -21 -30 -36 -45 -22 -24 -34 -28 -81 -28 l-55 0 3 32 c3 31
6 33 58 44 30 7 70 12 88 13 28 1 31 -1 23 -16z"/>
<path d="M2256 2254 l-18 -26 -22 21 c-12 12 -27 21 -32 21 -13 0 -41 -82 -50
-145 -3 -27 -10 -54 -14 -60 -15 -18 19 -89 59 -127 35 -33 46 -38 89 -38 57
0 63 5 92 83 l22 58 -28 40 c-15 22 -45 60 -67 85 -39 45 -40 51 -11 92 9 12
13 22 8 22 -5 0 -17 -12 -28 -26z m-20 -144 c-2 -14 -14 -51 -26 -83 -18 -48
-24 -56 -36 -46 -23 19 -16 171 12 248 8 24 56 -90 50 -119z"/>
<path d="M5534 2241 c7 -11 46 -35 46 -28 0 3 -12 12 -26 22 -15 9 -23 12 -20
6z"/>
<path d="M4107 2186 c-43 -39 -43 -39 -20 -66 18 -20 39 -25 67 -14 23 9 20
114 -3 114 -4 0 -24 -15 -44 -34z"/>
<path d="M3685 2166 c-37 -13 -45 -23 -45 -58 0 -23 4 -28 24 -28 30 0 76 36
76 60 0 28 -21 38 -55 26z"/>
<path d="M2620 2043 c-7 -26 -19 -59 -25 -73 -7 -14 -16 -41 -20 -60 -6 -31
-5 -33 7 -20 8 8 24 55 36 104 23 94 24 131 2 49z"/>
<path d="M2079 2013 c-13 -16 -12 -17 4 -4 9 7 17 15 17 17 0 8 -8 3 -21 -13z"/>
<path d="M3515 1807 c-55 -29 -125 -69 -155 -89 -55 -36 -56 -36 -120 -27 -59
9 -70 7 -120 -15 -30 -14 -156 -56 -279 -96 -124 -39 -227 -72 -229 -75 -3 -2
-22 5 -43 15 -21 11 -54 20 -73 20 -39 0 -182 -42 -236 -70 -41 -21 -116 -98
-153 -157 -31 -49 -60 -60 -180 -73 -116 -12 -204 -61 -376 -209 -35 -30 -59
-57 -53 -59 6 -2 68 38 137 87 70 50 132 92 138 92 7 1 21 3 32 5 11 1 69 6
129 10 91 6 108 5 103 -7 -47 -117 -44 -119 172 -119 91 0 213 -7 271 -15 58
-8 159 -17 225 -21 l120 -6 50 42 c27 23 89 62 137 86 71 36 92 42 112 34 64
-24 245 -42 476 -47 199 -4 247 -8 253 -20 7 -11 29 -14 100 -12 51 1 177 -9
282 -21 173 -22 203 -23 335 -13 147 12 167 16 300 73 41 17 129 52 195 77
136 51 145 56 145 89 0 28 -27 44 -75 44 -22 0 -34 4 -30 10 8 12 75 13 75 1
0 -5 9 -11 21 -14 15 -4 23 0 26 12 4 16 21 19 131 25 167 10 197 28 155 94
l-18 27 60 -34 c91 -51 91 -52 104 -86 10 -28 22 -36 99 -65 116 -44 234 -81
227 -70 -3 5 -68 39 -145 77 -95 46 -139 73 -140 85 0 24 -49 61 -141 107
l-80 40 -52 -20 c-93 -38 -107 -41 -142 -37 -43 5 -44 1 -3 -16 l32 -14 -57
-7 c-87 -11 -152 6 -217 57 l-25 20 60 -7 c33 -3 74 -9 90 -12 27 -4 26 -2
-16 25 -26 17 -50 35 -53 41 -4 6 -15 11 -25 11 -9 0 -72 20 -139 45 -67 25
-128 45 -136 45 -8 0 -45 23 -82 51 -109 82 -115 84 -245 71 -61 -7 -117 -16
-123 -21 -7 -6 -25 -37 -41 -71 -27 -57 -30 -60 -59 -55 -91 15 -368 45 -423
45 -62 0 -63 0 -57 25 5 19 -2 33 -32 65 -39 41 -93 80 -110 80 -5 0 -54 -24
-109 -53z m-1158 -368 c-11 -22 -36 -51 -56 -63 -41 -26 -137 -76 -146 -76
-10 0 54 85 90 120 29 28 90 58 121 60 7 0 3 -16 -9 -41z"/>
<path d="M2952 1790 c-18 -11 -38 -17 -44 -13 -7 3 3 -12 22 -35 35 -45 57
-56 84 -46 13 5 16 17 14 58 -4 60 -22 69 -76 36z"/>
<path d="M4895 1708 c38 -43 71 -78 73 -78 7 0 -76 95 -109 125 -18 17 -2 -5
36 -47z"/>
<path d="M5774 1612 c8 -13 66 -56 66 -49 0 3 -17 17 -37 33 -20 15 -33 23
-29 16z"/>
<path d="M5287 1302 c-20 -22 -22 -43 -5 -60 17 -17 39 -15 54 6 18 23 17 37
-2 56 -20 20 -27 20 -47 -2z"/>
<path d="M3117 1036 c-58 -17 -79 -33 -75 -59 6 -40 53 -62 132 -61 92 0 141
25 141 69 0 23 -7 33 -30 44 -42 20 -111 23 -168 7z"/>
</g>
</svg>
