<?xml version="1.0" standalone="no"?>
<!DOCTYPE svg PUBLIC "-//W3C//DTD SVG 20010904//EN"
 "http://www.w3.org/TR/2001/REC-SVG-20010904/DTD/svg10.dtd">
<svg version="1.0" xmlns="http://www.w3.org/2000/svg"
 width="528.000000pt" height="597.000000pt" viewBox="0 0 528.000000 597.000000"
 preserveAspectRatio="xMidYMid meet">

<g transform="translate(0.000000,597.000000) scale(0.100000,-0.100000)"
fill="rgba(241,22,22,0.863)" stroke="none">
<path d="M3792 5279 c-16 -16 -41 -52 -56 -79 -28 -52 -42 -156 -52 -385 -3
-60 -9 -114 -15 -119 -5 -6 -9 -38 -9 -72 0 -42 -4 -63 -13 -67 -8 -3 -32 -44
-55 -91 -49 -103 -89 -163 -155 -233 -56 -60 -50 -60 -207 -13 -103 31 -235
60 -273 60 -24 0 -65 -37 -86 -77 -26 -52 -1 -114 75 -185 51 -47 147 -98 184
-98 75 -1 188 -36 229 -71 22 -19 40 -38 40 -42 3 -23 -40 -14 -131 26 -128
57 -169 68 -269 71 -66 3 -93 -1 -166 -26 l-87 -29 -109 36 c-60 19 -116 35
-126 35 -10 0 -20 2 -23 5 -3 3 8 44 24 91 20 57 26 89 20 97 -6 8 -2 43 14
102 34 134 32 177 -16 271 -35 69 -77 125 -162 213 -52 54 -226 110 -305 98
-22 -3 -19 -4 12 -6 23 0 67 -8 100 -16 62 -17 175 -72 175 -86 0 -13 -2 -12
-52 16 -78 43 -156 65 -234 65 -40 0 -75 -3 -77 -7 -5 -8 -37 -185 -37 -203 0
-6 8 -10 18 -10 21 0 50 -32 64 -71 22 -63 -34 -152 -103 -163 -44 -7 -48 -14
-70 -109 -9 -36 -18 -56 -25 -53 -12 5 -29 -42 -19 -52 3 -3 5 3 5 12 0 10 5
16 11 14 6 -2 10 -7 10 -11 -1 -4 -1 -14 -1 -23 0 -11 -5 -14 -16 -10 -10 4
-14 1 -12 -6 4 -11 105 -55 130 -57 4 -1 10 9 13 22 12 39 55 87 110 123 52
35 192 90 202 80 3 -3 -6 -10 -21 -15 -24 -10 -26 -15 -26 -63 0 -29 -6 -75
-14 -103 -13 -46 -23 -72 -61 -160 -12 -29 -35 -94 -35 -101 0 -2 23 -4 50 -4
l51 0 46 100 c25 55 48 98 50 96 2 -2 -9 -37 -25 -77 -16 -41 -33 -89 -37
-106 l-7 -33 -106 -2 -107 -2 89 -5 c85 -6 89 -7 72 -23 -10 -10 -34 -18 -54
-19 l-37 -1 35 -8 c30 -8 39 -5 62 17 30 29 51 24 25 -5 -10 -10 -17 -23 -17
-28 0 -6 -20 -30 -45 -54 -47 -46 -60 -40 -24 12 12 16 20 31 18 33 -2 2 -27
5 -56 6 -49 3 -53 1 -89 -39 -20 -23 -46 -42 -56 -42 -10 0 -26 -8 -36 -17
-10 -10 -47 -43 -83 -73 -35 -30 -74 -65 -86 -77 -12 -13 -27 -23 -33 -23 -9
0 -128 54 -149 67 -2 1 -12 46 -22 99 -10 53 -34 146 -54 206 -19 60 -35 117
-35 126 0 29 66 284 90 345 12 31 25 55 29 53 4 -3 12 15 18 39 6 25 6 45 2
45 -11 0 37 134 66 185 39 67 167 151 270 176 28 7 54 16 59 20 23 20 -124
-25 -178 -54 -81 -43 -177 -139 -194 -194 -14 -49 -28 -61 -45 -41 -7 8 -27
25 -45 37 -54 38 -130 117 -152 159 -24 45 -123 114 -218 151 -50 20 -79 20
-67 2 2 -5 -23 -30 -56 -56 -33 -26 -71 -65 -85 -86 -13 -22 -26 -39 -29 -39
-26 0 46 89 112 139 47 35 50 39 30 45 -63 17 -108 7 -176 -38 -36 -25 -95
-70 -129 -101 -35 -30 -80 -64 -100 -74 -53 -27 -125 -81 -118 -88 3 -4 16 3
29 14 12 11 45 33 72 48 54 29 45 20 -31 -34 l-49 -34 29 -8 c15 -4 37 -15 47
-25 18 -16 17 -17 -14 -38 -31 -21 -33 -21 -62 -5 -16 9 -45 20 -63 24 -37 8
-39 12 -14 32 16 14 16 14 -3 6 -11 -4 -73 -8 -138 -9 -86 0 -121 -4 -130 -14
-10 -12 -9 -12 6 0 16 11 21 10 47 -15 34 -33 38 -45 12 -45 -23 0 -57 -35
-72 -75 l-12 -30 -9 24 c-7 17 -13 21 -20 14 -12 -12 -3 -53 12 -53 14 0 11
-17 -12 -71 -17 -40 -25 -48 -40 -44 -26 9 -26 -36 0 -52 16 -10 18 -18 10
-60 -5 -26 -16 -51 -24 -56 -21 -11 -19 -32 5 -48 17 -12 19 -19 11 -45 -6
-22 -5 -36 2 -44 9 -10 8 -11 -3 -8 -24 7 -39 68 -48 195 -9 110 -9 113 -11
41 -2 -121 16 -230 41 -248 11 -8 30 -24 42 -36 36 -36 99 -73 157 -92 47 -17
58 -18 74 -6 10 8 26 14 34 14 9 0 29 21 45 48 16 26 37 56 47 67 10 11 32 54
49 95 17 41 38 83 48 93 18 21 147 87 169 87 8 0 13 -15 14 -42 0 -24 8 -70
17 -103 14 -48 21 -61 39 -63 33 -5 63 -53 63 -100 0 -27 8 -50 23 -69 35 -44
59 -102 72 -178 12 -63 11 -74 -6 -114 -35 -81 -19 -66 26 24 59 117 90 153
135 157 l35 3 8 -95 c7 -90 31 -200 43 -200 3 0 4 17 1 38 -2 20 -2 29 0 20 2
-9 10 -15 17 -12 9 3 17 -10 25 -38 18 -69 51 -212 51 -223 0 -5 -20 -23 -45
-40 -33 -22 -43 -35 -40 -50 2 -11 7 -47 10 -80 10 -96 14 -105 44 -105 36 0
46 10 48 48 3 76 89 111 172 70 25 -12 51 -23 56 -23 6 0 9 -8 7 -18 -3 -20
13 -23 22 -4 3 6 3 1 0 -12 -4 -16 -3 -21 5 -17 7 5 10 -1 8 -16 -1 -18 4 -24
23 -26 37 -5 47 -20 18 -27 -18 -5 -28 -15 -32 -36 -8 -43 -36 -80 -72 -95
-44 -19 -99 0 -152 53 -23 24 -49 43 -57 43 -8 0 -12 6 -9 14 4 9 -5 15 -26
18 -30 5 -31 4 -28 -34 1 -26 -4 -44 -16 -56 -17 -16 -18 -16 -8 3 5 11 7 34
5 52 -4 25 -11 33 -34 38 -35 8 -38 22 -7 27 22 3 23 7 20 68 -1 36 -7 79 -12
95 -5 17 -11 89 -14 160 -4 124 -6 135 -45 227 -22 54 -45 116 -51 138 -6 22
-14 40 -19 40 -13 0 -68 -110 -86 -173 -12 -41 -15 -73 -10 -110 10 -70 -2
-55 -20 24 l-13 64 -1 -50 c-1 -27 8 -110 19 -183 11 -74 20 -149 20 -167 0
-20 20 -73 50 -133 27 -55 50 -114 50 -130 0 -37 34 -106 94 -192 l46 -65 -21
-17 c-12 -10 -34 -18 -49 -18 -33 0 -181 -106 -315 -226 -46 -41 -90 -74 -97
-74 -40 0 -166 -180 -203 -291 -97 -285 -136 -799 -66 -873 11 -12 21 -35 22
-52 0 -16 4 -47 9 -69 l8 -40 -1 48 c-1 37 4 53 22 70 l23 22 -7 -70 c-8 -77
-12 -88 -26 -80 -5 4 -9 -3 -9 -14 0 -61 176 -141 311 -141 49 0 59 3 73 25
12 18 25 25 49 25 60 0 97 46 152 189 21 56 37 80 71 108 24 21 44 42 44 47 0
5 42 49 93 97 50 47 112 114 137 147 25 34 50 61 55 61 6 0 20 -22 32 -48 20
-47 24 -50 67 -56 69 -11 191 3 209 23 9 9 25 44 38 77 12 33 26 65 31 72 5 6
31 12 58 11 39 0 74 12 182 63 142 68 239 123 303 173 21 17 48 36 58 41 11 6
32 26 46 45 l26 35 -45 -36 c-68 -54 -234 -157 -293 -183 -28 -13 -90 -36
-137 -51 -47 -16 -89 -32 -94 -37 -16 -13 -53 -9 -69 7 -13 13 -13 20 0 62 9
29 16 92 17 158 l2 110 62 3 c33 2 98 -4 144 -13 115 -22 239 -29 334 -20 43
4 74 10 67 12 -6 2 18 29 54 60 53 45 70 54 92 50 34 -7 40 -3 78 53 17 25 42
56 57 69 28 26 30 25 41 -41 11 -69 84 -95 162 -58 55 26 108 63 143 100 15
16 49 34 85 45 74 22 205 82 205 95 0 6 6 10 13 10 16 0 104 76 97 84 -4 3
-51 -25 -105 -63 -121 -83 -251 -132 -272 -104 -34 44 4 221 58 276 l29 29 94
-40 c104 -45 182 -65 156 -40 -20 19 -234 90 -263 87 -12 -2 -38 7 -57 19 -41
26 -105 28 -165 7 -53 -19 -84 -19 -108 2 -11 11 -42 20 -76 23 l-56 5 65 44
c36 24 97 70 137 102 l71 59 111 0 c88 0 122 4 168 21 32 12 63 25 69 30 6 5
26 4 45 -1 19 -6 54 -11 79 -12 39 -2 53 4 100 39 30 22 68 55 84 72 16 17 61
44 101 60 97 41 142 67 230 136 62 49 77 67 89 104 13 41 44 191 61 291 9 60
82 145 156 182 83 43 229 183 229 220 0 24 4 26 63 33 41 5 67 13 77 25 10 11
51 25 114 39 54 11 103 27 110 35 6 7 23 16 37 20 35 8 135 76 177 119 l34 35
-25 49 c-41 79 -39 79 -177 43 -66 -18 -128 -29 -137 -26 -9 4 -57 -7 -107
-23 -50 -16 -111 -32 -136 -35 -44 -6 -46 -6 -58 26 -12 31 -11 34 17 58 16
14 32 34 35 45 5 18 180 145 200 145 31 0 146 125 146 159 0 26 -49 96 -81
115 -28 16 -29 16 -134 -39 -58 -30 -111 -55 -117 -55 -10 0 -153 -112 -168
-131 -13 -17 -52 -20 -69 -5 -28 25 -14 64 46 131 29 33 56 71 59 85 4 14 38
57 77 97 79 80 107 143 107 240 0 58 -9 67 -96 93 -39 12 -46 10 -112 -20 -79
-36 -104 -63 -251 -273 -46 -65 -91 -121 -100 -124 -9 -3 -25 -16 -37 -29 -19
-24 -22 -24 -75 -12 -30 6 -55 13 -57 14 -2 1 4 42 14 90 9 49 17 114 19 144
1 30 6 92 10 138 8 83 8 83 -30 157 -36 72 -40 76 -88 90 -70 21 -80 19 -115
-16z m111 -9 c26 -11 49 -25 52 -31 10 -16 -4 -65 -27 -88 -28 -31 -31 -22 -8
24 36 70 20 96 -33 55 -14 -11 -30 -20 -36 -20 -17 0 -13 -25 9 -53 25 -32 25
-41 1 -28 -10 6 -28 29 -39 51 l-19 40 -17 -104 c-9 -58 -16 -121 -16 -140 0
-37 -11 -44 -39 -27 -23 15 -6 173 25 237 32 68 61 104 83 104 10 0 39 -9 64
-20z m717 -175 c7 -8 8 -15 3 -15 -19 0 -53 -42 -53 -65 0 -26 -15 -34 -22
-13 -6 17 -99 -63 -149 -129 -23 -29 -45 -53 -50 -53 -5 0 -14 11 -20 24 -10
20 -7 30 19 68 17 23 49 63 71 87 23 24 41 47 41 52 0 4 19 19 43 33 47 29 98
34 117 11z m80 -41 c0 -21 -56 -94 -71 -94 -5 0 3 11 16 24 13 13 27 36 31 50
5 22 24 38 24 20z m-705 -93 c-5 -36 -11 -51 -22 -51 -12 0 -13 3 -5 13 6 7
14 32 18 55 9 60 18 44 9 -17z m599 -152 c-32 -32 -65 -59 -73 -59 -9 0 16 32
54 70 39 39 72 65 74 59 2 -6 -23 -38 -55 -70z m-3624 34 c0 -5 -17 -19 -37
-33 -53 -36 -117 -90 -106 -90 5 0 24 11 43 25 19 14 36 25 38 25 2 0 -19 -26
-47 -58 -28 -32 -51 -65 -51 -72 0 -9 -9 -5 -25 10 l-25 24 27 29 c29 30 171
147 179 147 2 0 4 -3 4 -7z m2877 -29 c-3 -3 -12 -4 -19 -1 -8 3 -5 6 6 6 11
1 17 -2 13 -5z m-123 -26 c7 -21 8 -21 14 -5 7 17 9 17 26 -2 17 -19 17 -21 3
-21 -13 0 -17 -9 -17 -40 0 -45 -2 -47 -30 -23 -15 13 -20 30 -20 65 0 50 13
64 24 26z m261 0 c-3 -13 -9 -41 -13 -63 -6 -29 -17 -46 -41 -62 -19 -13 -41
-23 -50 -23 -9 1 0 10 21 20 31 17 37 26 43 62 7 48 24 88 37 88 5 0 6 -10 3
-22z m282 -19 c-8 -30 34 -88 87 -122 39 -25 49 -27 81 -18 44 12 44 4 0 -39
-19 -19 -35 -30 -35 -26 0 4 7 15 17 24 15 16 13 17 -27 24 -50 9 -85 29 -101
60 -11 21 -13 21 -50 -23 -48 -55 -54 -29 -9 36 42 61 37 69 -10 15 -51 -59
-51 -39 1 33 43 61 55 70 46 36z m-354 -26 c-26 -20 -123 -15 -123 6 0 3 32 6
70 6 59 0 68 -2 53 -12z m1008 -79 l24 -25 -28 10 c-26 10 -28 9 -34 -19 -6
-32 -19 -40 -25 -15 -2 13 -17 9 -76 -20 -80 -38 -86 -40 -77 -25 3 6 1 10 -6
10 -10 0 -10 3 -2 11 14 14 174 97 189 98 6 1 21 -11 35 -25z m-2485 -75 c36
-49 29 -49 -21 1 -25 24 -45 48 -45 53 0 14 40 -19 66 -54z m1627 48 c26 -11
27 -13 12 -34 -17 -25 -90 -30 -80 -5 3 7 5 22 5 33 0 22 21 24 63 6z m-2724
-13 c2 -2 -12 -4 -32 -4 -20 0 -38 4 -42 9 -5 9 64 4 74 -5z m2380 -54 c4 -8
5 -26 3 -39 -3 -19 -6 -21 -14 -10 -7 10 -8 1 -5 -28 4 -36 3 -40 -9 -28 -15
15 -17 47 -7 121 6 44 7 46 16 24 5 -14 12 -32 16 -40z m-2304 40 c3 -6 -1 -7
-9 -4 -18 7 -21 14 -7 14 6 0 13 -4 16 -10z m-655 -45 c-24 -25 -46 -45 -49
-45 -3 0 15 20 39 45 24 25 46 45 49 45 3 0 -15 -20 -39 -45z m4204 30 c-7
-16 -51 -32 -61 -21 -4 3 1 6 9 6 9 0 21 7 28 15 16 19 31 19 24 0z m-870 -62
c-32 -68 -32 -68 -39 -61 -3 3 5 27 17 54 29 62 39 77 45 70 3 -2 -7 -31 -23
-63z m-2702 40 c25 -30 30 -43 16 -43 -8 0 -22 14 -31 30 -20 33 -9 41 15 13z
m2558 -44 c-5 -19 -14 -53 -20 -76 -14 -56 -34 -57 -25 -3 7 41 7 41 -21 34
-48 -12 -84 -8 -102 10 -16 17 -15 18 20 12 62 -11 116 3 135 35 21 36 25 32
13 -12z m-2825 -13 c-49 -25 -120 -70 -157 -100 -66 -54 -147 -152 -149 -178
0 -9 -2 -9 -5 -1 -3 6 4 30 16 53 11 22 18 46 14 52 -10 16 134 149 196 181
30 15 56 23 58 18 2 -5 22 -3 45 5 78 24 72 14 -18 -30z m3505 24 c0 -5 -3
-10 -7 -10 -12 -1 -116 -90 -105 -90 5 0 30 16 56 35 29 23 46 31 46 22 0 -8
-25 -31 -55 -51 -30 -20 -55 -32 -55 -27 0 5 -3 16 -6 24 -3 9 15 31 53 61 59
47 73 54 73 36z m-3095 -31 c32 -28 46 -59 27 -59 -4 0 -25 20 -45 45 -44 52
-34 59 18 14z m-1201 -19 c10 -10 -1 -30 -17 -30 -7 0 -20 12 -30 26 l-19 25
29 -7 c15 -4 32 -10 37 -14z m4556 1 c-13 -25 -51 -52 -62 -45 -5 3 8 18 29
34 46 35 46 35 33 11z m-663 -48 c31 -18 73 -16 95 4 32 29 21 -7 -18 -53 -39
-49 -67 -60 -35 -15 12 16 21 32 21 35 0 3 -17 6 -39 6 -43 0 -85 27 -94 61
-6 21 -5 21 21 -2 15 -13 37 -30 49 -36z m-581 5 c1 -24 5 -55 9 -70 5 -19 2
-34 -10 -50 -13 -18 -16 -19 -11 -4 5 16 4 17 -9 6 -12 -10 -15 -10 -15 0 0 7
-9 2 -20 -11 l-19 -24 -1 32 c0 30 57 163 70 163 3 0 6 -19 6 -42z m984 -18
c0 -5 9 -19 20 -30 14 -14 16 -20 6 -20 -7 0 -21 11 -30 25 -19 28 -20 35 -6
35 6 0 10 -4 10 -10z m-4382 -43 c-10 -19 -9 -20 4 -10 12 11 22 8 54 -15 59
-43 67 -57 60 -97 -6 -31 -26 -50 -26 -25 0 6 -27 38 -60 71 -55 54 -59 61
-48 84 6 13 15 22 19 19 5 -3 4 -15 -3 -27z m4132 -52 c-24 -25 -46 -42 -49
-40 -3 3 15 25 39 50 24 25 46 42 49 40 3 -3 -15 -25 -39 -50z m360 50 c0 -10
-111 -75 -128 -75 -9 0 -28 9 -42 20 -29 22 -17 26 20 6 27 -15 47 -9 85 24
11 10 29 20 40 23 11 3 21 5 23 6 1 0 2 -1 2 -4z m-520 -37 c12 -8 11 -8 -3
-4 -10 3 -27 6 -38 6 -10 0 -19 5 -19 11 0 11 33 4 60 -13z m190 -30 c0 -15
-61 -60 -69 -52 -6 5 49 63 62 63 4 1 7 -5 7 -11z m-3227 -34 c36 -17 49 -45
27 -59 -6 -4 -8 -11 -4 -16 3 -5 1 -15 -4 -22 -5 -7 -13 -23 -17 -37 -9 -28
-17 -36 -65 -70 -19 -14 -44 -24 -55 -22 -17 2 -16 -1 9 -21 19 -16 24 -27 17
-32 -7 -4 -19 -1 -28 7 -15 11 -16 11 -9 -7 21 -56 -106 100 -167 206 -37 63
-34 83 3 27 47 -72 58 -76 50 -23 -8 50 -4 55 51 80 43 20 140 14 192 -11z
m2380 -94 c32 -47 20 -54 -16 -10 -26 30 -26 30 -33 7 -5 -12 -7 -25 -6 -29 3
-12 -4 -10 -42 13 l-36 21 48 54 47 53 6 -34 c3 -19 18 -52 32 -75z m200 103
c4 -3 27 -7 52 -9 57 -2 85 -20 99 -64 8 -25 20 -36 45 -45 27 -9 31 -13 18
-18 -9 -3 -17 -12 -17 -18 0 -8 4 -8 15 1 10 9 15 9 15 1 0 -6 9 -11 20 -11
10 0 25 -7 32 -15 11 -12 18 -8 49 27 35 40 37 41 34 15 -2 -14 0 -25 4 -24 3
1 24 -12 45 -30 33 -27 36 -31 15 -27 -13 4 -38 12 -56 20 -38 17 -40 17 -46
0 -3 -8 11 -32 32 -54 34 -36 45 -40 102 -47 91 -10 109 -24 32 -25 -35 0 -63
-4 -63 -10 0 -5 24 -10 53 -10 62 -1 156 -9 177 -17 22 -8 -16 -21 -62 -22
-20 -1 -40 -5 -43 -11 -3 -5 -19 -10 -35 -10 -16 0 -32 -4 -35 -10 -3 -5 -15
-10 -26 -10 -17 0 -19 -4 -13 -22 4 -13 12 -26 18 -30 8 -5 7 -8 -2 -8 -21 0
-43 27 -36 44 3 9 2 16 -4 16 -15 0 -23 -43 -9 -52 8 -5 7 -8 -5 -8 -10 0 -18
-4 -18 -10 0 -30 -134 -59 -186 -40 -15 6 -26 3 -38 -8 -15 -15 -16 -15 -16 1
0 10 -12 23 -27 29 -32 14 -91 56 -112 78 -10 11 -10 9 1 -10 8 -14 38 -40 66
-59 28 -19 50 -37 47 -39 -11 -11 -148 90 -143 105 2 5 -17 10 -42 13 -37 4
-41 7 -25 14 18 8 17 10 -10 16 -16 4 -54 8 -83 9 -38 1 -52 5 -50 14 5 13 72
25 151 26 26 1 47 5 47 10 0 4 -11 6 -25 3 -20 -3 -24 -1 -19 12 3 9 10 16 15
16 4 0 13 9 19 21 9 17 8 25 -7 41 -18 21 -18 21 7 8 34 -18 41 -31 24 -47
-16 -16 -10 -35 9 -27 13 5 48 74 38 74 -4 0 -13 -6 -20 -12 -11 -11 -12 -10
-6 0 5 9 -9 31 -41 64 l-49 50 57 -36 c62 -39 83 -43 112 -21 10 8 39 17 63
21 56 8 51 28 -9 32 -36 2 -47 8 -56 26 -6 13 -25 27 -49 34 -68 20 -113 82
-60 82 13 0 27 -3 30 -7z m749 -71 c39 6 35 -2 -17 -35 -49 -31 -71 -30 -101
5 l-19 22 29 -18 c24 -15 32 -16 52 -5 31 16 30 20 -6 41 -17 9 -30 24 -30 33
0 12 9 8 32 -15 24 -24 38 -31 60 -28z m-1382 11 c79 -25 108 -39 100 -46 -3
-3 -43 8 -90 23 -47 15 -101 31 -119 35 l-35 7 17 -25 c28 -43 18 -98 -10 -57
-13 19 -14 19 -60 -1 l-46 -19 6 30 c4 17 17 44 29 61 22 29 24 30 78 23 30
-3 89 -17 130 -31z m-2881 -37 c35 -25 38 -30 26 -43 -13 -12 -19 -11 -50 14
-19 15 -35 32 -35 36 0 5 -4 5 -10 2 -15 -9 -13 -18 15 -59 28 -41 23 -47 -12
-14 -17 16 -23 33 -23 63 0 50 18 73 36 47 7 -10 31 -31 53 -46z m4881 27 c-1
-24 -22 -35 -73 -37 -31 -2 -62 -7 -69 -13 -21 -16 -66 -24 -73 -12 -10 15 -6
18 86 44 88 24 129 30 129 18z m-1754 -58 c95 -11 106 -20 30 -25 -69 -5 -69
-5 -40 -20 16 -8 36 -22 44 -31 8 -9 35 -19 59 -23 40 -6 43 -5 38 14 -3 11
-2 20 2 20 13 0 31 -50 30 -83 -1 -18 -3 -24 -6 -14 -4 13 -15 17 -59 17 -37
0 -54 -4 -54 -13 0 -18 -49 -87 -62 -87 -6 0 -2 10 10 23 32 34 37 78 16 123
-19 40 -67 89 -96 99 -10 4 -18 10 -18 15 0 6 9 6 23 1 13 -5 50 -12 83 -16z
m1449 -18 c-10 -16 -29 -27 -53 -32 -20 -3 -44 -8 -52 -11 -10 -2 -16 3 -17
16 -1 15 8 22 40 30 23 6 53 15 67 19 33 11 35 8 15 -22z m-3345 -5 c0 -13
-57 -100 -85 -130 -1 -1 -12 1 -25 6 -22 8 -20 11 40 75 34 37 64 67 66 67 2
0 4 -8 4 -18z m3683 5 c26 0 26 -1 8 -13 -22 -16 -71 -4 -71 17 0 7 7 8 18 3
9 -4 29 -7 45 -7z m-1993 -17 c22 -6 45 -8 50 -5 15 9 12 -31 -2 -43 -19 -15
-99 20 -110 48 -6 17 -5 21 6 17 8 -3 33 -11 56 -17z m-2821 -33 c-5 -17 -9
-33 -9 -35 0 -2 -5 0 -10 3 -9 6 -5 47 7 68 11 20 20 -7 12 -36z m2641 11 c0
-5 -20 -8 -44 -8 -25 0 -47 3 -49 8 -3 4 17 7 44 7 27 0 49 -3 49 -7z m1645 4
c-11 -9 -85 -32 -104 -32 -6 0 -11 4 -11 9 0 5 21 13 48 19 63 13 78 14 67 4z
m-2245 -84 c-16 -107 -35 -172 -65 -223 -33 -57 -50 -59 -25 -2 11 23 20 49
20 57 0 8 6 26 13 40 7 14 24 67 37 117 14 51 26 90 28 88 2 -2 -1 -37 -8 -77z
m2434 -33 c9 -14 22 -25 28 -25 8 0 8 -3 3 -9 -16 -15 -102 -24 -109 -12 -5 7
3 11 21 11 46 0 59 13 39 41 -9 13 -16 37 -15 54 l1 30 8 -32 c4 -18 15 -44
24 -58z m-3569 -7 c-38 -40 -71 -75 -72 -77 -2 -2 -3 1 -3 8 0 14 123 141 136
141 4 0 -24 -33 -61 -72z m180 10 c-8 -18 -27 -51 -41 -73 -33 -53 -22 -12 19
70 31 61 51 64 22 3z m3154 4 c-11 -51 2 -79 46 -91 30 -9 30 -9 4 -10 -15 -1
-39 -4 -55 -7 -30 -6 -74 24 -74 49 0 7 5 4 11 -5 5 -10 21 -18 34 -18 23 0
24 2 18 50 -4 33 -2 55 7 65 18 22 20 15 9 -33z m-2118 -3 c-5 -13 -10 -19
-10 -12 -1 15 10 45 15 40 3 -2 0 -15 -5 -28z m-2226 -72 c16 -17 -48 24 -72
46 -13 11 -23 25 -23 30 0 8 62 -42 95 -76z m1096 66 c-5 -10 -17 -27 -25 -38
l-16 -20 6 20 c7 19 33 55 41 55 2 0 -1 -8 -6 -17z m1080 -92 c-17 -34 -36
-61 -41 -61 -15 0 -13 7 17 58 32 57 45 74 50 68 2 -2 -10 -31 -26 -65z m569
-31 c0 -5 -9 -10 -20 -10 -13 0 -20 -7 -20 -18 0 -13 -12 -23 -41 -31 -23 -7
-77 -30 -120 -51 -65 -32 -84 -37 -108 -30 -25 7 -29 6 -24 -8 4 -10 2 -13 -6
-8 -6 4 -19 2 -27 -5 -8 -6 -17 -10 -19 -7 -9 9 58 68 99 87 91 43 136 61 150
61 8 0 17 4 20 9 4 5 17 8 31 7 13 -2 22 1 19 5 -3 5 11 9 30 9 20 0 36 -4 36
-10z m-2735 -57 c28 -14 44 -28 38 -30 -17 -6 -119 53 -127 74 -6 14 -5 14 16
-1 13 -9 46 -28 73 -43z m2826 6 l24 -20 -30 17 c-39 24 -40 24 -28 24 6 0 21
-9 34 -21z m-755 -102 c-30 -57 -61 -103 -70 -105 -13 -3 -10 8 14 48 16 28
30 53 30 56 0 2 14 29 31 59 54 96 50 49 -5 -58z m324 69 c-40 -36 -151 -126
-157 -126 -11 0 40 51 97 96 50 40 94 62 60 30z m-1173 -28 c-3 -7 -5 -2 -5
12 0 14 2 19 5 13 2 -7 2 -19 0 -25z m2703 24 c0 -18 -80 -52 -136 -57 l-59
-5 61 13 c33 7 74 23 90 35 31 23 44 27 44 14z m-752 -14 c-3 -7 -39 -27 -82
-45 -42 -17 -96 -41 -119 -53 l-42 -22 25 25 c14 14 59 39 100 57 41 18 79 36
85 41 14 13 37 11 33 -3z m-2136 -157 c3 -84 9 -170 13 -190 6 -34 5 -35 -11
-19 -16 16 -32 151 -33 293 l-1 50 -25 -38 c-26 -37 -35 -45 -35 -28 0 15 64
90 75 87 6 -1 13 -68 17 -155z m2229 114 c27 -19 55 -35 63 -35 7 0 26 -17 42
-37 16 -21 34 -44 41 -51 18 -19 18 -21 -38 -82 l-50 -55 -34 38 c-57 65 -99
181 -87 240 5 23 7 22 63 -18z m449 4 c0 -6 -4 -8 -9 -5 -5 3 -12 -1 -15 -10
-4 -9 -9 -14 -12 -11 -9 9 16 48 27 42 5 -4 9 -11 9 -16z m-2492 -74 l1 -20
-9 20 c-5 11 -8 31 -8 45 l0 25 8 -25 c4 -14 8 -34 8 -45z m2846 39 c17 -6 22
-24 8 -24 -5 0 -17 7 -28 15 -19 15 -8 20 20 9z m-1244 -58 c19 0 44 4 55 8
11 5 -15 -25 -57 -67 -100 -96 -129 -155 -135 -276 -6 -103 21 -201 65 -239
24 -20 24 -22 4 -12 -13 6 -57 10 -100 9 -52 -2 -77 2 -80 10 -6 18 19 142 28
136 4 -2 13 21 20 53 7 31 16 62 20 67 4 6 15 35 24 65 10 30 22 64 27 75 5
11 16 51 25 90 12 52 13 70 4 73 -24 8 14 21 40 14 14 -4 41 -7 60 -6z m78
-58 c-36 -73 -36 -73 -44 -65 -6 5 63 127 72 127 2 0 -10 -28 -28 -62z m-356
-40 c-26 -35 -58 -88 -70 -118 -31 -73 -45 -101 -49 -96 -2 2 5 28 17 57 11
30 20 55 20 57 0 8 -49 -26 -87 -61 -25 -23 -52 -42 -60 -43 -9 -2 -19 -8 -23
-14 -15 -24 -18 6 -5 45 20 58 124 154 200 184 33 13 67 30 75 37 34 32 26 9
-18 -48z m1431 -13 c-35 -43 -68 -63 -80 -51 -8 7 47 71 72 84 42 22 45 10 8
-33z m-953 -57 c0 -5 -18 -8 -40 -8 -43 0 -53 16 -20 28 20 8 20 8 -5 32 -14
13 -25 28 -25 34 0 12 89 -74 90 -86z m450 75 c0 -5 -23 -33 -51 -63 l-51 -55
43 63 c38 56 59 76 59 55z m370 -7 c0 -2 -7 -6 -15 -10 -8 -3 -15 -1 -15 4 0
6 7 10 15 10 8 0 15 -2 15 -4z m-2569 -49 c-6 -6 -11 -15 -11 -19 0 -12 28
-10 32 3 2 6 41 -7 94 -33 98 -47 130 -60 186 -78 l36 -11 -25 -25 c-23 -23
-28 -24 -49 -13 -22 11 -23 14 -8 30 14 16 14 18 -7 24 -15 5 -25 2 -31 -9 -5
-9 -14 -16 -19 -16 -12 0 -135 46 -161 60 -10 5 -23 7 -31 4 -9 -3 -18 8 -26
34 -12 35 -11 41 5 61 11 12 20 17 23 10 2 -6 -2 -16 -8 -22z m1481 -51 c-20
-46 -38 -83 -40 -81 -13 12 54 165 72 165 3 0 -12 -38 -32 -84z m372 47 c-24
-18 -79 -17 -94 2 -11 13 -6 15 31 15 24 0 51 5 59 10 22 14 27 -10 4 -27z
m-194 -26 c0 -6 -11 0 -25 13 -14 13 -25 28 -25 33 0 6 11 0 25 -13 14 -13 25
-28 25 -33z m-75 -4 c-4 -10 -9 -33 -12 -50 -3 -18 -9 -33 -13 -33 -4 0 -3 23
3 50 5 28 14 50 19 50 6 0 7 -8 3 -17z m-40 -34 c-8 -23 -16 -51 -16 -63 -1
-11 -5 -5 -8 14 -4 19 -4 37 0 40 3 3 11 15 18 28 19 35 21 26 6 -19z m-1696
-95 c19 -112 21 -148 7 -133 -14 14 -50 259 -38 259 5 0 18 -57 31 -126z m164
60 c24 5 28 3 23 -10 -3 -9 -6 -23 -6 -33 0 -11 -8 -17 -24 -16 -32 0 -32 1
-39 65 -5 50 -5 52 5 22 10 -30 14 -33 41 -28z m1483 -61 c-11 -35 -15 -41
-15 -22 -1 31 21 99 26 82 2 -6 -3 -33 -11 -60z m-59 -15 c-3 -8 -6 -5 -6 6
-1 11 2 17 5 13 3 -3 4 -12 1 -19z m423 -78 c0 -5 -5 -10 -11 -10 -5 0 -7 5
-4 10 3 6 8 10 11 10 2 0 4 -4 4 -10z m-2383 -52 c-3 -8 -6 -5 -6 6 -1 11 2
17 5 13 3 -3 4 -12 1 -19z m833 18 c0 -3 -4 -8 -10 -11 -5 -3 -10 -1 -10 4 0
6 5 11 10 11 6 0 10 -2 10 -4z m450 -41 c-36 -12 -109 -39 -163 -59 -57 -20
-97 -31 -95 -24 3 7 69 34 149 60 146 48 228 66 109 23z m-1273 -37 c-3 -8 -6
-5 -6 6 -1 11 2 17 5 13 3 -3 4 -12 1 -19z m913 -31 c-55 -27 -159 -75 -207
-94 -7 -3 -13 -1 -13 5 0 5 6 12 13 15 179 80 245 106 257 106 8 0 -14 -15
-50 -32z m1120 -13 c0 -2 -9 0 -20 6 -11 6 -20 13 -20 16 0 2 9 0 20 -6 11 -6
20 -13 20 -16z m-237 -5 c-11 -11 -192 -26 -181 -14 7 7 180 33 187 28 3 -2 0
-8 -6 -14z m-140 -64 c23 -32 7 -32 -23 0 -16 17 -19 25 -9 25 8 0 22 -12 32
-25z m417 15 c12 -7 12 -12 0 -35 -7 -14 -16 -21 -19 -16 -3 4 -78 11 -166 14
-88 4 -161 6 -162 7 -2 0 -3 5 -3 10 0 6 62 10 166 10 107 0 163 3 159 10 -8
12 5 13 25 0z m-541 -74 c-8 -9 -376 -47 -416 -44 -41 3 7 12 272 47 112 16
162 14 144 -3z m375 -63 c31 -14 30 -14 -19 -8 -27 3 -85 9 -128 14 -42 4 -81
11 -85 16 -12 13 200 -7 232 -22z m-1144 -4 c0 -5 -11 -9 -25 -9 -24 0 -32 10
-19 22 8 8 44 -3 44 -13z m1373 -70 c23 -17 57 -37 76 -45 19 -8 32 -16 29
-19 -2 -3 -72 2 -156 10 -145 14 -195 26 -236 58 -17 12 -5 11 65 -4 46 -10
116 -21 154 -24 l70 -7 -45 31 c-37 26 -41 31 -22 31 12 0 41 -14 65 -31z
m-1763 -24 c7 -8 8 -15 2 -15 -5 0 -15 7 -22 15 -7 8 -8 15 -2 15 5 0 15 -7
22 -15z m287 -83 c-42 -42 -77 -73 -77 -68 0 12 142 157 149 151 3 -3 -30 -40
-72 -83z m-197 -71 l35 -29 -30 3 c-76 7 -106 18 -136 52 -16 19 -32 34 -33
32 -2 -2 -16 -35 -30 -74 l-26 -70 3 65 c2 39 12 84 25 113 l21 48 68 -56 c37
-30 84 -68 103 -84z m1409 100 c22 -14 -61 -104 -144 -156 -29 -18 -28 -17 8
25 45 53 48 69 6 29 -29 -27 -49 -30 -49 -9 0 5 31 30 69 55 39 24 73 49 76
55 8 12 16 12 34 1z m171 -29 c0 -14 -232 -183 -290 -211 -24 -12 -24 -11 -5
4 11 9 63 47 115 85 52 38 108 82 124 99 28 29 56 41 56 23z m-373 -168 c-3
-3 -12 -4 -19 -1 -8 3 -5 6 6 6 11 1 17 -2 13 -5z m-1497 -78 c0 -10 -60 -66
-112 -104 -31 -23 -68 -56 -81 -74 -35 -47 -66 -146 -81 -257 -11 -80 -23
-119 -73 -231 -33 -74 -64 -145 -67 -157 -4 -12 -30 -36 -59 -53 -29 -17 -63
-38 -76 -47 l-23 -17 7 34 c14 67 95 303 118 344 19 35 21 49 15 96 -14 99 -4
127 71 200 152 149 361 302 361 266z m130 -54 c0 -12 -3 -12 -15 -2 -8 7 -15
22 -15 34 1 21 1 21 15 2 8 -11 15 -26 15 -34z m-180 -46 c0 -2 -7 -7 -16 -10
-8 -3 -12 -2 -9 4 6 10 25 14 25 6z m-80 -62 c-22 -20 -43 -34 -46 -32 -6 6
66 68 78 68 5 0 -10 -16 -32 -36z m1220 -28 c0 -11 -19 -15 -25 -6 -3 5 1 10
9 10 9 0 16 -2 16 -4z m-1240 -134 c0 -15 -14 -47 -30 -72 -17 -25 -37 -64
-46 -87 -18 -45 -38 -59 -30 -20 3 12 8 51 11 86 3 35 16 89 27 119 l21 56 23
-28 c13 -15 24 -39 24 -54z m1190 58 c0 -5 -5 -10 -11 -10 -5 0 -7 5 -4 10 3
6 8 10 11 10 2 0 4 -4 4 -10z m410 -54 c0 -6 -5 -5 -12 2 -9 9 -15 7 -25 -6
-14 -16 -14 -15 -8 3 4 11 10 28 13 39 5 17 6 16 18 -5 7 -13 13 -28 14 -33z
m-1908 -158 c2 -20 0 -34 -4 -32 -4 3 -8 24 -7 47 1 47 6 41 11 -15z m1723 2
c-3 -5 -12 -10 -18 -10 -7 0 -6 4 3 10 19 12 23 12 15 0z m-1519 -87 c-26 -95
-63 -208 -81 -253 -21 -50 -105 -202 -105 -190 0 3 -7 26 -14 52 l-15 47 35
20 c19 11 37 29 40 38 26 86 124 303 136 303 5 0 7 -8 4 -17z m82 -28 c-3 -3
-9 2 -12 12 -6 14 -5 15 5 6 7 -7 10 -15 7 -18z m-431 -387 c-3 -8 -6 -5 -6 6
-1 11 2 17 5 13 3 -3 4 -12 1 -19z m36 -54 c-14 -41 -28 -73 -31 -70 -10 11
21 127 37 136 9 5 17 10 18 10 1 0 -10 -34 -24 -76z m-46 4 c-3 -8 -6 -5 -6 6
-1 11 2 17 5 13 3 -3 4 -12 1 -19z m1213 -22 c0 -3 -4 -8 -10 -11 -5 -3 -10
-1 -10 4 0 6 5 11 10 11 6 0 10 -2 10 -4z m0 -86 c0 -5 -2 -10 -4 -10 -3 0 -8
5 -11 10 -3 6 -1 10 4 10 6 0 11 -4 11 -10z m-377 -24 c-12 -20 -65 -77 -104
-111 -46 -41 -36 -28 41 54 69 73 76 79 63 57z m-160 -126 c-3 -12 -8 -19 -11
-16 -5 6 5 36 12 36 2 0 2 -9 -1 -20z m-682 -95 c6 -11 -1 -6 -15 10 -14 17
-26 35 -26 40 1 11 27 -20 41 -50z m649 27 c0 -5 -7 -17 -15 -28 -14 -18 -14
-17 -4 9 12 27 19 34 19 19z m-308 -44 c-8 -8 -9 -4 -5 13 4 13 8 18 11 10 2
-7 -1 -18 -6 -23z m-292 -25 c0 -5 -11 -13 -24 -19 -23 -11 -24 -10 -13 7 12
19 37 26 37 12z m464 -170 c-9 -21 -29 -54 -45 -73 l-30 -35 25 42 c14 24 26
46 26 51 0 8 29 52 35 52 2 0 -3 -17 -11 -37z m-508 -60 c-10 -10 -19 5 -10
18 6 11 8 11 12 0 2 -7 1 -15 -2 -18z m29 -13 c3 -5 -1 -10 -10 -10 -9 0 -13
5 -10 10 3 6 8 10 10 10 2 0 7 -4 10 -10z"/>
<path d="M3740 3960 c0 -5 5 -10 11 -10 5 0 7 5 4 10 -3 6 -8 10 -11 10 -2 0
-4 -4 -4 -10z"/>
<path d="M5085 4210 c-16 -7 -17 -9 -3 -9 9 -1 20 4 23 9 7 11 7 11 -20 0z"/>
<path d="M2809 2673 c-13 -16 -12 -17 4 -4 16 13 21 21 13 21 -2 0 -10 -8 -17
-17z"/>
<path d="M1900 4741 c-128 -50 -225 -143 -255 -241 l-7 -25 28 27 c16 15 55
39 88 54 48 22 68 26 110 21 l52 -5 17 71 c10 40 20 82 23 95 7 26 3 27 -56 3z"/>
<path d="M1619 4433 c-13 -15 -12 -15 11 -3 34 17 36 20 18 20 -9 0 -22 -7
-29 -17z"/>
<path d="M95 4359 c-4 -6 -5 -12 -2 -15 2 -3 7 2 10 11 7 17 1 20 -8 4z"/>
<path d="M72 4260 c0 -14 2 -19 5 -12 2 6 2 18 0 25 -3 6 -5 1 -5 -13z"/>
<path d="M1823 4263 c-15 -5 -17 -41 -4 -61 6 -10 10 -3 15 23 8 41 7 44 -11
38z"/>
<path d="M1532 4170 c0 -14 2 -19 5 -12 2 6 2 18 0 25 -3 6 -5 1 -5 -13z"/>
<path d="M1522 4120 c0 -14 2 -19 5 -12 2 6 2 18 0 25 -3 6 -5 1 -5 -13z"/>
<path d="M1530 3991 c0 -5 7 -11 14 -14 10 -4 13 -1 9 9 -6 15 -23 19 -23 5z"/>
<path d="M1570 3967 c0 -2 15 -16 33 -33 l32 -29 -29 33 c-28 30 -36 37 -36
29z"/>
<path d="M1540 3953 c0 -11 52 -59 98 -91 17 -12 32 -18 32 -13 0 6 -10 15
-21 22 -12 6 -41 29 -65 51 -24 22 -44 36 -44 31z"/>
<path d="M1680 3870 c0 -5 5 -10 11 -10 5 0 7 5 4 10 -3 6 -8 10 -11 10 -2 0
-4 -4 -4 -10z"/>
<path d="M1820 3800 c8 -5 22 -9 30 -9 10 0 8 3 -5 9 -27 12 -43 12 -25 0z"/>
<path d="M1905 3783 c17 -3 40 -14 52 -25 12 -11 29 -18 40 -15 15 4 14 5 -4
6 -13 0 -28 10 -35 21 -9 14 -23 20 -48 19 -34 -2 -34 -2 -5 -6z"/>
<path d="M1968 3783 c7 -3 16 -2 19 1 4 3 -2 6 -13 5 -11 0 -14 -3 -6 -6z"/>
<path d="M2038 3733 c12 -2 30 -2 40 0 9 3 -1 5 -23 4 -22 0 -30 -2 -17 -4z"/>
</g>
</svg>
