<?xml version="1.0" standalone="no"?>
<!DOCTYPE svg PUBLIC "-//W3C//DTD SVG 20010904//EN"
 "http://www.w3.org/TR/2001/REC-SVG-20010904/DTD/svg10.dtd">
<svg version="1.0" xmlns="http://www.w3.org/2000/svg"
 width="516.000000pt" height="900.000000pt" viewBox="0 0 516.000000 900.000000"
 preserveAspectRatio="xMidYMid meet">

<g transform="translate(0.000000,900.000000) scale(0.100000,-0.100000)"
fill="#000000" stroke="none">
<path d="M2462 8224 c-100 -22 -252 -78 -252 -93 0 -4 26 -38 58 -77 32 -38
88 -109 125 -157 67 -87 67 -88 67 -152 0 -149 -45 -358 -106 -493 -48 -106
-50 -127 -19 -194 24 -53 25 -59 10 -81 -8 -13 -12 -28 -8 -32 9 -11 1 -5 -87
61 -89 67 -146 119 -273 249 -122 124 -173 182 -209 240 -27 43 -27 45 3 117
10 26 19 62 18 80 -1 32 -1 31 -13 -12 -12 -42 -45 -116 -49 -108 -1 1 -11 14
-22 27 -20 24 -20 24 0 17 18 -5 20 -1 22 50 1 41 7 60 20 70 14 11 15 13 3
14 -13 0 -13 1 0 10 12 8 11 10 -7 10 -27 0 -29 12 -8 30 13 10 13 15 3 21 -9
6 -6 14 12 34 22 23 23 27 8 42 -15 15 -19 15 -41 0 -36 -23 -60 -17 -79 20
l-17 33 44 26 c25 14 45 28 45 31 0 20 -158 -75 -179 -109 -29 -47 43 -62 82
-16 9 11 17 15 17 10 0 -6 -5 -14 -11 -18 -8 -4 2 -14 24 -26 79 -40 96 -157
34 -225 -26 -30 -43 -30 -23 -1 9 12 16 43 17 68 0 31 3 39 8 26 7 -18 8 -18
14 -2 9 23 9 23 -10 30 -9 4 -20 1 -24 -6 -4 -7 -11 -9 -16 -5 -4 5 -2 11 4
15 18 11 4 54 -16 48 -9 -3 -29 -8 -46 -11 -16 -4 -39 -9 -49 -12 -14 -4 -18
-1 -13 11 4 9 2 16 -2 16 -5 0 -11 -7 -15 -15 -3 -8 -1 -15 4 -15 6 0 10 -5
10 -11 0 -7 8 -17 17 -24 15 -11 15 -14 -5 -40 -12 -15 -22 -32 -22 -37 0 -5
-14 -40 -32 -79 -25 -56 -35 -68 -50 -63 -11 3 -18 0 -18 -8 0 -10 -3 -9 -10
2 -8 12 -10 12 -16 -3 -3 -9 -10 -17 -16 -17 -5 0 -6 5 -3 10 3 6 2 10 -2 10
-18 0 -43 -60 -43 -101 0 -45 -15 -44 -22 1 l-4 25 -12 -28 c-14 -34 2 -81 49
-139 25 -31 27 -38 12 -36 -33 3 -53 -2 -53 -12 0 -6 19 -10 44 -9 41 2 48 -2
115 -61 39 -34 71 -66 71 -70 0 -5 -17 -4 -37 1 -41 9 -272 -15 -333 -35 -28
-9 -40 -22 -60 -62 -14 -28 -41 -74 -60 -102 -29 -43 -43 -53 -84 -64 -44 -13
-51 -18 -63 -54 -7 -21 -31 -75 -52 -119 -55 -112 -167 -354 -181 -389 -7 -20
-7 -32 0 -42 8 -9 8 -19 0 -34 -6 -12 -9 -26 -6 -33 3 -8 5 -7 5 3 1 10 5 8
16 -7 14 -21 65 -38 65 -22 0 5 5 9 10 9 6 0 10 -7 10 -15 0 -19 -21 -19 -66
0 -31 13 -36 13 -41 0 -9 -26 4 -41 46 -54 23 -6 41 -16 41 -22 0 -6 4 -7 10
-4 18 11 10 -9 -15 -40 -14 -16 -25 -25 -25 -19 0 6 3 14 7 18 11 11 12 37 2
30 -6 -3 -16 0 -24 6 -22 18 -29 -9 -22 -83 7 -78 15 -97 37 -97 23 0 44 26
36 46 -4 10 5 26 24 44 16 15 30 38 30 50 0 19 4 21 28 16 15 -4 51 -16 79
-27 46 -18 54 -26 63 -58 5 -20 10 -45 10 -55 0 -11 4 -33 9 -50 5 -17 14 -53
21 -81 14 -61 35 -88 27 -35 -3 22 1 45 10 60 14 25 14 25 9 -8 -4 -20 -2 -31
4 -27 6 3 10 2 10 -4 0 -5 -6 -11 -12 -13 -9 -3 -8 -9 4 -21 9 -9 18 -22 20
-29 3 -7 12 -9 22 -5 12 5 15 13 11 27 -3 11 -2 20 3 20 15 0 25 -86 12 -110
-6 -11 -8 -26 -4 -32 4 -7 3 -8 -4 -4 -7 4 -12 15 -12 25 0 10 -7 25 -16 32
-15 12 -16 10 -12 -24 2 -20 1 -37 -3 -37 -4 0 -9 -11 -11 -25 -6 -29 -4 -29
75 -11 53 13 61 12 58 -6 0 -5 4 -8 10 -8 5 0 8 -4 5 -8 -2 -4 8 -14 24 -21
16 -7 43 -25 60 -41 18 -16 35 -29 38 -29 19 3 33 -2 28 -10 -4 -5 -39 -15
-79 -21 -85 -15 -142 -36 -177 -66 -14 -12 -35 -31 -48 -41 -20 -16 -22 -22
-13 -46 6 -15 15 -27 20 -27 4 0 23 -24 41 -54 32 -52 33 -53 51 -35 11 11 19
23 19 29 0 5 11 12 25 16 14 3 25 10 25 16 0 5 6 8 13 7 6 -1 23 2 37 8 l25
10 -33 29 c-37 33 -39 41 -14 61 16 13 15 14 -5 8 -18 -5 -22 -3 -17 9 6 15
41 32 57 28 4 -1 25 7 47 18 21 11 41 20 44 20 2 0 2 -18 -1 -39 -4 -25 0 -51
11 -72 9 -17 16 -33 16 -35 0 -6 -146 -69 -155 -66 -16 3 -95 -67 -95 -84 0
-37 -38 2 -114 118 -20 32 -45 62 -56 68 -10 5 -51 11 -91 12 -72 3 -73 3 -83
-25 -9 -24 -7 -31 17 -53 29 -27 31 -36 17 -104 -8 -40 -6 -49 16 -81 28 -41
29 -52 10 -107 -9 -25 -11 -44 -5 -47 5 -4 9 -11 9 -16 0 -6 -4 -7 -10 -4 -17
11 -11 -37 7 -58 18 -20 17 -20 -37 -13 -30 4 -64 9 -75 12 -18 4 -21 0 -22
-30 0 -29 3 -35 24 -41 24 -6 25 -9 18 -51 -5 -39 -3 -50 15 -69 l21 -23 -21
-88 c-14 -59 -18 -90 -11 -92 7 -2 5 -9 -4 -19 -21 -20 -5 -40 52 -65 29 -13
43 -25 43 -38 0 -12 11 -23 32 -30 l33 -12 -3 -80 c-2 -44 0 -84 5 -89 4 -4 6
17 5 47 -5 66 32 167 58 159 8 -3 40 -9 70 -15 30 -6 60 -17 66 -25 6 -8 16
-15 23 -15 6 0 11 -2 11 -4 0 -40 25 -116 46 -138 34 -34 39 -84 19 -155 l-16
-55 28 -40 c15 -22 34 -43 41 -46 25 -9 230 27 277 49 52 24 72 17 35 -11 -37
-29 -101 -47 -224 -65 -178 -26 -285 -3 -385 81 -17 14 -34 24 -37 21 -9 -8
68 -75 101 -88 17 -6 46 -18 66 -27 l37 -17 -32 -10 c-22 -8 -41 -7 -66 2 -19
7 -40 12 -47 13 -7 0 -23 10 -35 23 -13 12 -41 35 -61 51 -21 16 -36 30 -34
33 8 8 57 -17 58 -29 0 -18 54 -58 97 -74 43 -15 82 -18 82 -5 0 4 -10 6 -23
4 -36 -7 -190 120 -170 141 3 3 -2 6 -11 6 -12 0 -16 5 -13 14 4 9 -3 16 -17
20 -27 7 -89 93 -140 194 -20 39 -38 72 -41 72 -6 0 -2 -23 6 -30 3 -3 23 -43
45 -90 21 -47 42 -86 46 -88 5 -2 8 -8 8 -13 0 -4 14 -29 32 -54 17 -24 29
-48 25 -51 -4 -4 -10 1 -13 11 -4 9 -19 31 -35 47 -15 17 -35 47 -46 67 -10
20 -25 41 -33 48 -8 7 -11 13 -7 13 4 0 -6 25 -23 56 -17 31 -32 63 -34 73 -2
9 -17 46 -35 83 -17 37 -32 76 -34 85 -2 10 -11 33 -21 51 -10 19 -19 41 -22
50 -2 10 -19 80 -38 157 -19 77 -43 185 -54 240 -11 55 -31 133 -46 173 -14
41 -26 84 -25 95 0 21 1 21 10 -1 5 -13 11 -34 13 -47 2 -13 13 -43 24 -67 30
-69 63 -188 56 -200 -4 -7 -3 -8 4 -4 7 4 12 2 12 -5 0 -7 3 -10 6 -7 3 3 -6
48 -20 99 -14 51 -24 95 -21 97 11 11 75 -247 81 -323 2 -33 7 -67 11 -75 3
-8 18 -49 33 -90 64 -175 84 -226 97 -247 13 -19 12 -23 -4 -32 -16 -10 -16
-11 -1 -9 12 2 29 -19 58 -72 23 -41 46 -87 52 -101 6 -15 20 -32 30 -38 18
-11 18 -10 8 9 -7 12 -14 33 -16 46 -3 14 -23 64 -45 112 -127 273 -238 615
-289 892 -16 85 -34 178 -40 205 -15 68 -31 228 -36 355 -3 94 0 120 31 240
56 218 113 392 145 437 16 23 43 75 61 115 17 40 91 195 164 343 73 149 136
281 140 295 3 14 20 52 36 86 22 43 39 63 60 71 16 6 29 16 29 22 0 14 -17 14
-25 1 -3 -5 -13 -6 -21 -3 -12 5 -10 11 13 36 15 16 23 27 16 23 -26 -15 -22
17 6 50 42 47 42 88 0 109 -27 15 -30 20 -24 48 8 34 15 47 53 89 13 14 22 31
18 36 -9 14 -51 8 -48 -7 2 -8 -3 -11 -12 -8 -9 4 -17 -2 -22 -15 -5 -16 -8
-18 -15 -7 -5 8 -9 11 -10 7 -1 -5 -2 -11 -3 -15 -1 -5 -5 -14 -10 -21 -4 -8
-1 -23 8 -37 20 -30 20 -49 2 -117 -28 -105 -115 -262 -135 -242 -3 3 15 45
39 94 32 66 41 93 33 101 -17 17 -29 4 -49 -47 -10 -25 -29 -59 -43 -74 -63
-69 -78 -87 -95 -112 -10 -15 -15 -32 -12 -37 4 -5 1 -13 -5 -17 -17 -10 -51
-93 -43 -106 4 -6 3 -8 -3 -5 -11 7 -99 -151 -89 -160 3 -4 6 -2 6 3 0 4 7 -2
16 -14 20 -30 59 -29 79 2 12 18 14 30 7 43 -7 13 -6 24 5 38 15 19 15 19 9
-10 -5 -22 -4 -26 4 -15 15 23 12 44 -10 57 -17 11 -19 10 -17 -15 2 -24 -1
-27 -30 -27 -18 0 -33 1 -33 2 0 15 27 54 41 58 9 3 20 12 23 20 6 16 36 10
36 -7 0 -6 -7 -7 -16 -4 -14 6 -15 4 -4 -9 12 -15 14 -15 23 1 7 13 5 21 -8
30 -13 10 -14 17 -6 31 9 15 10 16 11 2 0 -9 11 -24 24 -33 23 -15 25 -14 31
4 4 11 10 20 15 20 5 0 0 -17 -12 -37 -28 -48 -32 -53 -24 -25 5 13 3 22 -3
22 -10 0 -16 -30 -12 -54 1 -5 -12 -39 -30 -76 l-32 -68 -42 18 c-46 20 -55
18 -55 -12 0 -10 -4 -18 -9 -18 -5 0 -9 -16 -9 -35 0 -22 4 -33 11 -28 6 3 7
1 3 -5 -4 -6 -13 -9 -21 -5 -10 3 -15 -2 -15 -17 0 -12 -18 -65 -40 -118 -55
-134 -127 -347 -194 -575 -37 -124 -42 -328 -15 -579 13 -127 143 -682 195
-838 25 -74 65 -180 89 -235 24 -55 64 -147 88 -204 47 -111 124 -219 185
-262 18 -12 53 -42 76 -65 39 -38 53 -45 147 -67 92 -22 211 -35 332 -37 23 0
36 -4 32 -10 -3 -5 -26 -10 -49 -10 -51 0 -56 -6 -80 -85 -39 -127 -106 -225
-155 -225 -30 0 -56 24 -90 80 -11 19 -21 31 -21 26 0 -13 60 -110 74 -118 6
-4 26 -8 44 -8 42 0 79 39 129 137 l37 71 12 -34 c10 -29 9 -47 -7 -107 l-18
-72 26 -77 c21 -63 24 -82 15 -101 -6 -12 -16 -56 -22 -97 -6 -41 -13 -76 -15
-78 -2 -3 -17 7 -34 20 -32 27 -112 44 -139 29 -15 -8 -14 -11 8 -20 l25 -10
-27 0 c-15 -1 -30 -5 -33 -11 -3 -5 -11 -10 -17 -10 -6 0 -3 9 7 20 10 11 13
20 8 20 -14 0 -37 -29 -29 -37 3 -3 0 -16 -7 -27 -23 -34 -26 -78 -10 -118 8
-21 18 -36 22 -34 3 2 14 -2 24 -9 12 -8 14 -15 8 -20 -6 -3 -11 -1 -11 4 0 6
-4 11 -9 11 -10 0 -5 -56 6 -73 4 -7 8 -14 9 -17 0 -3 5 -14 9 -24 8 -19 9
-19 16 0 3 10 3 24 -2 30 -12 15 -1 42 22 54 17 9 17 8 4 -16 -7 -15 -12 -32
-9 -38 2 -6 -3 -29 -11 -51 -8 -24 -14 -32 -15 -20 0 25 -18 45 -41 45 -12 0
-15 7 -13 27 2 16 -2 8 -7 -17 -6 -25 -17 -67 -24 -95 -30 -115 -47 -202 -43
-220 2 -11 -5 -27 -14 -35 -27 -22 -39 -116 -27 -193 10 -55 80 -227 93 -227
3 0 1 11 -4 25 -5 14 -8 25 -5 25 12 0 54 -24 51 -29 -2 -3 12 -6 32 -5 20 1
44 -2 52 -6 64 -30 141 -50 227 -57 41 -3 68 -12 82 -24 11 -11 25 -19 31 -19
5 0 10 -5 10 -11 0 -12 -37 -3 -59 15 -12 9 -13 8 -8 -8 7 -17 4 -18 -35 -13
-24 3 -77 17 -118 31 -41 14 -83 26 -93 26 -10 0 -31 7 -47 15 -22 11 -30 12
-34 2 -3 -6 -4 0 -1 16 3 16 1 27 -5 27 -6 0 -8 -5 -5 -10 4 -7 -2 -9 -18 -5
-32 8 -40 -5 -38 -66 0 -42 -4 -54 -28 -80 -42 -44 -54 -106 -48 -255 6 -122
7 -126 36 -160 31 -35 40 -67 21 -79 -6 -3 -10 -25 -10 -49 0 -23 -4 -46 -9
-52 -8 -8 -18 -54 -40 -181 -4 -24 -15 -51 -25 -62 -40 -44 -39 -110 4 -229
l33 -93 56 -28 c31 -15 83 -36 116 -46 33 -10 88 -36 123 -57 34 -21 64 -38
66 -38 2 0 35 -18 73 -39 130 -75 377 -124 507 -100 138 26 174 42 201 90 5
10 22 36 37 56 25 35 27 42 17 78 -6 22 -20 48 -31 57 -11 10 -18 24 -15 30 7
19 8 28 2 28 -3 0 -14 9 -25 20 -11 11 -26 20 -34 20 -7 0 -19 6 -25 14 -6 8
-42 28 -78 46 -49 23 -87 52 -141 108 -87 92 -142 166 -115 158 68 -20 137
-27 263 -25 147 3 190 -4 285 -46 42 -19 213 -63 255 -66 19 -1 90 -2 156 -3
113 0 124 1 158 24 20 14 36 30 36 36 0 5 16 26 36 45 47 44 57 71 44 117 -12
45 -60 73 -87 51 -17 -15 -62 -13 -78 3 -7 7 2 8 26 5 20 -2 46 1 59 8 l24 13
-30 14 c-31 16 -147 52 -204 64 -19 4 -53 21 -75 39 -22 18 -67 49 -100 70
-113 70 -225 194 -250 276 -13 46 -13 53 2 76 13 20 19 65 25 202 5 97 13 205
20 241 6 35 10 80 10 100 -2 45 55 270 74 291 8 8 14 29 14 46 0 24 6 33 30
43 49 20 65 38 178 205 48 70 97 171 116 237 13 43 16 91 14 214 -2 87 -7 162
-12 166 -5 3 -2 13 6 22 9 8 18 12 22 9 3 -3 9 2 12 12 4 9 2 20 -6 25 -9 6
-9 12 0 29 6 12 9 29 6 39 -3 9 -8 70 -10 135 -3 65 -8 122 -11 127 -3 4 0 32
6 60 l11 52 29 -28 c17 -16 29 -38 29 -53 0 -19 10 -33 35 -48 41 -27 58 -29
75 -8 7 8 18 15 26 15 22 0 54 41 88 116 19 39 38 74 45 78 6 4 11 25 11 46 0
34 4 42 30 55 44 23 51 43 41 125 -8 58 -14 75 -33 88 -13 9 -26 16 -30 14 -5
-1 -8 7 -8 17 0 11 -18 68 -41 128 -55 145 -57 158 -32 151 27 -7 24 11 -15
96 -24 52 -29 71 -20 77 16 10 -25 99 -46 99 -21 0 -61 70 -61 105 0 22 -5 30
-17 29 -11 -1 -18 9 -22 31 -4 18 -17 45 -31 61 -13 16 -27 41 -30 56 -7 32
-23 45 -30 26 -3 -7 -8 -62 -13 -123 -5 -79 -11 -109 -20 -108 -16 4 -15 -7 3
-21 16 -12 29 -96 14 -96 -5 0 -9 7 -9 16 0 8 -5 12 -10 9 -12 -8 -7 -183 9
-290 6 -47 6 -74 -1 -82 -7 -9 0 -41 22 -110 18 -54 36 -103 41 -109 13 -16
12 -224 -1 -279 -27 -110 -41 -54 -18 71 10 58 9 70 -12 138 -13 41 -28 72
-33 69 -6 -4 -8 17 -5 50 3 36 1 54 -5 50 -6 -4 -8 0 -4 10 4 10 2 14 -7 11
-8 -3 -11 5 -8 30 2 18 -1 37 -7 40 -7 5 -11 -11 -11 -48 0 -31 4 -56 9 -56
13 0 5 -83 -10 -112 l-13 -23 -7 30 c-6 26 -7 23 -8 -17 -1 -30 -12 -71 -30
-110 -17 -35 -33 -75 -36 -91 -5 -24 -8 -26 -25 -17 -16 9 -20 8 -20 -5 0 -8
4 -15 9 -15 5 0 11 -21 15 -47 7 -52 38 -158 49 -169 10 -11 9 -44 -2 -44 -15
0 -110 308 -116 377 -2 17 -15 67 -30 110 -27 76 -31 93 -34 141 0 12 -8 22
-16 22 -7 0 -18 8 -23 17 -9 15 -11 14 -23 -5 -8 -12 -18 -22 -23 -22 -4 0 -3
6 3 13 8 10 7 22 -1 45 -13 35 -34 44 -25 12 3 -11 1 -20 -4 -20 -5 0 -9 6 -9
14 0 8 -7 16 -16 18 -12 2 -37 62 -84 203 -37 110 -71 208 -75 218 -4 9 -3 17
3 17 5 0 17 -21 27 -47 24 -62 41 -94 47 -88 3 3 3 -6 1 -20 -4 -17 -1 -25 8
-25 8 0 33 -21 55 -48 53 -61 95 -86 116 -69 27 21 3 67 -63 120 -45 36 -59
53 -53 65 19 46 16 62 -17 95 -19 19 -33 41 -31 50 5 24 -41 32 -78 14 l-30
-16 19 27 c14 21 17 32 9 46 -14 24 5 44 26 27 10 -8 16 -9 21 -1 3 5 2 10 -3
10 -8 0 -206 190 -230 222 -11 14 -10 16 8 11 11 -3 23 -9 25 -14 3 -4 12 -6
19 -3 16 6 33 -14 38 -46 2 -20 11 -27 46 -34 59 -12 92 3 92 44 0 49 25 48
79 -3 54 -51 98 -68 112 -46 5 8 9 17 9 20 0 8 -86 88 -125 116 -24 17 -27 23
-17 36 18 21 5 63 -26 87 -14 11 -22 23 -19 27 4 3 2 12 -4 20 -15 18 -74 17
-89 -2 -7 -9 -15 -13 -18 -10 -3 3 5 16 18 30 17 18 20 28 12 38 -14 16 -4 59
12 50 6 -3 7 -2 3 3 -5 5 -13 9 -17 9 -13 0 -290 238 -290 249 0 5 10 1 23
-10 12 -11 30 -26 39 -33 16 -12 17 -11 2 19 -9 17 -23 34 -30 37 -12 4 -10
12 10 37 16 22 26 52 31 92 8 73 14 96 24 90 4 -3 9 32 11 77 12 207 0 287
-67 447 -65 158 -84 190 -161 272 -70 74 -82 96 -25 45 13 -11 26 -18 29 -14
11 10 -49 77 -103 114 -51 35 -65 53 -43 53 18 0 83 -36 125 -70 22 -18 49
-37 60 -42 30 -16 -20 37 -69 73 -21 16 -34 29 -28 29 12 0 92 -58 135 -98 15
-14 33 -27 40 -28 19 -3 271 -105 283 -115 14 -12 135 -49 193 -59 25 -5 56
-11 69 -15 16 -5 22 -3 22 8 0 8 10 17 22 20 39 11 56 -29 77 -183 21 -148 41
-254 55 -285 28 -62 38 -124 40 -245 2 -69 7 -134 13 -145 6 -11 17 -35 23
-52 7 -18 16 -33 20 -33 5 0 0 22 -11 50 -11 30 -15 51 -9 55 6 3 10 -1 10 -9
0 -27 20 -67 30 -61 5 3 1 24 -12 50 -20 41 -21 50 -10 107 10 50 24 259 22
313 0 6 -2 60 -4 120 -3 83 -9 122 -25 158 -21 50 -90 144 -135 186 -23 21
-28 49 -6 36 5 -3 22 0 37 8 15 8 34 12 41 10 6 -3 12 0 12 6 0 6 -8 11 -17
11 -19 1 -53 22 -53 34 0 3 11 -1 25 -10 14 -9 25 -14 25 -11 0 2 -18 16 -40
31 -22 14 -40 31 -40 36 0 13 54 40 82 40 12 0 33 -12 46 -27 l23 -28 -15 32
c-9 17 -21 33 -27 35 -13 4 12 43 88 140 68 85 108 158 143 263 77 227 80 411
11 607 -62 176 -96 228 -167 252 -57 19 -155 19 -242 0z m83 -35 c2 -8 14 -31
27 -51 14 -20 35 -63 47 -95 13 -32 30 -75 38 -96 9 -20 14 -40 11 -43 -3 -3
-14 15 -23 40 -10 25 -22 46 -27 46 -12 0 -98 136 -109 173 -6 22 -5 33 4 39
16 10 30 5 32 -13z m-925 -269 c0 -5 -2 -10 -4 -10 -3 0 -8 5 -11 10 -3 6 -1
10 4 10 6 0 11 -4 11 -10z m1079 -65 c-12 -19 -26 -35 -31 -35 -10 0 -3 12 31
53 22 27 22 20 0 -18z m-1139 15 c0 -5 -2 -10 -4 -10 -3 0 -8 5 -11 10 -3 6
-1 10 4 10 6 0 11 -4 11 -10z m1100 -63 c0 -2 -12 -14 -27 -28 l-28 -24 24 28
c23 25 31 32 31 24z m-1090 -67 c0 -5 -2 -10 -4 -10 -3 0 -8 5 -11 10 -3 6 -1
10 4 10 6 0 11 -4 11 -10z m45 -10 c3 -5 2 -10 -4 -10 -5 0 -13 5 -16 10 -3 6
-2 10 4 10 5 0 13 -4 16 -10z m14 -120 c-34 -70 -47 -81 -19 -15 11 25 15 45
9 45 -6 0 -7 5 -4 10 4 6 10 8 15 5 5 -3 12 0 16 6 3 6 1 14 -5 18 -7 5 -9 15
-4 26 6 17 8 16 14 -8 5 -20 0 -43 -22 -87z m-36 39 c-3 -11 0 -19 6 -19 7 0
9 -5 5 -11 -3 -6 -14 2 -25 20 -23 39 -23 40 0 34 13 -3 17 -11 14 -24z m-28
-9 c-3 -5 -12 -10 -18 -10 -7 0 -6 4 3 10 19 12 23 12 15 0z m-55 -73 c0 -8
-9 -24 -20 -37 -11 -13 -20 -30 -20 -38 0 -13 3 -12 16 4 14 18 15 18 4 -4 -6
-12 -15 -20 -21 -17 -5 4 -9 -3 -9 -14 0 -19 10 -26 33 -22 4 1 12 -10 17 -23
14 -37 32 -44 24 -9 -5 23 -4 26 6 16 11 -10 20 1 45 55 32 66 60 101 71 89
10 -9 -5 -42 -48 -109 -22 -34 -44 -74 -48 -87 -6 -25 -6 -25 -53 18 -36 33
-47 39 -47 25 0 -9 21 -37 46 -60 107 -100 606 -368 834 -449 101 -36 160 -62
115 -51 -82 20 -122 33 -207 67 -252 100 -628 312 -760 429 -62 54 -66 76 -26
152 17 35 31 66 30 71 -1 4 3 7 8 7 6 0 10 -6 10 -13z m80 -35 c0 -5 -7 -17
-15 -28 -14 -18 -14 -17 -4 9 12 27 19 34 19 19z m120 -28 c0 -7 -22 -43 -50
-79 -27 -36 -50 -75 -50 -85 0 -26 -15 -33 -30 -15 -9 10 -9 15 -1 15 6 0 11
10 11 22 0 22 66 140 82 146 4 2 8 11 8 19 0 13 3 13 15 3 8 -7 15 -18 15 -26z
m-270 -14 c0 -5 -2 -10 -4 -10 -3 0 -8 5 -11 10 -3 6 -1 10 4 10 6 0 11 -4 11
-10z m114 -6 c9 -24 7 -31 -4 -14 -8 13 -11 11 -16 -7 -4 -13 -10 -23 -15 -23
-12 0 -11 4 3 35 13 29 23 32 32 9z m295 -120 c61 -64 108 -120 105 -125 -3
-5 -2 -9 3 -8 4 1 62 -51 128 -116 65 -64 140 -128 165 -141 37 -19 39 -23 15
-17 -125 27 -515 233 -592 312 -20 20 -33 44 -33 59 0 23 77 151 91 152 4 0
57 -52 118 -116z m-98 -216 c24 -16 24 -17 1 -11 -12 3 -25 9 -28 14 -3 5 -10
9 -16 9 -6 0 -5 -7 3 -17 12 -14 10 -14 -13 1 -32 21 -36 28 -10 20 10 -4 4 5
-13 21 l-30 26 41 -23 c22 -13 52 -31 65 -40z m-260 25 c13 -16 12 -17 -3 -4
-10 7 -18 15 -18 17 0 8 8 3 21 -13z m189 -34 l25 -20 -32 16 c-18 8 -33 18
-33 20 0 10 16 4 40 -16z m261 -97 c-10 -3 -81 35 -81 44 0 2 21 -6 46 -18 25
-13 40 -24 35 -26z m-1111 -53 c-20 -54 -27 -65 -35 -58 -5 6 42 109 49 109 3
0 -3 -23 -14 -51z m350 21 c0 -5 -4 -10 -10 -10 -5 0 -10 5 -10 10 0 6 5 10
10 10 6 0 10 -4 10 -10z m145 -29 c9 -16 -9 -20 -23 -5 -10 12 -10 14 2 14 8
0 17 -4 21 -9z m108 -57 c3 -3 1 -19 -5 -35 -7 -19 -17 -29 -30 -29 -12 0 -38
-5 -60 -12 -33 -10 -41 -9 -55 5 -18 18 -25 14 92 59 48 19 50 20 58 12z m126
-15 c22 -8 29 -15 22 -23 -12 -15 -54 -183 -49 -198 3 -9 22 48 55 165 3 12
14 17 37 17 47 0 56 -28 63 -205 8 -192 2 -231 -40 -276 -18 -19 -50 -58 -72
-88 l-40 -53 -164 5 c-163 6 -164 7 -191 34 -15 15 -37 55 -49 88 -13 33 -32
79 -42 103 -32 73 -24 302 11 302 5 0 10 -13 10 -29 0 -18 10 -42 25 -58 l25
-28 -15 37 c-23 58 -19 95 14 129 37 36 86 40 94 8 5 -17 11 -20 31 -15 25 6
26 5 26 -40 l0 -47 36 6 c45 8 44 6 48 51 2 36 18 56 42 56 13 0 24 23 24 51
0 15 7 19 34 19 18 0 47 -5 65 -11z m891 -9 c0 -5 -4 -10 -10 -10 -5 0 -10 5
-10 10 0 6 5 10 10 10 6 0 10 -4 10 -10z m65 -16 c19 -16 19 -16 -5 -9 -31 9
-50 25 -29 25 7 0 23 -8 34 -16z m-36 -101 c7 -5 -44 -21 -51 -16 -4 2 -2 12
4 23 10 15 15 17 28 7 8 -6 17 -13 19 -14z m-1805 4 c18 4 26 0 31 -16 8 -28
-1 -41 -30 -41 -28 0 -45 24 -37 54 3 11 7 16 9 10 2 -6 14 -9 27 -7z m20
-202 c-4 -8 -11 -12 -16 -9 -6 4 -5 10 3 15 19 12 19 11 13 -6z m109 -160 c-3
-9 -8 -14 -10 -11 -3 3 -2 9 2 15 9 16 15 13 8 -4z m43 -37 c-18 -26 -22 -17
-5 14 6 11 13 17 16 15 3 -3 -2 -16 -11 -29z m-65 -59 c7 -13 7 -19 1 -15 -6
3 -14 1 -19 -6 -11 -19 -13 -39 -2 -32 5 3 9 1 9 -4 0 -6 -7 -12 -15 -16 -8
-3 -15 -1 -15 4 0 6 -5 10 -11 10 -6 0 -8 -7 -5 -16 3 -9 2 -12 -5 -9 -6 4
-13 -2 -16 -14 -3 -12 -9 -21 -14 -21 -18 0 -8 20 31 65 22 25 40 53 40 61 0
20 7 17 21 -7z m11 -123 c-9 -18 -11 -16 -11 19 0 33 1 37 10 21 8 -12 8 -25
1 -40z m-57 -36 c0 -20 -6 -26 -27 -28 -35 -4 -58 31 -31 47 30 18 58 9 58
-19z m64 -28 c-12 -29 -26 -52 -30 -52 -5 0 -9 2 -9 4 0 9 33 82 42 94 20 23
18 5 -3 -46z m224 -67 c-3 -9 -8 -14 -10 -11 -3 3 -2 9 2 15 9 16 15 13 8 -4z
m-327 -81 c-3 -9 -3 -21 1 -27 16 -26 9 -112 -8 -101 -13 8 -11 144 2 144 6 0
8 -7 5 -16z m-252 -88 c-3 -15 -8 -25 -11 -23 -2 3 -1 17 3 31 3 15 8 25 11
23 2 -3 1 -17 -3 -31z m890 -89 l-7 -102 68 -130 c37 -72 69 -132 72 -135 2
-2 13 2 25 9 17 11 22 11 29 -1 5 -7 9 -16 9 -20 0 -3 9 -4 20 -1 11 3 20 1
20 -5 0 -5 -11 -13 -24 -16 -73 -18 -115 -100 -82 -161 22 -41 94 -84 107 -64
4 7 11 10 15 6 4 -4 2 -13 -4 -19 -14 -14 2 -38 24 -38 16 0 18 -28 5 -48 -6
-10 -11 -7 -19 15 -16 41 -32 57 -79 81 -23 12 -49 32 -57 44 -19 26 -21 90
-5 121 9 16 9 22 0 25 -13 4 -15 34 -2 48 6 5 -16 56 -56 128 -55 103 -65 130
-72 190 -8 82 -3 176 10 176 5 0 6 -44 3 -103z m221 64 c17 -5 63 -23 104 -40
40 -17 84 -31 98 -31 61 0 87 -46 69 -123 -9 -41 -13 -46 -31 -39 -11 4 -60 7
-110 7 -49 0 -96 4 -103 8 -7 5 -11 5 -10 0 3 -9 -5 -13 -29 -13 -14 0 -22 17
-35 73 -10 40 -18 94 -18 120 0 52 7 56 65 38z m-453 -146 c3 -13 2 -22 -2
-20 -11 7 -20 45 -10 45 4 0 10 -11 12 -25z m53 -5 c3 -5 1 -10 -4 -10 -6 0
-11 5 -11 10 0 6 2 10 4 10 3 0 8 -4 11 -10z m-792 -245 c3 -16 11 -68 17
-115 7 -47 25 -141 40 -210 27 -120 33 -176 10 -91 -6 23 -15 41 -20 41 -5 0
-7 9 -5 20 2 11 0 22 -6 25 -5 4 -9 24 -9 46 0 28 -4 39 -15 39 -8 0 -15 9
-15 19 0 11 -3 28 -6 38 -5 15 -4 15 5 3 9 -12 11 -11 11 8 0 13 -4 21 -8 18
-5 -3 -9 41 -11 97 -1 56 -7 118 -13 139 -6 21 -7 48 -3 65 7 24 10 17 16 -42
4 -38 9 -83 12 -100z m1443 124 c18 -14 26 -70 13 -86 -8 -9 -9 -34 -5 -76 4
-34 11 -98 15 -142 6 -64 16 -98 49 -167 23 -48 42 -92 42 -97 0 -15 82 -265
90 -276 7 -9 90 -242 90 -253 0 -2 -6 1 -14 7 -8 7 -17 30 -21 52 -4 21 -11
41 -16 45 -5 3 -9 12 -9 20 0 8 -29 75 -65 149 -36 73 -65 136 -65 139 0 3
-18 42 -40 87 -22 45 -41 89 -41 98 -1 13 -2 13 -6 -1 -6 -22 -12 -23 -28 -1
-13 18 -13 18 -76 -15 -4 -1 -15 19 -25 45 -9 26 -22 54 -27 61 -15 20 -37 14
-37 -10 0 -17 3 -19 9 -10 10 16 45 -53 54 -108 6 -34 6 -34 -7 -10 -8 14 -12
28 -10 32 3 5 0 8 -5 8 -6 0 -10 3 -9 8 1 4 -2 18 -6 31 -6 17 -10 20 -16 11
-5 -8 -10 -1 -15 20 -6 29 -3 37 24 62 42 39 42 88 1 142 -17 22 -30 36 -30
32 0 -4 -11 6 -25 22 -29 34 -49 87 -59 152 l-7 45 133 -3 c73 -2 138 -8 144
-13z m-666 -39 c0 -5 -2 -10 -4 -10 -3 0 -8 5 -11 10 -3 6 -1 10 4 10 6 0 11
-4 11 -10z m468 -197 c-2 -12 3 -18 15 -17 13 2 16 -3 12 -17 -4 -13 -2 -19 5
-17 7 2 15 -3 17 -10 3 -8 -1 -10 -11 -6 -9 3 -16 1 -16 -5 0 -6 5 -11 10 -11
6 0 10 -5 10 -11 0 -6 -6 -9 -12 -6 -7 2 -24 -4 -37 -14 -29 -23 -53 -26 -25
-3 19 15 19 15 -2 11 -12 -3 -26 -2 -32 2 -18 11 -22 47 -8 66 12 17 17 18 41
7 24 -11 27 -17 21 -43 -4 -22 -2 -29 7 -27 21 8 20 49 -2 72 -12 12 -19 25
-16 28 3 3 -8 5 -24 6 -35 1 -75 -37 -68 -65 4 -16 5 -15 6 3 0 11 10 29 21
39 23 21 26 9 5 -19 -20 -26 -19 -45 3 -69 16 -19 16 -20 0 -14 -13 4 -16 2
-12 -11 4 -10 -4 -6 -20 11 -33 36 -33 67 0 106 22 26 33 31 70 31 37 0 44 -3
42 -17z m22 -127 c0 -2 -7 -7 -16 -10 -8 -3 -12 -2 -9 4 6 10 25 14 25 6z
m360 -62 c15 -17 5 -12 -27 15 -29 24 -53 45 -53 48 0 8 55 -34 80 -63z m-413
40 c-3 -3 -12 -4 -19 -1 -8 3 -5 6 6 6 11 1 17 -2 13 -5z m-124 -85 c15 -28
24 -48 18 -45 -5 4 -12 2 -16 -3 -3 -6 -12 -8 -20 -5 -8 4 -30 -11 -54 -36
-43 -45 -47 -46 -121 -20 -82 29 -85 39 -23 69 27 12 77 38 113 56 36 19 67
34 70 34 3 1 18 -22 33 -50z m327 -46 c-8 -3 -18 -11 -22 -17 -4 -6 -10 -7
-15 -3 -9 10 16 27 37 26 13 -1 13 -1 0 -6z m38 -38 c-3 -3 -9 2 -12 12 -6 14
-5 15 5 6 7 -7 10 -15 7 -18z m-297 -27 c4 -85 -5 -107 -35 -85 -18 13 -18 16
-2 65 20 59 35 67 37 20z m216 -12 c-15 -12 -17 -18 -7 -36 6 -12 10 -24 7
-26 -2 -3 -10 9 -17 27 -11 26 -11 32 1 40 23 14 36 10 16 -5z m93 -52 c18
-36 29 -71 27 -78 -7 -16 -45 -27 -53 -15 -3 5 4 9 15 9 11 0 22 4 25 9 8 12
-30 21 -42 9 -6 -6 -12 -6 -16 1 -4 6 -2 11 3 11 6 0 11 5 11 11 0 5 -4 7 -10
4 -12 -7 -12 2 0 30 8 19 9 19 9 -1 1 -12 8 -24 16 -28 19 -7 19 -7 -5 49 -21
49 -23 55 -16 55 3 0 19 -30 36 -66z m-394 40 c-3 -9 -6 -18 -6 -20 0 -2 -13
-4 -30 -4 -38 0 -39 15 -2 28 39 15 45 14 38 -4z m354 -14 c0 -5 -10 -14 -22
-20 -22 -10 -22 -10 -4 4 10 8 15 20 10 27 -4 8 -3 10 4 5 7 -4 12 -11 12 -16z
m-129 -53 c7 -18 25 -60 41 -95 16 -35 26 -68 23 -73 -4 -5 -2 -9 3 -9 12 0
56 -99 54 -124 0 -11 5 -24 13 -30 18 -15 64 -127 58 -142 -2 -7 -11 -15 -20
-18 -18 -7 -76 51 -69 70 3 8 0 13 -6 11 -6 -1 -16 14 -22 33 -6 19 -19 46
-29 60 -17 25 -17 25 13 39 16 8 30 18 30 22 0 15 -21 20 -36 8 -18 -15 -18
-15 -48 53 l-25 55 25 11 c23 11 32 36 16 46 -5 3 -21 -2 -37 -10 -15 -8 -29
-13 -30 -12 -10 12 -35 70 -43 100 -10 35 -9 39 16 51 33 16 53 3 73 -46z m36
26 c8 -21 40 -87 70 -147 30 -59 52 -110 50 -113 -3 -2 17 -52 45 -109 27 -58
48 -110 46 -116 -2 -6 -17 18 -32 53 -16 35 -50 111 -76 169 -44 97 -76 170
-115 263 -8 21 -13 37 -10 37 3 0 13 -17 22 -37z m-503 -9 c3 -8 2 -12 -4 -9
-6 3 -10 10 -10 16 0 14 7 11 14 -7z m577 -26 c1 -7 1 -18 0 -25 -1 -6 3 -14
9 -18 5 -3 10 -15 10 -25 0 -10 6 -21 13 -23 9 -4 9 -6 0 -6 -12 -1 -34 34
-53 84 -7 20 -6 25 5 25 8 0 16 -6 16 -12z m326 -45 c-3 -10 -5 -4 -5 12 0 17
2 24 5 18 2 -7 2 -21 0 -30z m36 17 c-3 -12 -8 -19 -11 -16 -5 6 5 36 12 36 2
0 2 -9 -1 -20z m-63 -20 c0 -11 -2 -20 -4 -20 -2 0 -6 9 -9 20 -3 11 -1 20 4
20 5 0 9 -9 9 -20z m-30 -10 c0 -11 -2 -20 -4 -20 -2 0 -6 9 -9 20 -3 11 -1
20 4 20 5 0 9 -9 9 -20z m-30 -5 c0 -8 -4 -15 -10 -15 -5 0 -10 7 -10 15 0 8
5 15 10 15 6 0 10 -7 10 -15z m-97 -9 c4 -10 1 -13 -8 -9 -8 3 -35 -7 -60 -21
-25 -15 -45 -23 -45 -19 0 7 85 59 101 62 4 0 9 -6 12 -13z m-17 -45 c-3 -4
-19 -14 -36 -21 -30 -13 -37 -24 -21 -34 12 -8 73 13 86 29 8 10 13 7 22 -11
6 -13 7 -24 3 -24 -5 0 -10 5 -12 11 -2 6 -21 3 -52 -11 -55 -23 -52 -23 -64
10 -8 22 -6 27 27 42 40 19 55 22 47 9z m83 -170 c18 -41 29 -77 24 -81 -4 -5
-24 -15 -44 -23 l-37 -15 -36 81 c-20 45 -36 87 -36 93 0 6 17 18 38 26 46 19
49 16 91 -81z m1 64 c0 -5 -5 -3 -10 5 -5 8 -10 20 -10 25 0 6 5 3 10 -5 5 -8
10 -19 10 -25z m-651 -10 c11 3 29 1 38 -5 15 -10 14 -10 -8 -6 -14 3 -33 0
-43 -7 -15 -11 -14 -15 10 -51 18 -26 29 -35 34 -26 13 22 76 -7 114 -53 29
-35 36 -39 50 -28 9 7 16 11 16 8 0 -2 -20 -21 -45 -41 -44 -37 -45 -37 -70
-19 -26 19 -34 39 -12 30 8 -3 13 4 14 22 0 14 -1 18 -4 9 -6 -26 -23 -22 -24
5 0 18 -1 19 -7 4 -6 -15 -10 -13 -26 15 -11 18 -34 53 -53 77 -34 45 -47 95
-18 71 8 -6 23 -9 34 -5z m706 -123 c-4 -5 -45 84 -44 96 0 4 11 -15 24 -42
14 -27 23 -52 20 -54z m1035 16 c0 -17 -10 -6 -25 25 l-16 32 20 -25 c11 -14
21 -28 21 -32z m-2471 -28 c6 -19 8 -30 3 -25 -5 6 -15 26 -21 45 -6 19 -8 30
-3 25 5 -6 15 -26 21 -45z m1434 -16 c-3 -9 -26 -25 -51 -35 -56 -24 -67 -19
-12 6 22 10 45 24 51 32 15 17 20 17 12 -3z m90 -76 c6 -22 5 -22 -8 -4 -17
22 -20 40 -6 32 5 -3 11 -16 14 -28z m-95 -41 c12 -11 22 -25 22 -30 0 -6 -11
0 -25 13 -29 27 -67 36 -93 21 -13 -8 -9 -10 23 -11 31 0 48 -7 73 -30 22 -20
28 -30 18 -30 -19 0 -21 -17 -4 -22 7 -3 8 -10 4 -17 -7 -10 -10 -10 -16 -1
-4 7 -13 9 -20 5 -9 -6 -9 -9 1 -16 7 -4 10 -11 7 -15 -4 -3 -14 0 -22 9 -13
13 -13 17 4 32 11 10 20 23 20 29 0 6 -6 4 -13 -5 -7 -9 -22 -21 -35 -28 l-23
-12 22 -20 c12 -10 17 -19 11 -19 -6 0 -23 11 -38 25 -30 28 -49 33 -40 9 3
-9 2 -12 -5 -9 -5 4 -7 15 -4 26 4 12 1 21 -9 25 -22 8 -20 36 4 67 32 41 95
43 138 4z m132 -49 c0 -5 -4 -8 -10 -8 -5 0 -10 10 -10 23 0 18 2 19 10 7 5
-8 10 -18 10 -22z m-405 -28 c4 -6 10 -8 14 -6 3 3 18 -12 31 -32 14 -20 27
-39 31 -42 3 -3 8 -12 11 -21 4 -9 26 -26 49 -37 37 -19 46 -20 64 -8 11 7 21
22 23 32 3 18 2 18 -12 1 -12 -15 -18 -16 -35 -7 -22 11 -28 30 -10 30 5 0 8
-4 5 -9 -3 -5 1 -12 9 -15 9 -3 18 1 21 9 4 8 15 15 26 15 22 0 80 28 90 44 4
6 14 -5 23 -28 10 -24 13 -42 7 -49 -5 -7 -13 -26 -16 -43 -6 -27 -16 -36 -64
-57 -91 -40 -96 -40 -151 -13 -42 22 -56 37 -87 93 -21 36 -41 86 -44 110 -6
40 1 56 15 33z m145 -96 c0 -2 -9 -4 -21 -4 -11 0 -18 4 -14 10 5 8 35 3 35
-6z m554 -101 c25 -73 17 -84 -13 -18 -27 56 -31 82 -11 70 4 -3 15 -26 24
-52z m513 -5 c-3 -8 -6 -5 -6 6 -1 11 2 17 5 13 3 -3 4 -12 1 -19z m-913 -111
c-3 -12 5 -44 16 -70 17 -38 35 -57 91 -94 38 -25 69 -48 69 -50 0 -2 -3 -2
-7 0 -5 2 -24 11 -44 20 -20 9 -42 23 -49 32 -7 8 -18 15 -24 15 -7 0 -27 29
-46 65 -19 36 -39 65 -45 65 -17 0 -50 39 -41 48 4 4 22 12 39 18 28 10 33 9
39 -8 5 -11 6 -29 2 -41z m934 -52 c-3 -3 -9 2 -12 12 -6 14 -5 15 5 6 7 -7
10 -15 7 -18z m-853 -210 c0 -23 -4 -30 -20 -30 -21 0 -31 25 -21 51 11 28 41
12 41 -21z m-277 -17 c3 -24 0 -28 -23 -28 -27 0 -41 20 -31 46 10 27 51 13
54 -18z m156 10 c14 -22 -12 -52 -37 -42 -17 6 -23 44 -10 58 11 11 35 3 47
-16z m93 -100 c-2 -13 -4 -5 -4 17 -1 22 1 32 4 23 2 -10 2 -28 0 -40z m-633
5 c-21 -6 -74 -12 -117 -12 -49 -1 -76 -5 -72 -11 3 -5 1 -10 -4 -10 -6 0 -11
6 -11 13 0 9 -2 9 -8 -1 -7 -10 -19 -10 -62 1 -29 8 -48 17 -42 21 6 4 69 9
139 11 125 4 170 9 181 20 3 2 12 -1 20 -8 13 -10 9 -14 -24 -24z m1060 12
c-9 -14 -19 -23 -22 -20 -5 4 26 45 35 45 2 0 -4 -11 -13 -25z m-557 -52 c-4
-20 -2 -42 4 -49 7 -8 0 -19 -22 -38 -17 -15 -33 -25 -36 -23 -4 5 10 38 32
77 8 14 15 35 15 48 0 12 3 22 6 22 4 0 4 -17 1 -37z m269 -49 c-4 -13 -11
-24 -17 -24 -6 0 -6 6 0 18 9 18 10 21 12 50 1 15 2 15 6 -1 3 -10 2 -29 -1
-43z m139 -101 c-4 -27 -6 -92 -6 -145 1 -54 -2 -98 -6 -99 -38 -4 -60 -10
-148 -37 -95 -31 -163 -61 -139 -62 6 0 31 7 55 16 24 8 62 19 84 24 22 5 60
16 84 25 47 17 74 8 54 -17 -6 -7 -13 -24 -15 -38 -2 -20 -8 -24 -28 -21 -14
1 -37 9 -52 17 -18 10 -28 11 -28 4 0 -7 -9 -9 -22 -5 -18 5 -20 4 -8 -4 8 -6
26 -8 40 -5 14 3 3 -6 -25 -20 -53 -28 -75 -32 -75 -16 0 6 -9 10 -20 10 -11
0 -20 -4 -20 -10 0 -5 8 -10 18 -10 15 -1 15 -2 -2 -12 -31 -18 -155 -38 -236
-38 -41 0 -82 -5 -90 -10 -11 -7 0 -10 38 -10 37 0 57 -5 71 -19 16 -16 21
-17 46 -4 17 10 25 11 20 3 -5 -7 3 -6 21 3 75 38 146 69 150 65 2 -3 -40 -48
-93 -101 -53 -53 -92 -97 -85 -97 7 0 60 47 118 105 58 57 126 116 151 130 43
24 47 24 71 9 20 -13 23 -21 18 -46 -3 -17 -6 -66 -6 -109 0 -52 -4 -79 -11
-79 -8 0 -10 21 -7 70 6 78 -6 100 -56 100 -21 0 -44 -17 -100 -75 l-73 -76
-12 -82 c-6 -48 -17 -86 -25 -93 -8 -5 -36 -11 -61 -13 -26 -1 -66 -6 -89 -10
-22 -4 -54 -4 -71 1 -53 14 -64 -1 -16 -23 32 -14 66 -19 127 -19 l84 0 0 -33
c0 -58 -19 -72 -99 -72 -62 0 -79 5 -150 40 -44 22 -79 45 -77 50 2 6 -5 11
-15 11 -11 0 -19 -4 -19 -8 0 -4 5 -8 10 -8 6 0 10 -5 10 -10 0 -7 -6 -7 -19
0 -11 5 -26 7 -35 4 -8 -3 -24 4 -35 15 -31 31 -63 35 -106 12 -21 -11 -43
-17 -49 -13 -7 4 -4 8 7 10 37 7 58 83 37 138 -6 15 -8 29 -5 32 10 11 55 -42
61 -72 4 -25 14 -35 47 -49 53 -22 56 -22 84 5 16 15 22 17 18 7 -3 -9 1 -21
9 -28 12 -10 21 -8 50 14 19 14 47 30 61 34 24 6 25 8 12 20 -13 10 -21 8 -48
-18 -32 -31 -48 -38 -50 -23 -6 43 -5 80 6 115 11 38 16 42 46 45 47 5 58 19
31 38 -15 11 -22 26 -23 52 l-1 37 -9 -30 c-8 -28 -8 -27 -4 8 5 49 -2 66 -24
60 -21 -5 -149 12 -203 27 -33 10 -38 15 -38 41 0 26 3 29 21 24 11 -4 42 -11
67 -16 l47 -8 -57 4 c-46 3 -58 1 -58 -11 0 -18 36 -32 101 -38 55 -6 57 2 6
21 -32 11 -32 11 -5 12 15 1 30 -3 33 -9 3 -5 15 -10 26 -10 10 0 19 -5 19
-11 0 -5 4 -8 9 -5 5 3 7 15 4 26 -6 22 4 24 94 20 24 -1 57 7 81 19 21 11 61
25 87 32 26 7 64 20 84 30 35 18 35 18 9 19 -15 0 -30 -4 -33 -10 -3 -5 -18
-10 -31 -10 -14 0 -55 -13 -91 -30 -35 -16 -72 -30 -81 -29 -9 0 -2 6 16 12
25 9 30 15 21 24 -16 16 -4 30 44 51 23 11 51 29 61 41 12 13 26 19 37 16 33
-11 87 21 104 62 14 33 17 36 26 20 6 -10 8 -25 5 -34 -5 -12 -1 -14 21 -8 34
8 74 54 69 77 -3 14 2 16 23 12 33 -6 38 -2 90 69 23 31 44 57 47 57 4 0 3
-21 -1 -47z m16 -156 c-10 -9 -11 -8 -5 6 3 10 9 15 12 12 3 -3 0 -11 -7 -18z
m-1141 -417 c8 -5 11 -10 5 -10 -5 0 -17 5 -25 10 -8 5 -10 10 -5 10 6 0 17
-5 25 -10z m51 -17 c13 -16 12 -17 -3 -4 -10 7 -18 15 -18 17 0 8 8 3 21 -13z
m-26 -36 c24 -34 17 -45 -8 -14 -26 34 -85 44 -114 21 -17 -14 -16 -14 5 -4
27 13 29 -1 2 -25 -11 -10 -20 -29 -20 -42 0 -16 -4 -22 -12 -17 -15 9 -2 -14
26 -44 17 -19 17 -22 3 -17 -23 9 -57 67 -57 97 0 38 35 76 73 80 43 4 84 -10
102 -35z m-45 -26 c16 -31 12 -49 -15 -67 -24 -16 -27 -16 -45 1 -25 23 -25
40 0 65 25 25 46 25 60 1z m70 -48 c0 -3 -7 -3 -15 1 -18 7 -20 -5 -3 -22 9
-9 9 -15 0 -24 -9 -9 -12 -9 -12 0 0 7 -7 12 -15 12 -8 0 -15 -4 -15 -10 0 -5
5 -10 11 -10 5 0 7 -5 4 -11 -5 -6 -12 -4 -20 7 -10 15 -9 21 7 38 14 15 17
28 12 51 l-6 30 26 -28 c14 -15 26 -31 26 -34z m83 6 c23 -12 45 -27 49 -33
14 -22 -21 -41 -76 -41 -51 0 -53 1 -53 27 0 23 3 26 15 15 13 -10 15 -8 9 21
-8 38 -1 39 56 11z m-179 -61 c-2 -3 2 -8 8 -11 7 -2 11 -7 8 -10 -3 -3 -23 9
-45 28 l-40 34 36 -17 c20 -9 35 -20 33 -24z m45 -51 c-2 -1 -12 -9 -22 -16
-15 -12 -17 -12 -11 3 3 9 13 16 22 16 8 0 13 -1 11 -3z m-21 -67 c-15 -26
-24 -34 -26 -24 -3 13 33 64 45 64 2 0 -7 -18 -19 -40z m444 -26 c32 -18 68
-40 80 -49 25 -17 52 -20 43 -5 -9 15 4 12 20 -4 9 -9 28 -12 56 -9 l43 5 -17
-25 c-66 -101 -126 -210 -121 -219 9 -14 -89 -3 -143 16 -22 8 -44 12 -47 9
-3 -3 -18 5 -33 17 l-28 23 26 -7 c29 -6 43 11 33 39 -5 13 -9 13 -25 1 -18
-12 -27 -10 -74 16 -55 29 -76 48 -55 48 6 0 8 5 4 11 -4 8 -9 7 -15 -2 -7
-11 -13 -9 -31 9 -12 12 -18 22 -12 22 6 0 10 10 8 23 -1 12 -3 25 -3 30 -1 4
-9 7 -18 7 -16 -1 -16 -2 1 -15 17 -13 18 -15 3 -15 -25 0 -21 -39 6 -68 20
-23 21 -25 2 -17 -40 15 -55 17 -72 10 -17 -6 -17 -7 1 -21 11 -8 31 -14 45
-14 14 0 33 -5 41 -11 12 -8 9 -9 -10 -4 -19 5 -21 4 -10 -4 8 -6 23 -8 32 -5
10 3 21 -3 28 -16 6 -11 15 -18 21 -15 5 4 49 -19 97 -51 91 -61 122 -84 84
-65 -12 7 -27 9 -32 6 -6 -3 -10 0 -10 7 0 9 -3 9 -8 2 -13 -19 -53 -24 -59
-7 -13 34 -62 74 -113 92 -30 11 -58 17 -62 15 -5 -3 -8 0 -8 6 0 6 -4 8 -10
5 -5 -3 -20 1 -32 9 -24 17 -42 21 -35 9 3 -5 1 -17 -4 -28 -6 -16 -7 -14 -5
10 2 33 32 95 45 95 5 0 12 7 15 16 7 19 -5 12 -61 -33 -24 -19 -43 -31 -43
-27 0 18 53 83 63 77 6 -3 7 -1 3 5 -8 13 56 95 64 83 7 -10 101 -1 95 9 -11
18 29 18 52 0 14 -11 24 -21 22 -21 -24 -8 -49 -4 -49 9 0 9 -8 5 -21 -12 -17
-22 -19 -29 -9 -42 11 -13 15 -13 31 2 13 12 22 13 38 5 29 -16 54 -14 48 4
-4 8 -1 17 5 21 12 8 -28 43 -49 44 -20 0 -15 14 10 26 34 17 94 5 159 -32z
m-590 -209 c-8 -41 -19 -75 -25 -75 -5 0 -6 8 -3 17 4 9 11 37 17 62 11 52 17
71 22 71 2 0 -3 -34 -11 -75z m108 -61 c0 -8 -4 -14 -10 -14 -5 0 -10 9 -10
21 0 11 5 17 10 14 6 -3 10 -13 10 -21z m46 -34 c12 0 12 -5 -3 -32 -9 -19
-16 -52 -16 -78 1 -25 2 -45 3 -45 1 0 3 -9 4 -21 1 -12 9 -29 17 -39 31 -39
72 -75 84 -75 8 0 20 -12 27 -27 8 -16 22 -40 32 -55 18 -27 18 -28 -3 -28
-14 0 -19 5 -15 14 4 9 -5 20 -24 30 -17 9 -48 37 -69 63 -21 27 -41 49 -45
51 -4 2 -4 10 -1 19 5 12 3 14 -7 8 -8 -5 -11 -4 -6 3 3 5 1 12 -5 14 -6 2
-12 20 -13 41 -3 37 -31 81 -47 72 -6 -4 -6 22 1 55 0 3 5 -3 11 -12 11 -21
48 -24 50 -5 1 6 1 28 1 47 -1 19 2 27 4 18 3 -10 12 -18 20 -18z m419 -28
c-3 -3 -11 0 -18 7 -9 10 -8 11 6 5 10 -3 15 -9 12 -12z m25 -93 l65 -2 -50
-7 c-27 -5 -76 -9 -107 -9 -49 -1 -56 1 -51 15 5 12 14 15 42 10 20 -3 65 -6
101 -7z m152 -29 c-23 -24 -158 -48 -244 -42 -71 4 -95 22 -30 22 20 0 56 5
80 10 24 6 66 13 95 15 28 3 55 9 60 14 4 4 19 6 32 3 23 -4 23 -5 7 -22z
m-227 -70 c15 -6 8 -9 -27 -9 -27 -1 -48 4 -48 9 0 12 47 12 75 0z m-301 -29
c-2 -3 -12 3 -22 13 -16 17 -16 18 5 5 12 -7 20 -15 17 -18z m-134 -6 c14 -19
14 -19 -2 -6 -10 7 -18 18 -18 24 0 6 1 8 3 6 1 -2 9 -13 17 -24z m-67 -15 c3
-11 2 -18 -3 -15 -4 3 -10 14 -13 25 -3 11 -2 18 3 15 4 -3 10 -14 13 -25z
m58 -35 c7 -13 3 -12 -10 5 -11 14 -21 30 -21 35 0 11 14 -7 31 -40z m379 35
c0 -5 -5 -10 -11 -10 -5 0 -7 5 -4 10 3 6 8 10 11 10 2 0 4 -4 4 -10z m-409
-52 c11 -21 11 -22 -4 -9 -10 7 -17 17 -17 22 0 15 9 10 21 -13z m104 -18 c10
-11 16 -20 13 -20 -3 0 -13 9 -23 20 -10 11 -16 20 -13 20 3 0 13 -9 23 -20z
m-114 -22 c11 -21 11 -22 -4 -9 -10 7 -17 17 -17 22 0 15 9 10 21 -13z m239
-17 c0 -6 -4 -13 -10 -16 -5 -3 -10 1 -10 9 0 9 5 16 10 16 6 0 10 -4 10 -9z
m321 -16 c38 6 41 5 29 -9 -9 -12 -22 -15 -49 -10 -64 10 -75 15 -60 25 7 4
19 3 25 -2 7 -6 31 -7 55 -4z m-388 -37 c-2 -5 2 -8 10 -8 8 0 18 -7 21 -16 5
-12 -2 -11 -32 7 -20 12 -38 23 -40 25 -2 1 8 1 21 0 14 0 23 -4 20 -8z m160
-24 c-5 -15 -63 -20 -63 -6 0 17 22 29 45 24 15 -2 22 -9 18 -18z m115 10 c37
-10 25 -19 -31 -20 -28 -1 -44 0 -34 3 9 2 17 9 17 14 0 10 15 11 48 3z m62
-18 c0 -3 -4 -8 -10 -11 -5 -3 -10 -1 -10 4 0 6 5 11 10 11 6 0 10 -2 10 -4z
m127 -18 c-3 -8 -6 -5 -6 6 -1 11 2 17 5 13 3 -3 4 -12 1 -19z m-47 -17 c-16
-31 -32 -36 -18 -7 6 14 15 26 20 26 5 0 4 -9 -2 -19z m-110 -11 c0 -23 -14
-25 -59 -9 -43 15 -39 24 14 26 39 2 45 -1 45 -17z m70 4 c0 -10 -6 -14 -15
-10 -8 3 -15 1 -15 -4 0 -6 8 -10 18 -11 14 0 14 -2 -3 -9 -33 -14 -40 -11
-41 20 -1 27 2 30 27 30 20 0 29 -5 29 -16z m-548 -76 c-7 -7 -12 -8 -12 -2 0
14 12 26 19 19 2 -3 -1 -11 -7 -17z m-10 -85 c5 -50 52 -138 68 -128 5 3 11 1
15 -5 4 -6 10 -8 15 -5 4 3 13 -9 19 -27 6 -17 19 -40 28 -50 9 -10 14 -20 11
-23 -2 -3 -19 15 -36 40 -17 25 -40 45 -49 45 -10 0 -28 15 -40 33 -27 39 -62
137 -56 155 9 26 21 10 25 -35z m336 10 c-10 -2 -18 -9 -18 -15 0 -6 -3 -9 -6
-5 -10 10 6 27 24 26 15 -1 15 -2 0 -6z m265 -155 c-3 -46 -12 -101 -19 -123
-8 -22 -14 -58 -14 -80 0 -23 -5 -46 -10 -51 -6 -6 -11 -36 -13 -67 -1 -31 -3
-57 -4 -57 -2 0 -11 17 -21 38 -22 42 -19 56 13 92 17 19 24 42 28 93 5 58 11
91 33 215 9 48 12 18 7 -60z m-533 42 c0 -5 -2 -10 -4 -10 -3 0 -8 5 -11 10
-3 6 -1 10 4 10 6 0 11 -4 11 -10z m141 -181 c-23 -9 -41 -5 -41 10 0 4 14 5
32 3 31 -5 31 -5 9 -13z m367 -309 c6 -16 9 -30 7 -30 -5 0 -35 56 -35 65 0
15 19 -8 28 -35z m34 -232 c8 -7 37 -38 63 -68 l49 -55 -66 64 c-43 41 -70 61
-79 56 -8 -5 -10 -4 -5 3 9 15 18 15 38 0z m78 -137 c0 -3 -25 19 -55 49 -30
30 -55 57 -55 61 0 3 25 -19 55 -49 30 -30 55 -58 55 -61z m109 15 c-11 -9
-69 -14 -69 -6 0 6 17 10 37 10 20 0 34 -2 32 -4z m-132 -36 c-1 -11 -7 -20
-14 -20 -16 0 -17 12 -1 28 16 16 17 15 15 -8z m148 -70 c8 -13 -25 -13 -45 0
-12 8 -9 10 12 10 15 0 30 -4 33 -10z m-74 -26 c12 -14 11 -16 -5 -13 -11 2
-21 10 -24 17 -5 17 13 15 29 -4z m114 6 c3 -5 -1 -10 -9 -10 -9 0 -16 5 -16
10 0 6 4 10 9 10 6 0 13 -4 16 -10z m40 -24 c22 0 54 4 70 8 28 7 27 6 -7 -13
-36 -20 -42 -20 -115 -8 -43 8 -71 16 -63 19 8 3 29 3 45 -1 17 -3 48 -6 70
-5z"/>
<path d="M1695 7380 c-10 -11 -15 -20 -10 -20 4 0 14 8 21 18 12 16 16 14 48
-23 20 -22 35 -35 35 -30 1 13 -54 75 -66 75 -6 0 -18 -9 -28 -20z"/>
<path d="M1192 6648 c-27 -35 -41 -153 -23 -201 10 -26 115 -87 151 -87 35 0
21 24 -32 55 -97 57 -98 59 -98 131 0 36 5 74 11 86 12 23 7 34 -9 16z"/>
<path d="M1486 6624 c-5 -14 -4 -15 9 -4 17 14 19 20 6 20 -5 0 -12 -7 -15
-16z"/>
<path d="M1276 6535 c-3 -10 8 -24 32 -40 62 -42 89 -26 30 18 -49 36 -55 38
-62 22z"/>
<path d="M1527 6383 c-12 -11 -8 -23 8 -23 8 0 15 7 15 15 0 16 -12 20 -23 8z"/>
<path d="M1460 6366 c0 -9 7 -16 16 -16 17 0 14 22 -4 28 -7 2 -12 -3 -12 -12z"/>
<path d="M1492 6308 c-16 -16 -15 -28 3 -28 8 0 15 9 15 20 0 23 -2 24 -18 8z"/>
<path d="M1190 6300 c0 -5 5 -10 10 -10 6 0 10 5 10 10 0 6 -4 10 -10 10 -5 0
-10 -4 -10 -10z"/>
<path d="M661 6766 c-12 -14 -5 -26 16 -26 15 0 18 26 4 34 -5 3 -14 0 -20 -8z"/>
<path d="M691 6176 c-9 -10 -9 -16 -1 -21 17 -10 37 12 24 25 -8 8 -15 6 -23
-4z"/>
<path d="M1526 5774 c-3 -8 -1 -25 6 -37 8 -16 13 -18 16 -8 2 7 -1 17 -7 20
-6 4 -9 15 -5 24 3 9 4 17 1 17 -3 0 -8 -7 -11 -16z"/>
<path d="M1710 5695 c0 -2 10 -10 23 -16 20 -11 21 -11 8 4 -13 16 -31 23 -31
12z"/>
<path d="M1591 5458 c10 -23 19 -28 46 -28 21 0 32 4 28 10 -4 6 -15 8 -25 5
-12 -4 -26 2 -40 17 l-22 23 13 -27z"/>
<path d="M1740 5429 c0 -5 3 -9 8 -9 4 0 12 -10 17 -22 14 -31 35 -35 35 -6 0
17 -8 27 -30 35 -16 6 -30 7 -30 2z"/>
<path d="M1691 5269 c0 -15 -8 -30 -17 -33 -9 -4 -14 -9 -11 -12 3 -3 11 -2
18 2 7 4 24 9 38 11 47 5 50 6 45 15 -3 4 -18 8 -34 8 -19 0 -30 6 -33 18 -3
11 -5 8 -6 -9z"/>
<path d="M1401 5121 c-14 -4 -27 -13 -29 -20 -4 -11 2 -12 24 -7 33 8 69 37
44 35 -8 -1 -26 -4 -39 -8z"/>
<path d="M1680 4750 c0 -5 5 -10 10 -10 6 0 10 5 10 10 0 6 -4 10 -10 10 -5 0
-10 -4 -10 -10z"/>
<path d="M1782 4551 c2 -7 7 -12 11 -12 12 1 9 15 -3 20 -7 2 -11 -2 -8 -8z"/>
<path d="M1916 4707 c3 -10 9 -15 12 -12 3 3 0 11 -7 18 -10 9 -11 8 -5 -6z"/>
<path d="M1941 4664 c0 -11 3 -14 6 -6 3 7 2 16 -1 19 -3 4 -6 -2 -5 -13z"/>
<path d="M1923 4398 c-20 -26 -21 -46 -4 -62 22 -20 38 -21 21 -1 -7 9 -10 27
-6 45 6 33 4 37 -11 18z"/>
<path d="M1766 4280 c8 -31 66 -130 76 -130 6 0 -18 46 -71 135 -11 18 -11 18
-5 -5z"/>
<path d="M2089 3270 c-27 -23 -30 -28 -12 -24 23 6 73 54 56 54 -6 0 -26 -13
-44 -30z"/>
<path d="M2270 3170 c0 -5 7 -10 15 -10 8 0 15 5 15 10 0 6 -7 10 -15 10 -8 0
-15 -4 -15 -10z"/>
<path d="M2155 3120 c3 -5 13 -10 21 -10 8 0 12 5 9 10 -3 6 -13 10 -21 10 -8
0 -12 -4 -9 -10z"/>
<path d="M2038 3073 c12 -2 30 -2 40 0 9 3 -1 5 -23 4 -22 0 -30 -2 -17 -4z"/>
<path d="M1840 3060 c8 -5 29 -9 45 -9 26 0 27 2 10 9 -11 5 -31 9 -45 9 -20
1 -22 -1 -10 -9z"/>
<path d="M1920 3059 c0 -10 22 -10 65 1 26 6 24 7 -17 7 -27 0 -48 -3 -48 -8z"/>
<path d="M1795 3050 c-3 -5 -2 -10 4 -10 5 0 13 5 16 10 3 6 2 10 -4 10 -5 0
-13 -4 -16 -10z"/>
<path d="M1842 2980 c-19 -31 -14 -46 8 -22 20 21 26 42 12 42 -4 0 -13 -9
-20 -20z"/>
<path d="M1895 2990 c3 -5 8 -10 11 -10 2 0 4 5 4 10 0 6 -5 10 -11 10 -5 0
-7 -4 -4 -10z"/>
<path d="M1880 2925 c-7 -9 -19 -14 -27 -11 -8 3 -12 2 -9 -3 3 -5 -10 -19
-30 -30 -40 -24 -42 -39 -3 -19 38 20 94 66 88 73 -4 3 -12 -2 -19 -10z"/>
<path d="M1851 2860 c-13 -11 -19 -20 -14 -20 6 0 18 9 28 20 23 25 17 25 -14
0z"/>
<path d="M1930 2850 c-9 -6 -10 -10 -3 -10 6 0 15 5 18 10 8 12 4 12 -15 0z"/>
<path d="M1490 2782 c6 -13 14 -21 18 -18 3 4 -2 14 -12 24 -18 16 -18 16 -6
-6z"/>
<path d="M1486 2693 c-6 -14 -5 -15 5 -6 7 7 10 15 7 18 -3 3 -9 -2 -12 -12z"/>
<path d="M1650 2691 c0 -5 5 -13 10 -16 6 -3 10 -2 10 4 0 5 -4 13 -10 16 -5
3 -10 2 -10 -4z"/>
<path d="M1590 2660 c0 -5 5 -10 11 -10 5 0 7 5 4 10 -3 6 -8 10 -11 10 -2 0
-4 -4 -4 -10z"/>
<path d="M1770 2640 c0 -5 5 -10 10 -10 6 0 10 5 10 10 0 6 -4 10 -10 10 -5 0
-10 -4 -10 -10z"/>
<path d="M1347 2762 c-12 -25 -12 -28 4 -29 12 -1 16 3 12 13 -3 10 0 12 10 8
8 -3 18 0 23 7 5 9 2 10 -9 6 -9 -3 -19 -2 -22 3 -3 4 1 11 7 13 9 4 9 6 1 6
-6 1 -18 -12 -26 -27z"/>
<path d="M1399 2733 c-13 -15 -12 -15 9 -4 23 12 28 21 13 21 -5 0 -15 -7 -22
-17z"/>
<path d="M1591 2561 c-10 -7 -9 -14 9 -34 21 -24 48 -28 34 -6 -3 6 2 17 12
24 17 13 17 14 2 15 -9 0 -22 2 -30 5 -7 3 -19 1 -27 -4z"/>
<path d="M1780 2423 c7 -15 19 -23 33 -22 20 1 20 2 2 6 -11 3 -25 13 -33 22
-11 14 -12 13 -2 -6z"/>
<path d="M1766 2367 c3 -10 9 -15 12 -12 3 3 0 11 -7 18 -10 9 -11 8 -5 -6z"/>
<path d="M1509 8093 c-8 -9 -29 -22 -47 -30 -34 -14 -63 -62 -76 -128 -5 -25
-2 -32 19 -42 28 -12 27 -13 96 150 29 70 30 78 8 50z m-28 -64 c-5 -13 -10
-19 -10 -12 -1 15 10 45 15 40 3 -2 0 -15 -5 -28z"/>
<path d="M1866 8030 c15 -31 68 -100 75 -100 5 0 7 13 5 30 -3 25 2 33 33 51
42 26 27 38 -19 14 -17 -9 -35 -13 -40 -10 -5 3 -12 0 -16 -6 -5 -8 -13 -4
-26 12 -11 13 -16 17 -12 9z"/>
<path d="M1287 7913 c-4 -3 -7 -12 -7 -20 0 -15 26 -18 34 -4 7 11 -18 33 -27
24z"/>
<path d="M1468 7894 c-3 -3 -4 -23 -1 -45 l6 -39 -74 -1 c-41 -1 -79 -1 -85 0
-6 1 -17 -6 -24 -14 -11 -13 -6 -15 38 -15 45 0 50 -2 56 -25 4 -17 1 -31 -9
-41 -18 -19 -21 -114 -3 -132 22 -22 28 -12 28 48 0 68 16 112 39 108 20 -4
27 -96 11 -130 -11 -22 -11 -22 5 -3 11 14 15 36 13 75 -3 46 -7 57 -25 65
-13 5 -23 13 -23 17 0 12 28 10 35 -2 11 -18 28 -11 22 9 -3 11 1 22 8 24 11
5 12 24 7 87 -2 19 -13 26 -24 14z m-91 -296 c-3 -8 -6 -5 -6 6 -1 11 2 17 5
13 3 -3 4 -12 1 -19z"/>
<path d="M1950 7805 c0 -7 28 -36 55 -55 13 -10 10 -3 -9 23 -25 33 -46 47
-46 32z"/>
<path d="M2100 7655 c13 -14 26 -25 28 -25 3 0 -5 11 -18 25 -13 14 -26 25
-28 25 -3 0 5 -11 18 -25z"/>
<path d="M1891 7620 c-1 -8 -4 -25 -7 -37 -5 -18 -2 -22 14 -20 11 0 18 5 15
10 -3 5 -9 21 -13 35 -5 15 -9 20 -9 12z"/>
<path d="M2206 7545 c4 -8 8 -15 10 -15 2 0 4 7 4 15 0 8 -4 15 -10 15 -5 0
-7 -7 -4 -15z"/>
<path d="M903 7437 c-39 -43 -58 -107 -32 -107 6 0 9 -6 6 -12 -3 -7 -12 -30
-21 -50 -26 -60 -10 -44 21 20 14 31 39 78 54 104 27 45 27 48 10 57 -14 8
-23 5 -38 -12z"/>
<path d="M1895 7420 c-8 -14 3 -30 21 -30 8 0 14 9 14 20 0 21 -24 28 -35 10z"/>
<path d="M1962 7413 c4 -21 33 -25 33 -3 0 8 -8 16 -18 18 -14 3 -18 -1 -15
-15z"/>
<path d="M958 7358 c-10 -6 -9 -12 6 -23 22 -17 36 -11 36 14 0 19 -21 23 -42
9z"/>
<path d="M1953 7344 c-8 -21 13 -42 28 -27 13 13 5 43 -11 43 -6 0 -13 -7 -17
-16z"/>
<path d="M773 7121 c-37 -43 -87 -145 -80 -164 2 -6 11 11 20 38 10 28 35 72
57 99 22 26 40 52 40 57 0 13 -1 12 -37 -30z"/>
<path d="M1860 6884 c0 -6 16 -25 35 -44 19 -19 35 -29 35 -24 0 6 -16 25 -35
44 -19 19 -35 29 -35 24z"/>
<path d="M677 6836 c-3 -8 2 -16 13 -19 12 -3 17 0 16 11 -4 21 -22 27 -29 8z"/>
<path d="M1966 6802 c-5 -9 63 -106 71 -98 6 6 -21 60 -43 85 -12 13 -24 19
-28 13z"/>
<path d="M1850 6721 c0 -6 4 -13 10 -16 6 -3 7 1 4 9 -7 18 -14 21 -14 7z"/>
<path d="M2030 6672 c0 -7 6 -28 14 -47 32 -76 47 -162 47 -262 -1 -100 -2
-105 -41 -180 -48 -93 -52 -122 -9 -73 72 84 92 163 79 311 -5 66 -16 114 -35
159 -29 69 -55 112 -55 92z"/>
<path d="M2281 6537 c-71 -36 -89 -140 -38 -214 16 -23 41 -46 56 -53 22 -9
28 -18 29 -43 1 -18 8 -50 15 -72 13 -37 16 -40 48 -37 19 2 36 5 38 7 2 2 -4
25 -13 51 -21 63 -20 83 6 111 24 26 14 30 -16 8 -74 -56 -181 58 -154 162 17
65 90 93 141 53 28 -22 46 -27 25 -7 -48 47 -92 58 -137 34z m-46 -127 c3 -5
1 -10 -4 -10 -6 0 -11 5 -11 10 0 6 2 10 4 10 3 0 8 -4 11 -10z"/>
<path d="M2356 6444 l-29 -25 21 -29 c15 -20 17 -28 7 -26 -8 1 -17 5 -20 8
-12 12 -14 52 -4 65 7 8 8 13 1 13 -19 0 -31 -26 -26 -56 6 -35 21 -51 55 -59
21 -5 34 0 60 24 33 30 34 31 12 37 -29 8 -30 22 -2 26 l20 3 -21 23 c-26 28
-38 27 -74 -4z m34 -24 c8 -5 13 -10 10 -11 -33 -6 -50 -4 -50 8 0 15 19 17
40 3z"/>
<path d="M2146 6297 c3 -10 9 -15 12 -12 3 3 0 11 -7 18 -10 9 -11 8 -5 -6z"/>
<path d="M2305 6111 c-29 -18 -51 -41 -70 -70 -4 -8 17 5 49 29 31 23 56 46
56 51 0 12 0 12 -35 -10z"/>
<path d="M1996 6053 c-6 -14 -5 -15 5 -6 7 7 10 15 7 18 -3 3 -9 -2 -12 -12z"/>
<path d="M2362 6050 c-60 -37 -78 -119 -42 -189 49 -98 164 -119 206 -40 18
36 9 38 -18 4 -46 -58 -144 -15 -168 74 -20 75 25 151 89 151 20 0 23 2 11 10
-23 15 -42 12 -78 -10z"/>
<path d="M2461 6048 c2 -2 20 -16 39 -33 l35 -30 -29 33 c-17 17 -34 32 -40
32 -5 0 -7 -1 -5 -2z"/>
<path d="M1977 6008 c-3 -13 -2 -39 3 -58 l8 -35 1 42 c1 23 4 48 7 57 3 9 2
16 -4 16 -5 0 -12 -10 -15 -22z"/>
<path d="M2460 5975 c-14 -17 -5 -35 16 -35 8 0 13 -4 10 -9 -3 -5 -17 -8 -31
-8 -20 0 -25 3 -20 16 5 12 3 13 -5 5 -9 -9 -9 -17 -1 -32 15 -29 14 -37 -5
-21 -10 8 -14 23 -12 41 3 17 0 27 -6 25 -21 -7 -16 -58 9 -83 34 -34 67 -31
104 11 17 20 31 37 31 39 0 2 -11 1 -25 -2 -15 -2 -25 0 -25 7 0 6 10 11 22
11 l21 0 -23 25 c-27 29 -42 31 -60 10z"/>
<path d="M1996 5914 c-5 -12 5 -29 31 -56 38 -39 62 -45 25 -5 -11 12 -27 35
-35 50 -12 23 -16 25 -21 11z"/>
<path d="M2227 5903 c-21 -20 6 -83 36 -83 8 0 18 -6 20 -12 4 -8 6 -7 6 3 1
9 -6 22 -14 29 -8 7 -15 18 -15 24 -1 17 -26 47 -33 39z"/>
<path d="M1935 5877 c-4 -10 -5 -21 -1 -24 10 -10 18 4 13 24 -4 17 -4 17 -12
0z"/>
<path d="M1990 5830 c14 -13 39 -35 55 -49 26 -22 25 -20 -5 12 -19 21 -44 43
-55 49 -15 8 -14 5 5 -12z"/>
<path d="M2680 5770 c0 -5 5 -10 10 -10 6 0 10 5 10 10 0 6 -4 10 -10 10 -5 0
-10 -4 -10 -10z"/>
<path d="M1076 5459 c-12 -60 -7 -119 9 -119 10 0 15 10 14 33 l-1 32 -8 -30
-8 -30 -1 32 c0 17 4 35 9 38 12 8 13 75 1 75 -5 0 -11 -14 -15 -31z"/>
<path d="M1132 5423 c-1 -17 -5 -40 -8 -50 -5 -14 -4 -15 5 -7 7 7 11 28 8 50
-3 35 -4 35 -5 7z"/>
<path d="M1277 5276 c-11 -8 -14 -17 -8 -20 5 -4 15 3 21 14 13 23 11 24 -13
6z"/>
<path d="M1330 5225 c-6 -8 -10 -20 -8 -26 2 -6 12 0 21 15 18 27 8 37 -13 11z"/>
<path d="M2290 5054 c0 -15 22 -44 31 -39 14 9 11 19 -11 33 -11 7 -20 10 -20
6z"/>
<path d="M2345 5000 c3 -5 11 -10 16 -10 6 0 7 5 4 10 -3 6 -11 10 -16 10 -6
0 -7 -4 -4 -10z"/>
<path d="M2747 4865 c-4 -8 -2 -17 3 -20 6 -4 10 3 10 14 0 25 -6 27 -13 6z"/>
<path d="M2296 4535 c13 -60 33 -95 52 -95 11 0 31 -9 45 -20 14 -11 30 -20
35 -20 6 0 13 -6 16 -12 3 -7 3 1 0 17 l-5 30 24 -28 c22 -26 25 -27 32 -10
10 26 18 83 10 83 -3 0 -11 -13 -16 -30 -13 -35 -24 -38 -41 -10 -7 11 -18 20
-24 20 -5 0 -20 14 -33 31 -17 23 -26 28 -36 19 -10 -8 -19 -3 -39 22 l-27 33
7 -30z"/>
<path d="M581 4438 c10 -28 24 -56 30 -62 9 -8 9 -6 1 9 -5 11 -10 25 -11 30
-3 25 -23 75 -31 75 -5 0 0 -23 11 -52z"/>
<path d="M2475 4328 c14 -24 25 -51 25 -60 0 -10 4 -18 10 -18 10 0 3 54 -12
82 -4 10 -17 22 -28 28 -17 9 -16 6 5 -32z"/>
<path d="M653 4251 c12 -28 25 -51 30 -51 4 0 -1 17 -12 38 -10 20 -19 41 -19
47 0 5 -5 11 -11 13 -6 2 0 -19 12 -47z"/>
<path d="M938 3918 c-3 -28 0 -48 8 -57 11 -12 13 -6 7 40 -7 68 -10 71 -15
17z"/>
<path d="M1001 3589 c-1 -31 33 -143 54 -179 19 -33 19 -21 -1 26 -9 21 -24
70 -34 108 -11 39 -19 59 -19 45z"/>
<path d="M1235 3001 c5 -10 3 -12 -11 -7 -13 4 -24 -1 -33 -17 -7 -12 -10 -19
-6 -15 4 4 19 2 33 -3 17 -7 29 -6 36 1 7 7 7 11 1 10 -21 -5 -29 1 -15 10 13
8 13 11 1 22 -11 11 -13 11 -6 -1z"/>
<path d="M1120 2609 c0 -5 5 -7 10 -4 6 3 10 8 10 11 0 2 -4 4 -10 4 -5 0 -10
-5 -10 -11z"/>
</g>
</svg>
